<?xml version="1.0" encoding="UTF-8" standalone="no"?>
<!-- Created with Inkscape (http://www.inkscape.org/) -->

<svg
   xmlns:dc="http://purl.org/dc/elements/1.1/"
   xmlns:cc="http://creativecommons.org/ns#"
   xmlns:rdf="http://www.w3.org/1999/02/22-rdf-syntax-ns#"
   xmlns:svg="http://www.w3.org/2000/svg"
   xmlns="http://www.w3.org/2000/svg"
   xmlns:sodipodi="http://sodipodi.sourceforge.net/DTD/sodipodi-0.dtd"
   xmlns:inkscape="http://www.inkscape.org/namespaces/inkscape"
   width="210mm"
   height="297mm"
   viewBox="0 0 210 297"
   version="1.1"
   id="svg8"
   inkscape:version="0.92.1 r15371"
   sodipodi:docname="tube.svg"
   inkscape:export-filename="C:\laragon\www\frontend\GEHFtest\g6\gassets\world2\tube.png"
   inkscape:export-xdpi="96"
   inkscape:export-ydpi="96">
  <defs
     id="defs2" />
  <sodipodi:namedview
     id="base"
     pagecolor="#ffffff"
     bordercolor="#666666"
     borderopacity="1.0"
     inkscape:pageopacity="0.0"
     inkscape:pageshadow="2"
     inkscape:zoom="1.578672"
     inkscape:cx="118.44429"
     inkscape:cy="698.8646"
     inkscape:document-units="mm"
     inkscape:current-layer="layer1"
     showgrid="false"
     inkscape:window-width="1366"
     inkscape:window-height="705"
     inkscape:window-x="-8"
     inkscape:window-y="-8"
     inkscape:window-maximized="1" />
  <metadata
     id="metadata5">
    <rdf:RDF>
      <cc:Work
         rdf:about="">
        <dc:format>image/svg+xml</dc:format>
        <dc:type
           rdf:resource="http://purl.org/dc/dcmitype/StillImage" />
        <dc:title />
      </cc:Work>
    </rdf:RDF>
  </metadata>
  <g
     inkscape:label="Layer 1"
     inkscape:groupmode="layer"
     id="layer1">
    <rect
       style="fill:none;fill-opacity:1;stroke:none;stroke-width:0.1;stroke-miterlimit:4;stroke-dasharray:none;stroke-opacity:0.96862745"
       id="rect4489"
       width="18.520834"
       height="18.520834"
       x="18.898809"
       y="86.089287"
       inkscape:export-filename="C:\laragon\www\frontend\GEHFtest\g6\gassets\world2\tube.png"
       inkscape:export-xdpi="96"
       inkscape:export-ydpi="96" />
    <rect
       style="fill:none;fill-opacity:1;stroke:none;stroke-width:0.1;stroke-miterlimit:4;stroke-dasharray:none;stroke-opacity:0.96862745"
       id="rect4489-7"
       width="18.520834"
       height="18.520834"
       x="37.419643"
       y="86.089287"
       inkscape:export-filename="C:\laragon\www\frontend\GEHFtest\g6\gassets\world2\tube.png"
       inkscape:export-xdpi="96"
       inkscape:export-ydpi="96" />
    <rect
       y="53.205357"
       x="-103.1875"
       height="18.520834"
       width="18.520834"
       id="rect4499"
       style="fill:none;fill-opacity:1;stroke:#725671;stroke-width:0.1;stroke-miterlimit:4;stroke-dasharray:none;stroke-opacity:0.96862745" />
    <rect
       y="54.771786"
       x="-103.1579"
       height="15.279987"
       width="2.8111277"
       id="rect4501"
       style="opacity:0.47999998;fill:#48c7ca;fill-opacity:1;stroke:none;stroke-width:0.09148059;stroke-miterlimit:4;stroke-dasharray:none;stroke-opacity:0.96862745" />
    <rect
       y="55.724476"
       x="-100.34575"
       height="13.374598"
       width="15.622936"
       id="rect4503"
       style="opacity:0.32100004;fill:#a8b4ca;fill-opacity:1;stroke:none;stroke-width:0.093;stroke-miterlimit:4;stroke-dasharray:none;stroke-opacity:0.96862745" />
    <rect
       y="56.158054"
       x="-99.719009"
       height="1.4711368"
       width="12.389117"
       id="rect4505"
       style="opacity:0.3;fill:#ffffff;fill-opacity:1;stroke:none;stroke-width:0.12;stroke-miterlimit:4;stroke-dasharray:none;stroke-opacity:0.96862745;paint-order:stroke fill markers" />
    <rect
       y="53.205357"
       x="-84.666664"
       height="18.520834"
       width="18.520834"
       id="rect4507"
       style="fill:none;fill-opacity:1;stroke:#725671;stroke-width:0.1;stroke-miterlimit:4;stroke-dasharray:none;stroke-opacity:0.96862745" />
    <rect
       transform="rotate(-169.6664)"
       y="-83.391411"
       x="66.472473"
       height="15.279987"
       width="2.8111277"
       id="rect4509"
       style="opacity:0.47999998;fill:#48c7ca;fill-opacity:1;stroke:none;stroke-width:0.09148059;stroke-miterlimit:4;stroke-dasharray:none;stroke-opacity:0.96862745" />
    <rect
       transform="rotate(-169.6664)"
       y="-82.438713"
       x="50.848511"
       height="13.374598"
       width="15.622936"
       id="rect4511"
       style="opacity:0.32100004;fill:#a8b4ca;fill-opacity:1;stroke:none;stroke-width:0.093;stroke-miterlimit:4;stroke-dasharray:none;stroke-opacity:0.96862745" />
    <rect
       transform="rotate(-169.6664)"
       y="-70.968826"
       x="53.455597"
       height="1.4711368"
       width="12.389118"
       id="rect4513"
       style="opacity:0.3;fill:#ffffff;fill-opacity:1;stroke:none;stroke-width:0.12;stroke-miterlimit:4;stroke-dasharray:none;stroke-opacity:0.96862745;paint-order:stroke fill markers" />
    <rect
       ry="0"
       y="55.724476"
       x="-84.722809"
       height="13.307778"
       width="3.0612671"
       id="rect4515"
       style="opacity:0.32100004;fill:#a8b4ca;fill-opacity:1;stroke:none;stroke-width:0.04820361;stroke-miterlimit:4;stroke-dasharray:none;stroke-opacity:0.96862745" />
    <rect
       style="fill:none;fill-opacity:1;stroke:none;stroke-width:0.1;stroke-miterlimit:4;stroke-dasharray:none;stroke-opacity:0.96862745"
       id="rect4489-4"
       width="18.520834"
       height="18.520834"
       x="-74.461311"
       y="86.089287"
       transform="scale(-1,1)"
       inkscape:export-filename="C:\laragon\www\frontend\GEHFtest\g6\gassets\world2\tube.png"
       inkscape:export-xdpi="96"
       inkscape:export-ydpi="96" />
    <g
       id="g4656"
       transform="matrix(1,0,0,1.3091857,0,-15.389581)"
       inkscape:export-filename="C:\laragon\www\frontend\GEHFtest\g6\gassets\world2\tube.png"
       inkscape:export-xdpi="96"
       inkscape:export-ydpi="96">
      <rect
         inkscape:export-ydpi="96"
         inkscape:export-xdpi="96"
         inkscape:export-filename="C:\laragon\www\frontend\GEHFtest\g6\gassets\world2\tube.png"
         y="86.143814"
         x="18.928411"
         height="18.398291"
         width="2.8111277"
         id="rect4491"
         style="opacity:0.47999998;fill:#ca4848;fill-opacity:1;stroke:none;stroke-width:0.10038208;stroke-miterlimit:4;stroke-dasharray:none;stroke-opacity:0.96862745" />
      <rect
         inkscape:export-ydpi="96"
         inkscape:export-xdpi="96"
         inkscape:export-filename="C:\laragon\www\frontend\GEHFtest\g6\gassets\world2\tube.png"
         y="89.018364"
         x="18.932512"
         height="4.318676"
         width="2.7875051"
         id="rect4491-3"
         style="opacity:0.47999998;fill:#ca4848;fill-opacity:1;stroke:none;stroke-width:0.05906838;stroke-miterlimit:4;stroke-dasharray:none;stroke-opacity:0.96862745" />
      <rect
         inkscape:export-ydpi="96"
         inkscape:export-xdpi="96"
         inkscape:export-filename="C:\laragon\www\frontend\GEHFtest\g6\gassets\world2\tube.png"
         y="97.915062"
         x="18.875219"
         height="4.318676"
         width="2.7875051"
         id="rect4491-3-5"
         style="opacity:0.47999998;fill:#ca4848;fill-opacity:1;stroke:none;stroke-width:0.05906838;stroke-miterlimit:4;stroke-dasharray:none;stroke-opacity:0.96862745" />
    </g>
    <g
       id="g4661"
       transform="matrix(1,0,0,1.3091857,0,-15.389581)"
       inkscape:export-filename="C:\laragon\www\frontend\GEHFtest\g6\gassets\world2\tube.png"
       inkscape:export-xdpi="96"
       inkscape:export-ydpi="96">
      <rect
         inkscape:export-ydpi="96"
         inkscape:export-xdpi="96"
         inkscape:export-filename="C:\laragon\www\frontend\GEHFtest\g6\gassets\world2\tube.png"
         transform="scale(-1,1)"
         y="86.143814"
         x="-74.431709"
         height="18.398291"
         width="2.8111277"
         id="rect4491-60"
         style="opacity:0.47999998;fill:#ca4848;fill-opacity:1;stroke:none;stroke-width:0.10038208;stroke-miterlimit:4;stroke-dasharray:none;stroke-opacity:0.96862745" />
      <rect
         inkscape:export-ydpi="96"
         inkscape:export-xdpi="96"
         inkscape:export-filename="C:\laragon\www\frontend\GEHFtest\g6\gassets\world2\tube.png"
         style="opacity:0.47999998;fill:#ca4848;fill-opacity:1;stroke:none;stroke-width:0.05906838;stroke-miterlimit:4;stroke-dasharray:none;stroke-opacity:0.96862745"
         id="rect4589"
         width="2.7875051"
         height="4.318676"
         x="71.607002"
         y="89.433189" />
      <rect
         inkscape:export-ydpi="96"
         inkscape:export-xdpi="96"
         inkscape:export-filename="C:\laragon\www\frontend\GEHFtest\g6\gassets\world2\tube.png"
         style="opacity:0.47999998;fill:#ca4848;fill-opacity:1;stroke:none;stroke-width:0.05906838;stroke-miterlimit:4;stroke-dasharray:none;stroke-opacity:0.96862745"
         id="rect4591"
         width="2.7875051"
         height="4.318676"
         x="71.620583"
         y="98.329887" />
    </g>
    <rect
       style="opacity:0.32100004;fill:#ca7e90;fill-opacity:1;stroke:none;stroke-width:0.17625757;stroke-miterlimit:4;stroke-dasharray:none;stroke-opacity:0.96862745"
       id="rect4491-6"
       width="34.339966"
       height="21.856136"
       x="37.382881"
       y="98.525864"
       inkscape:export-filename="C:\laragon\www\frontend\GEHFtest\g6\gassets\world2\tube.png"
       inkscape:export-xdpi="96"
       inkscape:export-ydpi="96" />
    <path
       style="fill:none;stroke:#a71f00;stroke-width:0.25981364px;stroke-linecap:butt;stroke-linejoin:miter;stroke-opacity:0.34285715"
       d="m 31.22553,113.39964 c 0.132754,-0.0327 0.133414,0.21995 0.208797,0.30927 0.02158,0.0256 0.05126,0.0293 0.06959,0.0619 0.0082,0.0146 -0.0082,0.0473 0,0.0619 0.01834,0.0326 0.05126,0.0293 0.0696,0.0619 0.0082,0.0146 -0.0082,0.0473 0,0.0619 0.0082,0.0146 0.02515,-0.0114 0.0348,0 0.0546,0.0647 0.0867,0.17744 0.139198,0.24742 0.02075,0.0277 0.05126,0.0293 0.0696,0.0619 0.0082,0.0146 -0.0052,0.0434 0,0.0619 0.02088,0.0742 0.08352,0.11133 0.1044,0.18556 0.0052,0.0184 0,0.0412 0,0.0619 0.01159,0.0206 0.02746,0.0358 0.0348,0.0619 0.01037,0.0369 -0.01641,0.0946 0,0.12372 0.0082,0.0146 0.0266,-0.0146 0.0348,0 0.04771,0.0848 0.0348,0.20403 0.0348,0.30927 0,0.0206 -0.0052,0.0434 0,0.0619 0.0073,0.0261 0.02747,0.0358 0.0348,0.0619 0.0052,0.0184 -0.0037,0.0423 0,0.0619 0.0082,0.0437 0.0266,0.08 0.0348,0.1237 0.0037,0.0196 -0.0052,0.0434 0,0.0619 0.01871,0.0665 0.05089,0.11908 0.0696,0.18557 0.0052,0.0185 -0.0052,0.0435 0,0.0618 0.0073,0.0261 0.0232,0.0412 0.0348,0.0618 0.01159,0.0206 0.02013,0.0488 0.0348,0.0619 0.01037,0.009 0.0266,-0.0145 0.0348,0 0.0082,0.0145 0,0.0412 0,0.0618 0.01159,0.0206 0.02115,0.0457 0.0348,0.0619 0.04316,0.0512 0.09604,0.0725 0.139199,0.12372 0.01364,0.0161 0.02013,0.0488 0.0348,0.0618 0.02075,0.0185 0.04885,-0.0185 0.0696,0 0.01467,0.0131 0.02013,0.0488 0.0348,0.0618 0.01889,0.0168 0.129677,-0.0169 0.139199,0 0.0082,0.0145 -0.0052,0.0435 0,0.0619 0.03519,0.12516 0.08076,0.0199 0.104397,0.0618 0.01834,0.0326 0.01647,0.0911 0.0348,0.12372 0.0082,0.0145 0.0232,0 0.0348,0 0.01567,0 0.09381,0.009 0.104398,0 0.01467,-0.0131 0.02013,-0.0488 0.0348,-0.0618 0.02075,-0.0185 0.05319,0.0292 0.06959,0 0.0082,-0.0145 -0.0082,-0.0473 0,-0.0618 0.0082,-0.0145 0.0232,0 0.0348,0 0.01159,0 0.0232,0 0.0348,0 0.01159,0 0.0266,0.0145 0.0348,0 0.072,-0.12804 -0.110027,0.005 0.0348,-0.12372 0.02075,-0.0185 0.05319,0.0292 0.0696,0 0.0082,-0.0145 -0.0082,-0.0473 0,-0.0618 0.0071,-0.0131 0.0906,0.0118 0.104399,0 0.144827,-0.12869 -0.0372,0.004 0.0348,-0.12372 0.0082,-0.0145 0.02442,0.009 0.0348,0 0.01467,-0.0131 0.02013,-0.0488 0.0348,-0.0618 0.02075,-0.0185 0.05319,0.0292 0.0696,0 0.0082,-0.0145 -0.01037,-0.0526 0,-0.0619 0.02252,-0.02 0.126697,0.0223 0.139198,0 0.0082,-0.0145 -0.0082,-0.0473 0,-0.0618 0.0071,-0.0131 0.0906,0.0118 0.104398,0 0.01467,-0.0131 0.02013,-0.0488 0.0348,-0.0619 0.0093,-0.008 0.193053,0 0.208795,0 0.162399,0 0.324796,0 0.487192,0 0.301596,0 0.603191,0 0.904786,0 0.0928,0 0.185597,0 0.278395,0 0.0232,0 0.0464,0 0.0696,0 0.01159,0 0.0238,0.007 0.0348,0 0.252065,-0.14936 -0.05486,0.0178 0.104397,-0.12372 0.02054,-0.0182 0.08046,0.0141 0.104398,0 0.04921,-0.0292 0.08998,-0.0945 0.139198,-0.12372 0.01101,-0.007 0.02442,0.009 0.0348,0 0.01467,-0.013 0.02013,-0.0488 0.0348,-0.0619 0.01037,-0.009 0.0266,0.0146 0.0348,0 0.0082,-0.0146 -0.0082,-0.0473 0,-0.0619 0.0082,-0.0146 0.02442,0.009 0.0348,0 0.01855,-0.0165 0.05105,-0.10723 0.06959,-0.1237 0.01036,-0.009 0.0266,0.0146 0.0348,0 0.0082,-0.0146 -0.0082,-0.0473 0,-0.0619 0.01214,-0.0216 0.09718,0.0257 0.104398,0 0.01037,-0.0369 -0.01037,-0.0868 0,-0.12372 0.0052,-0.0184 0.02442,0.009 0.0348,0 0.01467,-0.013 0.02013,-0.0488 0.0348,-0.0619 0.01037,-0.009 0.02442,0.009 0.0348,0 0.01467,-0.013 0.02013,-0.0488 0.0348,-0.0619 0.02075,-0.0184 0.05319,0.0292 0.0696,0 0.0082,-0.0146 -0.0082,-0.0473 0,-0.0619 0.0082,-0.0146 0.02442,0.009 0.0348,0 0.01467,-0.013 0.02013,-0.0488 0.0348,-0.0619 0.01058,-0.009 0.08873,0 0.104398,0 0.0812,0 0.162396,0 0.243596,0 0.0928,0 0.185597,0 0.278395,0 0.0182,0 0.130047,0.008 0.139199,0 0.01467,-0.013 0.01923,-0.0526 0.0348,-0.0618 1.59e-4,-1e-4 0.104365,5e-5 0.104398,0 0.0082,-0.0146 -0.0082,-0.0473 0,-0.0619 0.0071,-0.0127 0.0906,0.0123 0.104399,0 0.01467,-0.013 0.02013,-0.0488 0.0348,-0.0619 0.02188,-0.0194 0.117325,0.0194 0.139196,0 0.01467,-0.013 0.02013,-0.0488 0.0348,-0.0619 0.009,-0.008 0.18413,0 0.208795,0 0.01159,0 0.0266,-0.0146 0.0348,0 0.0082,0.0146 -0.0082,0.0473 0,0.0619 0.0082,0.0146 0.02442,-0.009 0.0348,0 0.01467,0.0131 0.02013,0.0488 0.0348,0.0619 0.01037,0.009 0.0232,0 0.0348,0 0.01159,0 0.0232,0 0.0348,0 0.05799,0 0.115999,0 0.173998,0 0.01159,0 0.02442,0.009 0.0348,0 0.01467,-0.013 0.02013,-0.0488 0.0348,-0.0619 0.02075,-0.0184 0.04885,0.0184 0.0696,0 0.02934,-0.0261 0.03848,-0.10527 0.0696,-0.12371 0.0232,0 0.0464,0 0.0696,0 0,-0.0206 -0.01037,-0.0526 0,-0.0619 0.02075,-0.0184 0.04759,0.013 0.0696,0 0.01884,-0.0111 0.08154,-0.15847 0.1044,-0.18556 0.02158,-0.0256 0.05126,-0.0293 0.0696,-0.0619 0.0082,-0.0146 -0.01037,-0.0526 0,-0.0619 0.02075,-0.0184 0.04759,0.013 0.0696,0 0.03113,-0.0184 0.04025,-0.0976 0.0696,-0.12371 0.01037,-0.009 0.02442,0.009 0.0348,0 0.02934,-0.0261 0.0423,-0.0914 0.0696,-0.1237 0.02158,-0.0256 0.04802,-0.0363 0.0696,-0.0619 0.01364,-0.0162 0.02013,-0.0488 0.0348,-0.0619 0.01037,-0.009 0.0266,0.0146 0.0348,0 0.01834,-0.0326 0.02041,-0.0854 0.0348,-0.12371 0.03191,-0.0851 0.05369,-0.0636 0.104398,-0.1237 0.0273,-0.0324 0.03848,-0.10527 0.0696,-0.12372 0.02201,-0.013 0.04759,0.013 0.0696,0 0.01557,-0.009 0.0232,-0.0412 0.0348,-0.0619 0.0232,-0.0412 0.0423,-0.0914 0.0696,-0.1237 0.0096,-0.0114 0.0266,0.0146 0.0348,0 0.0082,-0.0146 -0.0082,-0.0473 0,-0.0619 0.01834,-0.0326 0.04801,-0.0363 0.0696,-0.0619 0.01364,-0.0162 0.02013,-0.0488 0.0348,-0.0619 0.08571,-0.0762 -0.03141,0.17955 0.104397,-0.0619 0.0082,-0.0146 -0.0082,-0.0473 0,-0.0619 0.0082,-0.0146 0.02442,0.009 0.0348,0 0.02934,-0.0261 0.04025,-0.0976 0.0696,-0.1237 0.01037,-0.009 0.0232,0 0.0348,0 0.01159,-0.0206 0.02013,-0.0488 0.0348,-0.0619 0.02075,-0.0184 0.04885,0.0184 0.06959,0 0.01467,-0.013 0.02013,-0.0488 0.0348,-0.0619 0.01037,-0.009 0.0266,0.0146 0.0348,0 0.0082,-0.0146 -0.0082,-0.0473 0,-0.0619 0.01641,-0.0292 0.04759,0.013 0.0696,0 0.126157,-0.0747 0.02477,-0.0293 0.104397,-0.12372 0.01752,-0.13627 0.07159,-0.0327 0.104399,-0.0619 0.01467,-0.013 0.02013,-0.0488 0.0348,-0.0619 0.0138,-0.0123 0.09728,0.0127 0.104398,0 0.0082,-0.0146 -0.0082,-0.0473 0,-0.0618 0.0082,-0.0146 0.0232,0 0.0348,0 0.01159,0 0.0232,0 0.0348,0 0.1044,0 0.208797,0 0.313196,0 0.289995,0 0.57999,0 0.869985,0 0.0812,0 0.162399,0 0.243596,0 0.0232,0 0.04759,0.013 0.0696,0 0.03113,-0.0184 0.04025,-0.0976 0.0696,-0.12371 0.01889,-0.0168 0.129675,0.0169 0.139196,0 0.0082,-0.0146 -0.0082,-0.0473 0,-0.0619 0.0082,-0.0146 0.0238,0.007 0.0348,0 0.02461,-0.0146 0.04443,-0.0507 0.0696,-0.0619 0.02251,-0.01 0.04759,0.0131 0.0696,0 0.03113,-0.0184 0.04025,-0.0976 0.06959,-0.1237 0.02075,-0.0184 0.05319,0.0292 0.0696,0 0.01834,-0.0326 0.01647,-0.0911 0.0348,-0.12371 0.01641,-0.0292 0.04885,0.0184 0.0696,0 0.02934,-0.0261 0.04025,-0.0976 0.0696,-0.12372 0.01036,-0.009 0.02442,0.009 0.0348,0 0.01467,-0.013 0.02013,-0.0488 0.0348,-0.0619 0.01037,-0.009 0.0266,0.0146 0.0348,0 0,-0.16495 -0.01159,0.0206 0.0348,-0.0619 0.0082,-0.0146 -0.0082,-0.0473 0,-0.0619 0.01834,-0.0326 0.04802,-0.0363 0.0696,-0.0619 0.01364,-0.0162 0.02013,-0.0488 0.0348,-0.0619 0.01037,-0.009 0.0266,0.0146 0.0348,0 0.0082,-0.0146 -0.0052,-0.0434 0,-0.0619 0.0073,-0.0261 0.0232,-0.0412 0.0348,-0.0619 0.02718,-0.0483 0.08438,-0.13219 0.104398,-0.18556 0.01438,-0.0384 0.01647,-0.0911 0.0348,-0.12371 0.0082,-0.0146 0.02442,0.009 0.0348,0 0.01859,-0.0165 0.08608,-0.153 0.104399,-0.18557 0.058,-0.10308 0.115999,-0.20618 0.173998,-0.30927"
       id="path4593"
       inkscape:connector-curvature="0"
       inkscape:export-filename="C:\laragon\www\frontend\GEHFtest\g6\gassets\world2\tube.png"
       inkscape:export-xdpi="96"
       inkscape:export-ydpi="96" />
    <path
       style="fill:none;stroke:#a71f00;stroke-width:0.26921549px;stroke-linecap:butt;stroke-linejoin:miter;stroke-opacity:0.34285715"
       d="m 40.273411,112.78107 c -0.126032,0.21197 -0.270544,0.4133 -0.378092,0.63592 -0.03278,0.0678 0.08943,0.0437 0.09449,0.0489 0.01114,0.0115 -0.007,0.0343 0,0.0489 0.03618,0.0749 0.0842,0.0383 0.14174,0.0978 0.003,0.003 0.08863,0.18655 0.0945,0.19567 0.01236,0.0192 0.03728,0.0283 0.04725,0.0489 0.007,0.0146 -0.007,0.0343 0,0.0489 0.0099,0.0206 0.02733,0.0386 0.04725,0.0489 0.01408,0.007 0.0402,-0.0146 0.04725,0 0.01408,0.0292 0,0.0652 0,0.0978 0,0.0163 -0.0087,0.0354 0,0.0489 0.169923,0.26388 0.01471,-0.0337 0.188989,0.14674 0.08816,0.0913 0.02196,0.1433 0.04725,0.19567 0.0099,0.0206 0.03489,0.0297 0.04725,0.0489 0.01953,0.0303 0.02236,0.0721 0.04725,0.0978 0.01114,0.0115 0.03611,-0.0115 0.04725,0 0.01114,0.0115 -0.007,0.0343 0,0.0489 0.01,0.0206 0.03729,0.0283 0.04725,0.0489 0.007,0.0146 -0.007,0.0343 0,0.0489 0.01,0.0206 0.03729,0.0283 0.04725,0.0489 0.007,0.0146 -0.007,0.0343 0,0.0489 0.0099,0.0206 0.03729,0.0283 0.04725,0.0489 0.007,0.0146 -0.01114,0.0374 0,0.0489 0.0249,0.0258 0.06959,0.0232 0.09449,0.0489 0.01114,0.0115 -0.005,0.0334 0,0.049 0.01114,0.0346 0.02236,0.0721 0.04725,0.0978 0.01114,0.0115 0.03611,-0.0115 0.04725,0 0.01114,0.0115 -0.007,0.0344 0,0.049 0.01,0.0206 0.03489,0.0297 0.04725,0.0489 0.01953,0.0303 0.02236,0.072 0.04725,0.0978 0.01114,0.0115 0.03316,-0.007 0.04725,0 0.05416,0.0281 0.06572,0.10208 0.09449,0.14675 0.01236,0.0191 0.0315,0.0326 0.04725,0.049 0.05268,0.0546 0.189553,0.21234 0.236236,0.24456 0.0131,0.009 0.03611,-0.0118 0.04725,0 0.0249,0.0258 0.02236,0.072 0.04725,0.0978 0.01114,0.0118 0.03611,-0.0118 0.04725,0 0.0249,0.0258 0.02236,0.072 0.04725,0.0978 0.01114,0.0118 0.03316,-0.008 0.04725,0 0.01992,0.0105 0.02943,0.0351 0.04725,0.0488 0.468521,0.36382 -0.09354,-0.0809 0.236233,0.14676 0.01852,0.0131 0.0315,0.0326 0.04725,0.0488 0.04725,0.0488 0.08829,0.10526 0.141742,0.14675 0.01259,0.009 0.03316,-0.008 0.04725,0 0.01992,0.0105 0.02872,0.0361 0.04725,0.0488 0.03739,0.0258 0.241771,0.13236 0.283483,0.14675 0.01495,0.005 0.03231,-0.005 0.04725,0 0.06682,0.023 0.12066,0.0801 0.188989,0.0978 0.02302,0.007 0.164004,-0.0131 0.188986,0 0.144085,0.0745 -0.08641,0.0388 0.141743,0.0978 0.03507,0.009 0.174485,-0.0151 0.188987,0 0.01114,0.0118 -0.01114,0.0373 0,0.049 0.02363,0.0245 0.118118,-0.0245 0.141742,0 0.09776,0.10133 -0.149384,-0.004 0.04725,0.0978 0.05048,0.0261 0.04401,-0.026 0.09449,0 0.01992,0.0105 0.02733,0.0386 0.04725,0.049 0.01408,0.008 0.03611,-0.0118 0.04725,0 0.01114,0.0118 -0.01114,0.0373 0,0.0488 0.02228,0.023 0.07222,-0.023 0.0945,0 0.0249,0.0258 0.02236,0.072 0.04725,0.0978 0.01114,0.0118 0.03611,-0.0118 0.04725,0 0.0249,0.0258 0.01908,0.0759 0.04725,0.0978 0.03984,0.031 0.100304,0.0203 0.141743,0.0488 0.0131,0.009 -0.01114,0.0373 0,0.049 0.01114,0.0118 0.03316,-0.008 0.04725,0 0.05079,0.0263 0.0974,0.0611 0.14174,0.0978 0.03478,0.0288 0.05465,0.0773 0.09449,0.0978 0.02817,0.0147 0.06829,-0.0181 0.0945,0 0.0293,0.0202 0.02236,0.072 0.04725,0.0978 0.02228,0.023 0.07222,-0.023 0.09449,0 0.01114,0.0118 -0.01114,0.0373 0,0.049 0.01114,0.0118 0.03316,-0.008 0.04725,0 0.01992,0.0105 0.02733,0.0386 0.04725,0.0488 0.01408,0.008 0.03316,-0.008 0.04725,0 0.01992,0.0105 0.02733,0.0386 0.04725,0.049 0.01408,0.008 0.03316,-0.008 0.04725,0 0.01992,0.0105 0.02733,0.0386 0.04725,0.049 0.01222,0.007 0.249994,0 0.283483,0"
       id="path4595"
       inkscape:connector-curvature="0"
       inkscape:export-filename="C:\laragon\www\frontend\GEHFtest\g6\gassets\world2\tube.png"
       inkscape:export-xdpi="96"
       inkscape:export-ydpi="96" />
    <path
       inkscape:connector-curvature="0"
       id="path4603"
       d="m 49.746362,113.39964 c 0.132754,-0.0327 0.133414,0.21995 0.208797,0.30927 0.02158,0.0256 0.05126,0.0293 0.06959,0.0619 0.0082,0.0146 -0.0082,0.0473 0,0.0619 0.01834,0.0326 0.05126,0.0293 0.0696,0.0619 0.0082,0.0146 -0.0082,0.0473 0,0.0619 0.0082,0.0146 0.02515,-0.0114 0.0348,0 0.0546,0.0647 0.0867,0.17744 0.139198,0.24742 0.02075,0.0277 0.05126,0.0293 0.0696,0.0619 0.0082,0.0146 -0.0052,0.0434 0,0.0619 0.02088,0.0742 0.08352,0.11133 0.1044,0.18556 0.0052,0.0184 0,0.0412 0,0.0619 0.01159,0.0206 0.02746,0.0358 0.0348,0.0619 0.01037,0.0369 -0.01641,0.0946 0,0.12372 0.0082,0.0146 0.0266,-0.0146 0.0348,0 0.04771,0.0848 0.0348,0.20403 0.0348,0.30927 0,0.0206 -0.0052,0.0434 0,0.0619 0.0073,0.0261 0.02747,0.0358 0.0348,0.0619 0.0052,0.0184 -0.0037,0.0423 0,0.0619 0.0082,0.0437 0.0266,0.08 0.0348,0.1237 0.0037,0.0196 -0.0052,0.0434 0,0.0619 0.01871,0.0665 0.05089,0.11908 0.0696,0.18557 0.0052,0.0185 -0.0052,0.0435 0,0.0618 0.0073,0.0261 0.0232,0.0412 0.0348,0.0618 0.01159,0.0206 0.02013,0.0488 0.0348,0.0619 0.01037,0.009 0.0266,-0.0145 0.0348,0 0.0082,0.0145 0,0.0412 0,0.0618 0.01159,0.0206 0.02115,0.0457 0.0348,0.0619 0.04316,0.0512 0.09604,0.0725 0.139199,0.12372 0.01364,0.0161 0.02013,0.0488 0.0348,0.0618 0.02075,0.0185 0.04885,-0.0185 0.0696,0 0.01467,0.0131 0.02013,0.0488 0.0348,0.0618 0.01889,0.0168 0.129677,-0.0169 0.139199,0 0.0082,0.0145 -0.0052,0.0435 0,0.0619 0.03519,0.12516 0.08076,0.0199 0.104397,0.0618 0.01834,0.0326 0.01647,0.0911 0.0348,0.12372 0.0082,0.0145 0.0232,0 0.0348,0 0.01567,0 0.09381,0.009 0.104398,0 0.01467,-0.0131 0.02013,-0.0488 0.0348,-0.0618 0.02075,-0.0185 0.05319,0.0292 0.06959,0 0.0082,-0.0145 -0.0082,-0.0473 0,-0.0618 0.0082,-0.0145 0.0232,0 0.0348,0 0.01159,0 0.0232,0 0.0348,0 0.01159,0 0.0266,0.0145 0.0348,0 0.072,-0.12804 -0.110027,0.005 0.0348,-0.12372 0.02075,-0.0185 0.05319,0.0292 0.0696,0 0.0082,-0.0145 -0.0082,-0.0473 0,-0.0618 0.0071,-0.0131 0.0906,0.0118 0.104399,0 0.144827,-0.12869 -0.0372,0.004 0.0348,-0.12372 0.0082,-0.0145 0.02442,0.009 0.0348,0 0.01467,-0.0131 0.02013,-0.0488 0.0348,-0.0618 0.02075,-0.0185 0.05319,0.0292 0.0696,0 0.0082,-0.0145 -0.01037,-0.0526 0,-0.0619 0.02252,-0.02 0.126697,0.0223 0.139198,0 0.0082,-0.0145 -0.0082,-0.0473 0,-0.0618 0.0071,-0.0131 0.0906,0.0118 0.104398,0 0.01467,-0.0131 0.02013,-0.0488 0.0348,-0.0619 0.0093,-0.008 0.193053,0 0.208795,0 0.162399,0 0.324796,0 0.487192,0 0.301596,0 0.603191,0 0.904786,0 0.0928,0 0.185597,0 0.278395,0 0.0232,0 0.0464,0 0.0696,0 0.01159,0 0.0238,0.007 0.0348,0 0.252065,-0.14936 -0.05486,0.0178 0.104397,-0.12372 0.02054,-0.0182 0.08046,0.0141 0.104398,0 0.04921,-0.0292 0.08998,-0.0945 0.139198,-0.12372 0.01101,-0.007 0.02442,0.009 0.0348,0 0.01467,-0.013 0.02013,-0.0488 0.0348,-0.0619 0.01037,-0.009 0.0266,0.0146 0.0348,0 0.0082,-0.0146 -0.0082,-0.0473 0,-0.0619 0.0082,-0.0146 0.02442,0.009 0.0348,0 0.01855,-0.0165 0.05105,-0.10723 0.06959,-0.1237 0.01036,-0.009 0.0266,0.0146 0.0348,0 0.0082,-0.0146 -0.0082,-0.0473 0,-0.0619 0.01214,-0.0216 0.09718,0.0257 0.104398,0 0.01037,-0.0369 -0.01037,-0.0868 0,-0.12372 0.0052,-0.0184 0.02442,0.009 0.0348,0 0.01467,-0.013 0.02013,-0.0488 0.0348,-0.0619 0.01037,-0.009 0.02442,0.009 0.0348,0 0.01467,-0.013 0.02013,-0.0488 0.0348,-0.0619 0.02075,-0.0184 0.05319,0.0292 0.0696,0 0.0082,-0.0146 -0.0082,-0.0473 0,-0.0619 0.0082,-0.0146 0.02442,0.009 0.0348,0 0.01467,-0.013 0.02013,-0.0488 0.0348,-0.0619 0.01058,-0.009 0.08873,0 0.104398,0 0.0812,0 0.162396,0 0.243596,0 0.0928,0 0.185597,0 0.278395,0 0.0182,0 0.130047,0.008 0.139199,0 0.01467,-0.013 0.01923,-0.0526 0.0348,-0.0618 1.59e-4,-1e-4 0.104365,5e-5 0.104398,0 0.0082,-0.0146 -0.0082,-0.0473 0,-0.0619 0.0071,-0.0127 0.0906,0.0123 0.104399,0 0.01467,-0.013 0.02013,-0.0488 0.0348,-0.0619 0.02188,-0.0194 0.117325,0.0194 0.139196,0 0.01467,-0.013 0.02013,-0.0488 0.0348,-0.0619 0.009,-0.008 0.18413,0 0.208795,0 0.01159,0 0.0266,-0.0146 0.0348,0 0.0082,0.0146 -0.0082,0.0473 0,0.0619 0.0082,0.0146 0.02442,-0.009 0.0348,0 0.01467,0.0131 0.02013,0.0488 0.0348,0.0619 0.01037,0.009 0.0232,0 0.0348,0 0.01159,0 0.0232,0 0.0348,0 0.05799,0 0.115999,0 0.173998,0 0.01159,0 0.02442,0.009 0.0348,0 0.01467,-0.013 0.02013,-0.0488 0.0348,-0.0619 0.02075,-0.0184 0.04885,0.0184 0.0696,0 0.02934,-0.0261 0.03848,-0.10527 0.0696,-0.12371 0.0232,0 0.0464,0 0.0696,0 0,-0.0206 -0.01037,-0.0526 0,-0.0619 0.02075,-0.0184 0.04759,0.013 0.0696,0 0.01884,-0.0111 0.08154,-0.15847 0.1044,-0.18556 0.02158,-0.0256 0.05126,-0.0293 0.0696,-0.0619 0.0082,-0.0146 -0.01037,-0.0526 0,-0.0619 0.02075,-0.0184 0.04759,0.013 0.0696,0 0.03113,-0.0184 0.04025,-0.0976 0.0696,-0.12371 0.01037,-0.009 0.02442,0.009 0.0348,0 0.02934,-0.0261 0.0423,-0.0914 0.0696,-0.1237 0.02158,-0.0256 0.04802,-0.0363 0.0696,-0.0619 0.01364,-0.0162 0.02013,-0.0488 0.0348,-0.0619 0.01037,-0.009 0.0266,0.0146 0.0348,0 0.01834,-0.0326 0.02041,-0.0854 0.0348,-0.12371 0.03191,-0.0851 0.05369,-0.0636 0.104398,-0.1237 0.0273,-0.0324 0.03848,-0.10527 0.0696,-0.12372 0.02201,-0.013 0.04759,0.013 0.0696,0 0.01557,-0.009 0.0232,-0.0412 0.0348,-0.0619 0.0232,-0.0412 0.0423,-0.0914 0.0696,-0.1237 0.0096,-0.0114 0.0266,0.0146 0.0348,0 0.0082,-0.0146 -0.0082,-0.0473 0,-0.0619 0.01834,-0.0326 0.04801,-0.0363 0.0696,-0.0619 0.01364,-0.0162 0.02013,-0.0488 0.0348,-0.0619 0.08571,-0.0762 -0.03141,0.17955 0.104397,-0.0619 0.0082,-0.0146 -0.0082,-0.0473 0,-0.0619 0.0082,-0.0146 0.02442,0.009 0.0348,0 0.02934,-0.0261 0.04025,-0.0976 0.0696,-0.1237 0.01037,-0.009 0.0232,0 0.0348,0 0.01159,-0.0206 0.02013,-0.0488 0.0348,-0.0619 0.02075,-0.0184 0.04885,0.0184 0.06959,0 0.01467,-0.013 0.02013,-0.0488 0.0348,-0.0619 0.01037,-0.009 0.0266,0.0146 0.0348,0 0.0082,-0.0146 -0.0082,-0.0473 0,-0.0619 0.01641,-0.0292 0.04759,0.013 0.0696,0 0.126157,-0.0747 0.02477,-0.0293 0.104397,-0.12372 0.01752,-0.13627 0.07159,-0.0327 0.104399,-0.0619 0.01467,-0.013 0.02013,-0.0488 0.0348,-0.0619 0.0138,-0.0123 0.09728,0.0127 0.104398,0 0.0082,-0.0146 -0.0082,-0.0473 0,-0.0618 0.0082,-0.0146 0.0232,0 0.0348,0 0.01159,0 0.0232,0 0.0348,0 0.1044,0 0.208797,0 0.313196,0 0.289995,0 0.57999,0 0.869985,0 0.0812,0 0.162399,0 0.243596,0 0.0232,0 0.04759,0.013 0.0696,0 0.03113,-0.0184 0.04025,-0.0976 0.0696,-0.12371 0.01889,-0.0168 0.129675,0.0169 0.139196,0 0.0082,-0.0146 -0.0082,-0.0473 0,-0.0619 0.0082,-0.0146 0.0238,0.007 0.0348,0 0.02461,-0.0146 0.04443,-0.0507 0.0696,-0.0619 0.02251,-0.01 0.04759,0.0131 0.0696,0 0.03113,-0.0184 0.04025,-0.0976 0.06959,-0.1237 0.02075,-0.0184 0.05319,0.0292 0.0696,0 0.01834,-0.0326 0.01647,-0.0911 0.0348,-0.12371 0.01641,-0.0292 0.04885,0.0184 0.0696,0 0.02934,-0.0261 0.04025,-0.0976 0.0696,-0.12372 0.01036,-0.009 0.02442,0.009 0.0348,0 0.01467,-0.013 0.02013,-0.0488 0.0348,-0.0619 0.01037,-0.009 0.0266,0.0146 0.0348,0 0,-0.16495 -0.01159,0.0206 0.0348,-0.0619 0.0082,-0.0146 -0.0082,-0.0473 0,-0.0619 0.01834,-0.0326 0.04802,-0.0363 0.0696,-0.0619 0.01364,-0.0162 0.02013,-0.0488 0.0348,-0.0619 0.01037,-0.009 0.0266,0.0146 0.0348,0 0.0082,-0.0146 -0.0052,-0.0434 0,-0.0619 0.0073,-0.0261 0.0232,-0.0412 0.0348,-0.0619 0.02718,-0.0483 0.08438,-0.13219 0.104398,-0.18556 0.01438,-0.0384 0.01647,-0.0911 0.0348,-0.12371 0.0082,-0.0146 0.02442,0.009 0.0348,0 0.01859,-0.0165 0.08608,-0.153 0.104399,-0.18557 0.058,-0.10308 0.115999,-0.20618 0.173998,-0.30927"
       style="fill:none;stroke:#c38161;stroke-width:0.25981364px;stroke-linecap:butt;stroke-linejoin:miter;stroke-opacity:0.64824123"
       inkscape:export-filename="C:\laragon\www\frontend\GEHFtest\g6\gassets\world2\tube.png"
       inkscape:export-xdpi="96"
       inkscape:export-ydpi="96" />
    <path
       style="fill:none;stroke:#c38161;stroke-width:0.30273533px;stroke-linecap:butt;stroke-linejoin:miter;stroke-opacity:0.64824123"
       d="m 59.171832,112.54316 c -0.593522,-0.0797 0.212344,-0.64813 0.105537,-0.92779 -0.01992,-0.0522 -0.08041,-0.0684 -0.09449,-0.12371 -0.01992,-0.0782 0,-0.16494 0,-0.24742 0,-0.0412 0.01408,-0.0868 0,-0.1237 -0.01992,-0.0522 -0.07457,-0.0716 -0.0945,-0.12371 -0.02981,-0.078 0.02981,-0.54051 0,-0.61855 -0.216231,-0.56617 0.03917,0.52495 -0.188987,-0.37113 -0.01,-0.0391 0.02228,-0.0946 0,-0.12371 -0.02228,-0.0292 -0.07222,0.0292 -0.09449,0 -0.02228,-0.0292 0.02228,-0.0945 0,-0.1237 -0.02228,-0.0292 -0.07222,0.0292 -0.0945,0 -0.02228,-0.0292 0.01408,-0.0868 0,-0.12371 -0.16111,-0.42184 -0.02788,0.17443 -0.188987,-0.24742 -0.01408,-0.0369 0,-0.0825 0,-0.1237 -0.0315,-0.0412 -0.07457,-0.0716 -0.0945,-0.12372 -0.01408,-0.0369 0.02228,-0.0945 0,-0.12371 -0.02228,-0.0292 -0.07222,0.0292 -0.09449,0 -0.02228,-0.0292 0.01408,-0.0868 0,-0.1237 -0.03984,-0.10432 -0.149146,-0.1431 -0.188987,-0.24743 -0.02817,-0.0738 0.02817,-0.17365 0,-0.24741 -0.01992,-0.0522 -0.07457,-0.0716 -0.0945,-0.12372 -0.02103,-0.055 0.01442,-0.43826 0,-0.49484 -0.01407,-0.0553 -0.07457,-0.0716 -0.09449,-0.12371 -0.01408,-0.0369 0.01408,-0.0868 0,-0.1237 -0.01992,-0.0522 -0.07457,-0.0716 -0.09449,-0.12372 -0.01408,-0.0369 0,-0.0825 0,-0.12371 0,-0.0412 0,-0.0825 0,-0.1237 0,-0.0825 0,-0.16495 0,-0.24742 0,-0.0412 -0.0315,-0.12371 0,-0.12371 0.0315,0 0,0.16495 0,0.12371 0,-0.0825 0,-0.16495 0,-0.24742 0,-0.0813 0.01778,-0.30134 0,-0.37113 -0.02228,-0.0875 -0.07222,-0.15995 -0.0945,-0.24742 -0.0099,-0.0391 0.01408,-0.0868 0,-0.12371 -0.03984,-0.10432 -0.137015,-0.15269 -0.188987,-0.24742 -0.177755,-0.324 -0.343701,-0.65882 -0.515554,-0.98823"
       id="path4605"
       inkscape:connector-curvature="0"
       inkscape:export-filename="C:\laragon\www\frontend\GEHFtest\g6\gassets\world2\tube.png"
       inkscape:export-xdpi="96"
       inkscape:export-ydpi="96" />
    <rect
       style="fill:#814848;fill-opacity:0.19523812;stroke:none;stroke-width:0.91535723;stroke-miterlimit:4;stroke-dasharray:none;stroke-opacity:0.34285715"
       id="rect4609"
       width="43.467258"
       height="2.474205"
       x="24.851934"
       y="99.791496"
       inkscape:export-filename="C:\laragon\www\frontend\GEHFtest\g6\gassets\world2\tube.png"
       inkscape:export-xdpi="96"
       inkscape:export-ydpi="96" />
    <rect
       y="90.098328"
       x="-97.096161"
       height="18.520834"
       width="18.520834"
       id="rect4611"
       style="fill:none;fill-opacity:1;stroke:#725671;stroke-width:0.1;stroke-miterlimit:4;stroke-dasharray:none;stroke-opacity:0.96862745" />
    <rect
       y="90.152855"
       x="-97.066559"
       height="18.398291"
       width="2.8111277"
       id="rect4613"
       style="opacity:0.47999998;fill:#ca4848;fill-opacity:1;stroke:none;stroke-width:0.10038208;stroke-miterlimit:4;stroke-dasharray:none;stroke-opacity:0.96862745" />
    <rect
       y="91.021484"
       x="-94.255432"
       height="16.69445"
       width="15.622936"
       id="rect4615"
       style="opacity:0.32100004;fill:#ca7e90;fill-opacity:1;stroke:none;stroke-width:0.10390311;stroke-miterlimit:4;stroke-dasharray:none;stroke-opacity:0.96862745" />
    <rect
       y="90.098328"
       x="-78.575333"
       height="18.520834"
       width="18.520834"
       id="rect4617"
       style="fill:none;fill-opacity:1;stroke:#725671;stroke-width:0.1;stroke-miterlimit:4;stroke-dasharray:none;stroke-opacity:0.96862745" />
    <rect
       transform="rotate(-169.6664)"
       y="-106.17074"
       x="40.845234"
       height="1.4711368"
       width="12.389118"
       id="rect4619"
       style="opacity:0.3;fill:#ffffff;fill-opacity:1;stroke:none;stroke-width:0.12;stroke-miterlimit:4;stroke-dasharray:none;stroke-opacity:0.96862745;paint-order:stroke fill markers" />
    <rect
       transform="scale(-1,1)"
       y="90.098328"
       x="41.533661"
       height="18.520834"
       width="18.520834"
       id="rect4621"
       style="fill:none;fill-opacity:1;stroke:#725671;stroke-width:0.1;stroke-miterlimit:4;stroke-dasharray:none;stroke-opacity:0.96862745" />
    <rect
       transform="scale(-1,1)"
       y="90.152855"
       x="41.563263"
       height="18.398291"
       width="2.8111277"
       id="rect4623"
       style="opacity:0.47999998;fill:#ca4848;fill-opacity:1;stroke:none;stroke-width:0.10038208;stroke-miterlimit:4;stroke-dasharray:none;stroke-opacity:0.96862745" />
    <rect
       transform="scale(-1,1)"
       y="91.021484"
       x="44.37439"
       height="16.69445"
       width="15.622936"
       id="rect4625"
       style="opacity:0.32100004;fill:#ca7e90;fill-opacity:1;stroke:none;stroke-width:0.10390311;stroke-miterlimit:4;stroke-dasharray:none;stroke-opacity:0.96862745" />
    <rect
       y="91.021484"
       x="-78.6325"
       height="16.69445"
       width="18.564064"
       id="rect4627"
       style="opacity:0.32100004;fill:#ca7e90;fill-opacity:1;stroke:none;stroke-width:0.11326187;stroke-miterlimit:4;stroke-dasharray:none;stroke-opacity:0.96862745" />
    <rect
       y="93.027405"
       x="-97.062462"
       height="4.318676"
       width="2.7875051"
       id="rect4629"
       style="opacity:0.47999998;fill:#ca4848;fill-opacity:1;stroke:none;stroke-width:0.05906838;stroke-miterlimit:4;stroke-dasharray:none;stroke-opacity:0.96862745" />
    <rect
       y="101.9241"
       x="-97.119751"
       height="4.318676"
       width="2.7875051"
       id="rect4631"
       style="opacity:0.47999998;fill:#ca4848;fill-opacity:1;stroke:none;stroke-width:0.05906838;stroke-miterlimit:4;stroke-dasharray:none;stroke-opacity:0.96862745" />
    <rect
       style="opacity:0.47999998;fill:#ca4848;fill-opacity:1;stroke:none;stroke-width:0.05906838;stroke-miterlimit:4;stroke-dasharray:none;stroke-opacity:0.96862745"
       id="rect4633"
       width="2.7875051"
       height="4.318676"
       x="-44.38797"
       y="93.44223" />
    <rect
       style="opacity:0.47999998;fill:#ca4848;fill-opacity:1;stroke:none;stroke-width:0.05906838;stroke-miterlimit:4;stroke-dasharray:none;stroke-opacity:0.96862745"
       id="rect4635"
       width="2.7875051"
       height="4.318676"
       x="-44.37439"
       y="102.33893" />
    <path
       inkscape:connector-curvature="0"
       id="path4637"
       d="m -84.769444,102.38255 c 0.132754,-0.0249 0.133414,0.16801 0.208797,0.23624 0.02158,0.0195 0.05126,0.0224 0.06959,0.0472 0.0082,0.0111 -0.0082,0.0361 0,0.0473 0.01834,0.0249 0.05126,0.0224 0.0696,0.0473 0.0082,0.0111 -0.0082,0.0361 0,0.0472 0.0082,0.0111 0.02515,-0.009 0.0348,0 0.0546,0.0494 0.0867,0.13553 0.139198,0.18899 0.02075,0.0211 0.05126,0.0224 0.0696,0.0473 0.0082,0.0111 -0.0052,0.0332 0,0.0472 0.02088,0.0567 0.08352,0.085 0.1044,0.14174 0.0052,0.0141 0,0.0315 0,0.0473 0.01159,0.0157 0.02746,0.0273 0.0348,0.0473 0.01037,0.0282 -0.01641,0.0722 0,0.0945 0.0082,0.0111 0.0266,-0.0111 0.0348,0 0.04771,0.0648 0.0348,0.15585 0.0348,0.23623 0,0.0157 -0.0052,0.0332 0,0.0473 0.0073,0.0199 0.02747,0.0273 0.0348,0.0473 0.0052,0.0141 -0.0037,0.0323 0,0.0472 0.0082,0.0334 0.0266,0.0611 0.0348,0.0945 0.0037,0.0149 -0.0052,0.0332 0,0.0472 0.01871,0.0508 0.05089,0.091 0.0696,0.14174 0.0052,0.0141 -0.0052,0.0332 0,0.0472 0.0073,0.0199 0.0232,0.0315 0.0348,0.0472 0.01159,0.0157 0.02013,0.0373 0.0348,0.0473 0.01037,0.007 0.0266,-0.0111 0.0348,0 0.0082,0.0111 0,0.0315 0,0.0472 0.01159,0.0157 0.02115,0.0349 0.0348,0.0473 0.04316,0.0391 0.09604,0.0554 0.139199,0.0945 0.01364,0.0123 0.02013,0.0373 0.0348,0.0472 0.02075,0.0141 0.04885,-0.0141 0.0696,0 0.01467,0.01 0.02013,0.0373 0.0348,0.0472 0.01889,0.0128 0.129677,-0.0129 0.139199,0 0.0082,0.0111 -0.0052,0.0332 0,0.0473 0.03519,0.0956 0.08076,0.0152 0.104397,0.0472 0.01834,0.0249 0.01647,0.0696 0.0348,0.0945 0.0082,0.0111 0.0232,0 0.0348,0 0.01567,0 0.09381,0.007 0.104398,0 0.01467,-0.01 0.02013,-0.0373 0.0348,-0.0472 0.02075,-0.0141 0.05319,0.0223 0.06959,0 0.0082,-0.0111 -0.0082,-0.0361 0,-0.0472 0.0082,-0.0111 0.0232,0 0.0348,0 0.01159,0 0.0232,0 0.0348,0 0.01159,0 0.0266,0.0111 0.0348,0 0.072,-0.0978 -0.110027,0.004 0.0348,-0.0945 0.02075,-0.0141 0.05319,0.0223 0.0696,0 0.0082,-0.0111 -0.0082,-0.0361 0,-0.0472 0.0071,-0.01 0.0906,0.009 0.104399,0 0.144827,-0.0983 -0.0372,0.003 0.0348,-0.0945 0.0082,-0.0111 0.02442,0.007 0.0348,0 0.01467,-0.01 0.02013,-0.0373 0.0348,-0.0472 0.02075,-0.0141 0.05319,0.0223 0.0696,0 0.0082,-0.0111 -0.01037,-0.0402 0,-0.0473 0.02252,-0.0153 0.126697,0.017 0.139198,0 0.0082,-0.0111 -0.0082,-0.0361 0,-0.0472 0.0071,-0.01 0.0906,0.009 0.104398,0 0.01467,-0.01 0.02013,-0.0373 0.0348,-0.0473 0.0093,-0.006 0.193053,0 0.208795,0 0.162399,0 0.324796,0 0.487192,0 0.301596,0 0.603191,0 0.904786,0 0.0928,0 0.185597,0 0.278395,0 0.0232,0 0.0464,0 0.0696,0 0.01159,0 0.0238,0.005 0.0348,0 0.252065,-0.11408 -0.05486,0.0136 0.104397,-0.0945 0.02054,-0.0139 0.08046,0.0108 0.104398,0 0.04921,-0.0223 0.08998,-0.0722 0.139198,-0.0945 0.01101,-0.005 0.02442,0.007 0.0348,0 0.01467,-0.01 0.02013,-0.0373 0.0348,-0.0472 0.01037,-0.007 0.0266,0.0111 0.0348,0 0.0082,-0.0111 -0.0082,-0.0361 0,-0.0473 0.0082,-0.0111 0.02442,0.007 0.0348,0 0.01855,-0.0126 0.05105,-0.0819 0.06959,-0.0945 0.01036,-0.007 0.0266,0.0111 0.0348,0 0.0082,-0.0111 -0.0082,-0.0361 0,-0.0472 0.01214,-0.0165 0.09718,0.0196 0.104398,0 0.01037,-0.0282 -0.01037,-0.0663 0,-0.0945 0.0052,-0.0141 0.02442,0.007 0.0348,0 0.01467,-0.01 0.02013,-0.0373 0.0348,-0.0473 0.01037,-0.007 0.02442,0.007 0.0348,0 0.01467,-0.01 0.02013,-0.0373 0.0348,-0.0473 0.02075,-0.0141 0.05319,0.0223 0.0696,0 0.0082,-0.0111 -0.0082,-0.0361 0,-0.0472 0.0082,-0.0111 0.02442,0.007 0.0348,0 0.01467,-0.01 0.02013,-0.0373 0.0348,-0.0473 0.01058,-0.007 0.08873,0 0.104398,0 0.0812,0 0.162396,0 0.243596,0 0.0928,0 0.185597,0 0.278395,0 0.0182,0 0.130047,0.006 0.139199,0 0.01467,-0.01 0.01923,-0.0402 0.0348,-0.0473 1.59e-4,-7e-5 0.104365,5e-5 0.104398,0 0.0082,-0.0111 -0.0082,-0.0361 0,-0.0472 0.0071,-0.01 0.0906,0.009 0.104399,0 0.01467,-0.01 0.02013,-0.0373 0.0348,-0.0473 0.02188,-0.0148 0.117325,0.0148 0.139196,0 0.01467,-0.01 0.02013,-0.0373 0.0348,-0.0472 0.009,-0.006 0.18413,0 0.208795,0 0.01159,0 0.0266,-0.0111 0.0348,0 0.0082,0.0111 -0.0082,0.0361 0,0.0472 0.0082,0.0111 0.02442,-0.007 0.0348,0 0.01467,0.01 0.02013,0.0373 0.0348,0.0473 0.01037,0.007 0.0232,0 0.0348,0 0.01159,0 0.0232,0 0.0348,0 0.05799,0 0.115999,0 0.173998,0 0.01159,0 0.02442,0.007 0.0348,0 0.01467,-0.01 0.02013,-0.0373 0.0348,-0.0473 0.02075,-0.0141 0.04885,0.0141 0.0696,0 0.02934,-0.0199 0.03848,-0.0804 0.0696,-0.0945 0.0232,0 0.0464,0 0.0696,0 0,-0.0157 -0.01037,-0.0402 0,-0.0473 0.02075,-0.0141 0.04759,0.01 0.0696,0 0.01884,-0.008 0.08154,-0.12104 0.1044,-0.14174 0.02158,-0.0195 0.05126,-0.0224 0.0696,-0.0473 0.0082,-0.0111 -0.01037,-0.0402 0,-0.0472 0.02075,-0.0141 0.04759,0.01 0.0696,0 0.03113,-0.0141 0.04025,-0.0746 0.0696,-0.0945 0.01037,-0.007 0.02442,0.007 0.0348,0 0.02934,-0.0199 0.0423,-0.0698 0.0696,-0.0945 0.02158,-0.0195 0.04802,-0.0277 0.0696,-0.0473 0.01364,-0.0124 0.02013,-0.0373 0.0348,-0.0472 0.01037,-0.007 0.0266,0.0111 0.0348,0 0.01834,-0.0249 0.02041,-0.0652 0.0348,-0.0945 0.03191,-0.065 0.05369,-0.0486 0.104398,-0.0945 0.0273,-0.0247 0.03848,-0.0804 0.0696,-0.0945 0.02201,-0.01 0.04759,0.01 0.0696,0 0.01557,-0.007 0.0232,-0.0315 0.0348,-0.0472 0.0232,-0.0315 0.0423,-0.0698 0.0696,-0.0945 0.0096,-0.009 0.0266,0.0111 0.0348,0 0.0082,-0.0111 -0.0082,-0.0361 0,-0.0472 0.01834,-0.0249 0.04801,-0.0277 0.0696,-0.0473 0.01364,-0.0124 0.02013,-0.0373 0.0348,-0.0473 0.08571,-0.0582 -0.03141,0.13714 0.104397,-0.0472 0.0082,-0.0111 -0.0082,-0.0361 0,-0.0473 0.0082,-0.0111 0.02442,0.007 0.0348,0 0.02934,-0.0199 0.04025,-0.0746 0.0696,-0.0945 0.01037,-0.007 0.0232,0 0.0348,0 0.01159,-0.0157 0.02013,-0.0373 0.0348,-0.0473 0.02075,-0.0141 0.04885,0.0141 0.06959,0 0.01467,-0.01 0.02013,-0.0373 0.0348,-0.0473 0.01037,-0.007 0.0266,0.0111 0.0348,0 0.0082,-0.0111 -0.0082,-0.0361 0,-0.0472 0.01641,-0.0223 0.04759,0.01 0.0696,0 0.126157,-0.0571 0.02477,-0.0224 0.104397,-0.0945 0.01752,-0.10409 0.07159,-0.025 0.104399,-0.0473 0.01467,-0.01 0.02013,-0.0373 0.0348,-0.0473 0.0138,-0.009 0.09728,0.01 0.104398,0 0.0082,-0.0111 -0.0082,-0.0361 0,-0.0472 0.0082,-0.0111 0.0232,0 0.0348,0 0.01159,0 0.0232,0 0.0348,0 0.1044,0 0.208797,0 0.313196,0 0.289995,0 0.57999,0 0.869985,0 0.0812,0 0.162399,0 0.243596,0 0.0232,0 0.04759,0.01 0.0696,0 0.03113,-0.0141 0.04025,-0.0746 0.0696,-0.0945 0.01889,-0.0128 0.129675,0.0129 0.139196,0 0.0082,-0.0111 -0.0082,-0.0361 0,-0.0472 0.0082,-0.0111 0.0238,0.005 0.0348,0 0.02461,-0.0111 0.04443,-0.0387 0.0696,-0.0473 0.02251,-0.008 0.04759,0.01 0.0696,0 0.03113,-0.0141 0.04025,-0.0746 0.06959,-0.0945 0.02075,-0.0141 0.05319,0.0223 0.0696,0 0.01834,-0.0249 0.01647,-0.0696 0.0348,-0.0945 0.01641,-0.0223 0.04885,0.0141 0.0696,0 0.02934,-0.0199 0.04025,-0.0746 0.0696,-0.0945 0.01036,-0.007 0.02442,0.007 0.0348,0 0.01467,-0.01 0.02013,-0.0373 0.0348,-0.0473 0.01037,-0.007 0.0266,0.0111 0.0348,0 0,-0.12599 -0.01159,0.0157 0.0348,-0.0472 0.0082,-0.0111 -0.0082,-0.0361 0,-0.0473 0.01834,-0.0249 0.04802,-0.0277 0.0696,-0.0473 0.01364,-0.0124 0.02013,-0.0373 0.0348,-0.0472 0.01037,-0.007 0.0266,0.0111 0.0348,0 0.0082,-0.0111 -0.0052,-0.0332 0,-0.0473 0.0073,-0.0199 0.0232,-0.0315 0.0348,-0.0473 0.02718,-0.0369 0.08438,-0.10097 0.104398,-0.14174 0.01438,-0.0293 0.01647,-0.0696 0.0348,-0.0945 0.0082,-0.0111 0.02442,0.007 0.0348,0 0.01859,-0.0126 0.08608,-0.11687 0.104399,-0.14174 0.058,-0.0787 0.115999,-0.15749 0.173998,-0.23624"
       style="fill:none;stroke:#a71f00;stroke-width:0.22707082px;stroke-linecap:butt;stroke-linejoin:miter;stroke-opacity:0.34285715" />
    <path
       inkscape:connector-curvature="0"
       id="path4639"
       d="m -75.721563,101.91007 c -0.126032,0.16191 -0.270544,0.31569 -0.378092,0.48574 -0.03278,0.0518 0.08943,0.0334 0.09449,0.0374 0.01114,0.009 -0.007,0.0262 0,0.0374 0.03618,0.0572 0.0842,0.0292 0.14174,0.0747 0.003,0.002 0.08863,0.14249 0.0945,0.14945 0.01236,0.0147 0.03728,0.0216 0.04725,0.0374 0.007,0.0111 -0.007,0.0262 0,0.0374 0.0099,0.0158 0.02733,0.0295 0.04725,0.0374 0.01408,0.005 0.0402,-0.0111 0.04725,0 0.01408,0.0223 0,0.0498 0,0.0747 0,0.0125 -0.0087,0.027 0,0.0374 0.169923,0.20157 0.01471,-0.0257 0.188989,0.11209 0.08816,0.0697 0.02196,0.10946 0.04725,0.14946 0.0099,0.0157 0.03489,0.0227 0.04725,0.0374 0.01953,0.0232 0.02236,0.055 0.04725,0.0747 0.01114,0.009 0.03611,-0.009 0.04725,0 0.01114,0.009 -0.007,0.0262 0,0.0374 0.01,0.0158 0.03729,0.0216 0.04725,0.0374 0.007,0.0111 -0.007,0.0262 0,0.0374 0.01,0.0157 0.03729,0.0216 0.04725,0.0374 0.007,0.0111 -0.007,0.0262 0,0.0374 0.0099,0.0157 0.03729,0.0216 0.04725,0.0374 0.007,0.0111 -0.01114,0.0286 0,0.0374 0.0249,0.0197 0.06959,0.0177 0.09449,0.0374 0.01114,0.009 -0.005,0.0255 0,0.0374 0.01114,0.0264 0.02236,0.055 0.04725,0.0747 0.01114,0.009 0.03611,-0.009 0.04725,0 0.01114,0.009 -0.007,0.0263 0,0.0374 0.01,0.0157 0.03489,0.0227 0.04725,0.0373 0.01953,0.0232 0.02236,0.055 0.04725,0.0747 0.01114,0.009 0.03316,-0.005 0.04725,0 0.05416,0.0214 0.06572,0.078 0.09449,0.11209 0.01236,0.0146 0.0315,0.0249 0.04725,0.0374 0.05268,0.0417 0.189553,0.16219 0.236236,0.1868 0.0131,0.007 0.03611,-0.009 0.04725,0 0.0249,0.0197 0.02236,0.055 0.04725,0.0747 0.01114,0.009 0.03611,-0.009 0.04725,0 0.0249,0.0197 0.02236,0.055 0.04725,0.0747 0.01114,0.009 0.03316,-0.006 0.04725,0 0.01992,0.008 0.02943,0.0268 0.04725,0.0373 0.468521,0.2779 -0.09354,-0.0618 0.236233,0.1121 0.01852,0.01 0.0315,0.0249 0.04725,0.0373 0.04725,0.0373 0.08829,0.0804 0.141742,0.11209 0.01259,0.007 0.03316,-0.006 0.04725,0 0.01992,0.008 0.02872,0.0276 0.04725,0.0373 0.03739,0.0197 0.241771,0.1011 0.283483,0.11209 0.01495,0.004 0.03231,-0.004 0.04725,0 0.06682,0.0176 0.12066,0.0612 0.188989,0.0747 0.02302,0.005 0.164004,-0.01 0.188986,0 0.144085,0.0569 -0.08641,0.0296 0.141743,0.0747 0.03507,0.007 0.174485,-0.0115 0.188987,0 0.01114,0.009 -0.01114,0.0285 0,0.0374 0.02363,0.0187 0.118118,-0.0187 0.141742,0 0.09776,0.0774 -0.149384,-0.003 0.04725,0.0747 0.05048,0.0199 0.04401,-0.0199 0.09449,0 0.01992,0.008 0.02733,0.0295 0.04725,0.0374 0.01408,0.006 0.03611,-0.009 0.04725,0 0.01114,0.009 -0.01114,0.0285 0,0.0373 0.02228,0.0176 0.07222,-0.0176 0.0945,0 0.0249,0.0197 0.02236,0.055 0.04725,0.0747 0.01114,0.009 0.03611,-0.009 0.04725,0 0.0249,0.0197 0.01908,0.058 0.04725,0.0747 0.03984,0.0237 0.100304,0.0155 0.141743,0.0373 0.0131,0.007 -0.01114,0.0285 0,0.0374 0.01114,0.009 0.03316,-0.006 0.04725,0 0.05079,0.0201 0.0974,0.0467 0.14174,0.0747 0.03478,0.022 0.05465,0.059 0.09449,0.0747 0.02817,0.0112 0.06829,-0.0138 0.0945,0 0.0293,0.0154 0.02236,0.055 0.04725,0.0747 0.02228,0.0176 0.07222,-0.0176 0.09449,0 0.01114,0.009 -0.01114,0.0285 0,0.0374 0.01114,0.009 0.03316,-0.006 0.04725,0 0.01992,0.008 0.02733,0.0295 0.04725,0.0373 0.01408,0.006 0.03316,-0.006 0.04725,0 0.01992,0.008 0.02733,0.0295 0.04725,0.0374 0.01408,0.006 0.03316,-0.006 0.04725,0 0.01992,0.008 0.02733,0.0295 0.04725,0.0374 0.01222,0.005 0.249994,0 0.283483,0"
       style="fill:none;stroke:#a71f00;stroke-width:0.2352878px;stroke-linecap:butt;stroke-linejoin:miter;stroke-opacity:0.34285715" />
    <path
       style="fill:none;stroke:#c38161;stroke-width:0.22707082px;stroke-linecap:butt;stroke-linejoin:miter;stroke-opacity:0.64824123"
       d="m -66.248612,102.38255 c 0.132754,-0.0249 0.133414,0.16801 0.208797,0.23624 0.02158,0.0195 0.05126,0.0224 0.06959,0.0472 0.0082,0.0111 -0.0082,0.0361 0,0.0473 0.01834,0.0249 0.05126,0.0224 0.0696,0.0473 0.0082,0.0111 -0.0082,0.0361 0,0.0472 0.0082,0.0111 0.02515,-0.009 0.0348,0 0.0546,0.0494 0.0867,0.13553 0.139198,0.18899 0.02075,0.0211 0.05126,0.0224 0.0696,0.0473 0.0082,0.0111 -0.0052,0.0332 0,0.0472 0.02088,0.0567 0.08352,0.085 0.1044,0.14174 0.0052,0.0141 0,0.0315 0,0.0473 0.01159,0.0157 0.02746,0.0273 0.0348,0.0473 0.01037,0.0282 -0.01641,0.0722 0,0.0945 0.0082,0.0111 0.0266,-0.0111 0.0348,0 0.04771,0.0648 0.0348,0.15585 0.0348,0.23623 0,0.0157 -0.0052,0.0332 0,0.0473 0.0073,0.0199 0.02747,0.0273 0.0348,0.0473 0.0052,0.0141 -0.0037,0.0323 0,0.0472 0.0082,0.0334 0.0266,0.0611 0.0348,0.0945 0.0037,0.0149 -0.0052,0.0332 0,0.0472 0.01871,0.0508 0.05089,0.091 0.0696,0.14174 0.0052,0.0141 -0.0052,0.0332 0,0.0472 0.0073,0.0199 0.0232,0.0315 0.0348,0.0472 0.01159,0.0157 0.02013,0.0373 0.0348,0.0473 0.01037,0.007 0.0266,-0.0111 0.0348,0 0.0082,0.0111 0,0.0315 0,0.0472 0.01159,0.0157 0.02115,0.0349 0.0348,0.0473 0.04316,0.0391 0.09604,0.0554 0.139199,0.0945 0.01364,0.0123 0.02013,0.0373 0.0348,0.0472 0.02075,0.0141 0.04885,-0.0141 0.0696,0 0.01467,0.01 0.02013,0.0373 0.0348,0.0472 0.01889,0.0128 0.129677,-0.0129 0.139199,0 0.0082,0.0111 -0.0052,0.0332 0,0.0473 0.03519,0.0956 0.08076,0.0152 0.104397,0.0472 0.01834,0.0249 0.01647,0.0696 0.0348,0.0945 0.0082,0.0111 0.0232,0 0.0348,0 0.01567,0 0.09381,0.007 0.104398,0 0.01467,-0.01 0.02013,-0.0373 0.0348,-0.0472 0.02075,-0.0141 0.05319,0.0223 0.06959,0 0.0082,-0.0111 -0.0082,-0.0361 0,-0.0472 0.0082,-0.0111 0.0232,0 0.0348,0 0.01159,0 0.0232,0 0.0348,0 0.01159,0 0.0266,0.0111 0.0348,0 0.072,-0.0978 -0.110027,0.004 0.0348,-0.0945 0.02075,-0.0141 0.05319,0.0223 0.0696,0 0.0082,-0.0111 -0.0082,-0.0361 0,-0.0472 0.0071,-0.01 0.0906,0.009 0.104399,0 0.144827,-0.0983 -0.0372,0.003 0.0348,-0.0945 0.0082,-0.0111 0.02442,0.007 0.0348,0 0.01467,-0.01 0.02013,-0.0373 0.0348,-0.0472 0.02075,-0.0141 0.05319,0.0223 0.0696,0 0.0082,-0.0111 -0.01037,-0.0402 0,-0.0473 0.02252,-0.0153 0.126697,0.017 0.139198,0 0.0082,-0.0111 -0.0082,-0.0361 0,-0.0472 0.0071,-0.01 0.0906,0.009 0.104398,0 0.01467,-0.01 0.02013,-0.0373 0.0348,-0.0473 0.0093,-0.006 0.193053,0 0.208795,0 0.162399,0 0.324796,0 0.487192,0 0.301596,0 0.603191,0 0.904786,0 0.0928,0 0.185597,0 0.278395,0 0.0232,0 0.0464,0 0.0696,0 0.01159,0 0.0238,0.005 0.0348,0 0.252065,-0.11408 -0.05486,0.0136 0.104397,-0.0945 0.02054,-0.0139 0.08046,0.0108 0.104398,0 0.04921,-0.0223 0.08998,-0.0722 0.139198,-0.0945 0.01101,-0.005 0.02442,0.007 0.0348,0 0.01467,-0.01 0.02013,-0.0373 0.0348,-0.0472 0.01037,-0.007 0.0266,0.0111 0.0348,0 0.0082,-0.0111 -0.0082,-0.0361 0,-0.0473 0.0082,-0.0111 0.02442,0.007 0.0348,0 0.01855,-0.0126 0.05105,-0.0819 0.06959,-0.0945 0.01036,-0.007 0.0266,0.0111 0.0348,0 0.0082,-0.0111 -0.0082,-0.0361 0,-0.0472 0.01214,-0.0165 0.09718,0.0196 0.104398,0 0.01037,-0.0282 -0.01037,-0.0663 0,-0.0945 0.0052,-0.0141 0.02442,0.007 0.0348,0 0.01467,-0.01 0.02013,-0.0373 0.0348,-0.0473 0.01037,-0.007 0.02442,0.007 0.0348,0 0.01467,-0.01 0.02013,-0.0373 0.0348,-0.0473 0.02075,-0.0141 0.05319,0.0223 0.0696,0 0.0082,-0.0111 -0.0082,-0.0361 0,-0.0472 0.0082,-0.0111 0.02442,0.007 0.0348,0 0.01467,-0.01 0.02013,-0.0373 0.0348,-0.0473 0.01058,-0.007 0.08873,0 0.104398,0 0.0812,0 0.162396,0 0.243596,0 0.0928,0 0.185597,0 0.278395,0 0.0182,0 0.130047,0.006 0.139199,0 0.01467,-0.01 0.01923,-0.0402 0.0348,-0.0473 1.59e-4,-7e-5 0.104365,5e-5 0.104398,0 0.0082,-0.0111 -0.0082,-0.0361 0,-0.0472 0.0071,-0.01 0.0906,0.009 0.104399,0 0.01467,-0.01 0.02013,-0.0373 0.0348,-0.0473 0.02188,-0.0148 0.117325,0.0148 0.139196,0 0.01467,-0.01 0.02013,-0.0373 0.0348,-0.0472 0.009,-0.006 0.18413,0 0.208795,0 0.01159,0 0.0266,-0.0111 0.0348,0 0.0082,0.0111 -0.0082,0.0361 0,0.0472 0.0082,0.0111 0.02442,-0.007 0.0348,0 0.01467,0.01 0.02013,0.0373 0.0348,0.0473 0.01037,0.007 0.0232,0 0.0348,0 0.01159,0 0.0232,0 0.0348,0 0.05799,0 0.115999,0 0.173998,0 0.01159,0 0.02442,0.007 0.0348,0 0.01467,-0.01 0.02013,-0.0373 0.0348,-0.0473 0.02075,-0.0141 0.04885,0.0141 0.0696,0 0.02934,-0.0199 0.03848,-0.0804 0.0696,-0.0945 0.0232,0 0.0464,0 0.0696,0 0,-0.0157 -0.01037,-0.0402 0,-0.0473 0.02075,-0.0141 0.04759,0.01 0.0696,0 0.01884,-0.008 0.08154,-0.12104 0.1044,-0.14174 0.02158,-0.0195 0.05126,-0.0224 0.0696,-0.0473 0.0082,-0.0111 -0.01037,-0.0402 0,-0.0472 0.02075,-0.0141 0.04759,0.01 0.0696,0 0.03113,-0.0141 0.04025,-0.0746 0.0696,-0.0945 0.01037,-0.007 0.02442,0.007 0.0348,0 0.02934,-0.0199 0.0423,-0.0698 0.0696,-0.0945 0.02158,-0.0195 0.04802,-0.0277 0.0696,-0.0473 0.01364,-0.0124 0.02013,-0.0373 0.0348,-0.0472 0.01037,-0.007 0.0266,0.0111 0.0348,0 0.01834,-0.0249 0.02041,-0.0652 0.0348,-0.0945 0.03191,-0.065 0.05369,-0.0486 0.104398,-0.0945 0.0273,-0.0247 0.03848,-0.0804 0.0696,-0.0945 0.02201,-0.01 0.04759,0.01 0.0696,0 0.01557,-0.007 0.0232,-0.0315 0.0348,-0.0472 0.0232,-0.0315 0.0423,-0.0698 0.0696,-0.0945 0.0096,-0.009 0.0266,0.0111 0.0348,0 0.0082,-0.0111 -0.0082,-0.0361 0,-0.0472 0.01834,-0.0249 0.04801,-0.0277 0.0696,-0.0473 0.01364,-0.0124 0.02013,-0.0373 0.0348,-0.0473 0.08571,-0.0582 -0.03141,0.13714 0.104397,-0.0472 0.0082,-0.0111 -0.0082,-0.0361 0,-0.0473 0.0082,-0.0111 0.02442,0.007 0.0348,0 0.02934,-0.0199 0.04025,-0.0746 0.0696,-0.0945 0.01037,-0.007 0.0232,0 0.0348,0 0.01159,-0.0157 0.02013,-0.0373 0.0348,-0.0473 0.02075,-0.0141 0.04885,0.0141 0.06959,0 0.01467,-0.01 0.02013,-0.0373 0.0348,-0.0473 0.01037,-0.007 0.0266,0.0111 0.0348,0 0.0082,-0.0111 -0.0082,-0.0361 0,-0.0472 0.01641,-0.0223 0.04759,0.01 0.0696,0 0.126157,-0.0571 0.02477,-0.0224 0.104397,-0.0945 0.01752,-0.10409 0.07159,-0.025 0.104399,-0.0473 0.01467,-0.01 0.02013,-0.0373 0.0348,-0.0473 0.0138,-0.009 0.09728,0.01 0.104398,0 0.0082,-0.0111 -0.0082,-0.0361 0,-0.0472 0.0082,-0.0111 0.0232,0 0.0348,0 0.01159,0 0.0232,0 0.0348,0 0.1044,0 0.208797,0 0.313196,0 0.289995,0 0.57999,0 0.869985,0 0.0812,0 0.162399,0 0.243596,0 0.0232,0 0.04759,0.01 0.0696,0 0.03113,-0.0141 0.04025,-0.0746 0.0696,-0.0945 0.01889,-0.0128 0.129675,0.0129 0.139196,0 0.0082,-0.0111 -0.0082,-0.0361 0,-0.0472 0.0082,-0.0111 0.0238,0.005 0.0348,0 0.02461,-0.0111 0.04443,-0.0387 0.0696,-0.0473 0.02251,-0.008 0.04759,0.01 0.0696,0 0.03113,-0.0141 0.04025,-0.0746 0.06959,-0.0945 0.02075,-0.0141 0.05319,0.0223 0.0696,0 0.01834,-0.0249 0.01647,-0.0696 0.0348,-0.0945 0.01641,-0.0223 0.04885,0.0141 0.0696,0 0.02934,-0.0199 0.04025,-0.0746 0.0696,-0.0945 0.01036,-0.007 0.02442,0.007 0.0348,0 0.01467,-0.01 0.02013,-0.0373 0.0348,-0.0473 0.01037,-0.007 0.0266,0.0111 0.0348,0 0,-0.12599 -0.01159,0.0157 0.0348,-0.0472 0.0082,-0.0111 -0.0082,-0.0361 0,-0.0473 0.01834,-0.0249 0.04802,-0.0277 0.0696,-0.0473 0.01364,-0.0124 0.02013,-0.0373 0.0348,-0.0472 0.01037,-0.007 0.0266,0.0111 0.0348,0 0.0082,-0.0111 -0.0052,-0.0332 0,-0.0473 0.0073,-0.0199 0.0232,-0.0315 0.0348,-0.0473 0.02718,-0.0369 0.08438,-0.10097 0.104398,-0.14174 0.01438,-0.0293 0.01647,-0.0696 0.0348,-0.0945 0.0082,-0.0111 0.02442,0.007 0.0348,0 0.01859,-0.0126 0.08608,-0.11687 0.104399,-0.14174 0.058,-0.0787 0.115999,-0.15749 0.173998,-0.23624"
       id="path4641"
       inkscape:connector-curvature="0" />
    <path
       inkscape:connector-curvature="0"
       id="path4643"
       d="m -56.823142,101.72835 c -0.593522,-0.0609 0.212344,-0.49506 0.105537,-0.70868 -0.01992,-0.0398 -0.08041,-0.0522 -0.09449,-0.0945 -0.01992,-0.0598 0,-0.12599 0,-0.18899 0,-0.0315 0.01408,-0.0663 0,-0.0945 -0.01992,-0.0398 -0.07457,-0.0546 -0.0945,-0.0945 -0.02981,-0.0596 0.02981,-0.41286 0,-0.47247 -0.216231,-0.432462 0.03917,0.40098 -0.188987,-0.283483 -0.01,-0.02988 0.02228,-0.07222 0,-0.09449 -0.02228,-0.02228 -0.07222,0.02228 -0.09449,0 -0.02228,-0.02228 0.02228,-0.07222 0,-0.09449 -0.02228,-0.02228 -0.07222,0.02228 -0.0945,0 -0.02228,-0.02228 0.01408,-0.06632 0,-0.09449 -0.16111,-0.32222 -0.02788,0.133231 -0.188987,-0.18899 -0.01408,-0.02817 0,-0.063 0,-0.09449 -0.0315,-0.0315 -0.07457,-0.05465 -0.0945,-0.0945 -0.01408,-0.02817 0.02228,-0.07222 0,-0.09449 -0.02228,-0.02228 -0.07222,0.02228 -0.09449,0 -0.02228,-0.02228 0.01408,-0.06632 0,-0.09449 -0.03984,-0.07968 -0.149146,-0.109305 -0.188987,-0.18899 -0.02817,-0.05634 0.02817,-0.132641 0,-0.188986 -0.01992,-0.03984 -0.07457,-0.05465 -0.0945,-0.0945 -0.02103,-0.04205 0.01442,-0.334754 0,-0.377976 -0.01407,-0.04226 -0.07457,-0.05465 -0.09449,-0.09449 -0.01408,-0.02817 0.01408,-0.06632 0,-0.09449 -0.01992,-0.03984 -0.07457,-0.05465 -0.09449,-0.0945 -0.01408,-0.02817 0,-0.063 0,-0.09449 0,-0.0315 0,-0.06299 0,-0.09449 0,-0.063 0,-0.125992 0,-0.188989 0,-0.0315 -0.0315,-0.09449 0,-0.09449 0.0315,0 0,0.125992 0,0.09449 0,-0.06299 0,-0.125992 0,-0.188987 0,-0.06209 0.01778,-0.230169 0,-0.283482 -0.02228,-0.06682 -0.07222,-0.122172 -0.0945,-0.18899 -0.0099,-0.02988 0.01408,-0.06632 0,-0.09449 -0.03984,-0.07968 -0.137015,-0.116628 -0.188987,-0.188989 -0.177755,-0.247478 -0.343701,-0.503227 -0.515554,-0.75484"
       style="fill:none;stroke:#c38161;stroke-width:0.26458332px;stroke-linecap:butt;stroke-linejoin:miter;stroke-opacity:0.64824123" />
    <rect
       y="91.988205"
       x="-91.143036"
       height="1.8898809"
       width="43.467258"
       id="rect4645"
       style="fill:#814848;fill-opacity:0.19523812;stroke:none;stroke-width:0.80000001;stroke-miterlimit:4;stroke-dasharray:none;stroke-opacity:0.34285715" />
    <rect
       inkscape:export-ydpi="96"
       inkscape:export-xdpi="96"
       inkscape:export-filename="C:\laragon\www\frontend\GEHFtest\g6\gassets\world2\tube.png"
       y="104.61012"
       x="18.898811"
       height="18.520834"
       width="18.520834"
       id="rect4647"
       style="fill:none;fill-opacity:1;stroke:none;stroke-width:0.1;stroke-miterlimit:4;stroke-dasharray:none;stroke-opacity:0.96862745" />
    <rect
       inkscape:export-ydpi="96"
       inkscape:export-xdpi="96"
       inkscape:export-filename="C:\laragon\www\frontend\GEHFtest\g6\gassets\world2\tube.png"
       y="104.61012"
       x="37.419643"
       height="18.520834"
       width="18.520834"
       id="rect4649"
       style="fill:none;fill-opacity:1;stroke:none;stroke-width:0.1;stroke-miterlimit:4;stroke-dasharray:none;stroke-opacity:0.96862745" />
    <rect
       inkscape:export-ydpi="96"
       inkscape:export-xdpi="96"
       inkscape:export-filename="C:\laragon\www\frontend\GEHFtest\g6\gassets\world2\tube.png"
       transform="scale(-1,1)"
       y="104.61012"
       x="-74.461319"
       height="18.520834"
       width="18.520834"
       id="rect4651"
       style="fill:none;fill-opacity:1;stroke:none;stroke-width:0.1;stroke-miterlimit:4;stroke-dasharray:none;stroke-opacity:0.96862745" />
    <path
       style="opacity:0.32100004;fill:#ca7e90;fill-opacity:1;stroke:none;stroke-width:0.1196342;stroke-miterlimit:4;stroke-dasharray:none;stroke-opacity:0.96862745"
       d="M 21.583761,98.576392 H 37.404073 V 120.43255 H 21.583761 Z"
       id="rect4491-6-0"
       inkscape:connector-curvature="0"
       inkscape:export-filename="C:\laragon\www\frontend\GEHFtest\g6\gassets\world2\tube.png"
       inkscape:export-xdpi="96"
       inkscape:export-ydpi="96" />
  </g>
</svg>
