<?xml version="1.0" encoding="UTF-8"?>
<!DOCTYPE svg PUBLIC "-//W3C//DTD SVG 1.1//EN" "http://www.w3.org/Graphics/SVG/1.1/DTD/svg11.dtd">
<!-- Creator: CorelDRAW X8 -->
<svg xmlns="http://www.w3.org/2000/svg" xml:space="preserve" width="4.55333in" height="4.26666in" version="1.1" style="shape-rendering:geometricPrecision; text-rendering:geometricPrecision; image-rendering:optimizeQuality; fill-rule:evenodd; clip-rule:evenodd"
viewBox="0 0 4553 4267"
 xmlns:xlink="http://www.w3.org/1999/xlink">
 <defs>
  <style type="text/css">
   <![CDATA[
    .str0 {stroke:#EEEEEE;stroke-width:33.3307}
    .fil0 {fill:none}
   ]]>
  </style>
 </defs>
 <g id="Layer_x0020_1">
  <metadata id="CorelCorpID_0Corel-Layer"/>
  <g id="_2225165341280">
   <path class="fil0 str0" d="M1405 2082l301 0c10,-12 30,-29 42,-41 4,-4 6,-7 10,-11 4,-4 7,-6 10,-10 25,-24 88,-83 105,-102 19,-21 40,-41 61,-61 6,-6 17,-14 12,-29 -3,-11 -12,-15 -26,-15l-208 0c-42,0 -37,2 -59,23l-41 42c-14,14 -27,27 -41,40 -15,15 -75,72 -83,82 -11,13 -29,29 -41,41 -10,9 -36,33 -42,41z"/>
   <path class="fil0 str0" d="M2413 1729l0 -295 -267 0c0,30 -1,271 1,280 7,20 32,15 54,15l212 0z"/>
   <path class="fil0 str0" d="M1947 1434l-537 0c6,11 173,167 196,196 9,11 23,23 33,32 7,8 24,29 39,28 10,0 14,-7 19,-12l51 -49c21,-23 50,-46 67,-65 21,-24 44,-42 66,-64l16 -17c6,-5 11,-10 17,-16 8,-7 29,-25 33,-33z"/>
   <path class="fil0 str0" d="M2146 2082l267 0 0 -267 -201 0c-16,0 -51,-5 -60,6 -9,10 -6,45 -6,62l0 199z"/>
   <path class="fil0 str0" d="M1352 2020c5,-3 5,-5 9,-9l223 -218c37,-35 39,-33 -3,-74l-229 -228 0 529z"/>
   <path class="fil0 str0" d="M1818 1729l221 0c18,0 26,-10 26,-26l0 -219c0,-26 -23,-32 -39,-17l-205 203c-7,6 -12,13 -19,20 -18,16 -9,39 16,39z"/>
   <path class="fil0 str0" d="M1825 2082l240 0c0,-54 0,-108 0,-163 0,-12 2,-27 -5,-35 -7,-8 -20,-10 -30,-3 -5,3 -6,6 -10,10l-93 91c-7,7 -13,13 -20,19l-82 81z"/>
  </g>
 </g>
</svg>
