<?xml version="1.0" encoding="UTF-8" standalone="no"?>
<svg width="226px" height="240px" viewBox="0 0 226 240" version="1.1" xmlns="http://www.w3.org/2000/svg" xmlns:xlink="http://www.w3.org/1999/xlink">
    <!-- Generator: sketchtool 42 (36781) - http://www.bohemiancoding.com/sketch -->
    <title>9AFC0FCF-93E0-4DD5-836B-7CA093D409DC</title>
    <desc>Created with sketchtool.</desc>
    <defs></defs>
    <g id="Page-1" stroke="none" stroke-width="1" fill="none" fill-rule="evenodd">
        <g id="b_onboard-1" transform="translate(-67.000000, -68.000000)" fill-rule="nonzero">
            <g id="01_productive_social_media.svg" transform="translate(67.000000, 68.000000)">
                <g id="01_productive_social_media">
                    <g id="Layer_4">
                        <path d="M202.996429,202.751678 C153.004434,251.707933 72.9309941,251.707933 22.939,202.751678 L202.996429,202.751678 Z" id="Shape" fill="#FBDF02"></path>
                        <path d="M89.9318571,73.6993289 C89.9318571,73.6993289 89.9318571,88.8483221 98.423,88.8483221 L121.3055,88.8483221 C121.3055,88.8483221 125.389643,88.9932886 125.389643,82.7758389 C125.389643,76.5583893 119.570143,78.4832215 119.570143,78.4832215 L100.699143,78.4832215 C100.699143,78.4832215 92.1192143,79.2724832 89.9318571,73.6993289 Z" id="Shape" fill="#FBDF02"></path>
                        <path d="M82.5868571,96.4268456 C82.5880752,98.1387192 82.3434463,99.8419345 81.8604286,101.484564 L80.456,96.4268456 L62.9571429,96.4268456 L61.5123571,93.3261745 L59.7285714,97.1838926 L53.2714286,97.1838926 L53.2714286,99.6402685 C50.3172857,99.833557 49.0339286,102.765101 48.5173571,104.561074 C45.141733,97.9317449 46.2073757,89.9125995 51.1978191,84.3901339 C56.1882625,78.8676684 64.0723131,76.9830098 71.0289487,79.6495622 C77.9855842,82.3161145 82.5773297,88.9828783 82.5787857,96.4187919 L82.5868571,96.4268456 Z" id="Shape" fill="#FBDF02"></path>
                        <ellipse id="Oval" fill="#FBDF02" cx="145.479429" cy="97.5624161" rx="11.9053571" ry="11.8791946"></ellipse>
                        <ellipse id="Oval" fill="#FBDF02" cx="162.017786" cy="100.332886" rx="7.55485714" ry="7.53825503"></ellipse>
                        <path d="M133.574071,98.3275168 L133.670929,114.346309 C133.670929,114.346309 133.428786,119.468456 129.748214,119.468456 C129.748214,119.468456 141.185429,120.692617 141.185429,116.512752 C141.185429,112.332886 140.539714,109.328859 143.824786,109.328859 C147.109857,109.328859 133.574071,98.3275168 133.574071,98.3275168 Z" id="Shape" fill="#FBDF02"></path>
                        <polygon id="Shape" fill="#FBDF02" points="16.9903571 85.538255 11.0175 88.7919463 16.9903571 92.0536913 20.2592857 98.0134228 23.5201429 92.0536913 29.493 88.7919463 23.5201429 85.538255 20.2592857 79.5785235"></polygon>
                        <polygon id="Shape" fill="#FBDF02" points="33.8112143 99.6483221 30.284 101.573154 33.8112143 103.497987 35.7402857 107.01745 37.6612857 103.497987 41.1885 101.573154 37.6612857 99.6483221 35.7402857 96.1369128"></polygon>
                        <polygon id="Shape" fill="#FBDF02" points="200.001929 90.5154362 205.095 93.2939597 200.001929 96.0724832 197.217286 101.154362 194.432643 96.0724832 189.339571 93.2939597 194.432643 90.5154362 197.217286 85.433557"></polygon>
                        <polygon id="Shape" fill="#FBDF02" points="185.667071 102.547651 188.669643 104.18255 185.667071 105.825503 184.0205 108.821477 182.382 105.825503 179.379429 104.18255 182.382 102.547651 184.0205 99.5516779"></polygon>
                        <path d="M134.284357,168.902013 L138.772071,202.727517 L173.317786,203.532886 L177.3535,169.393289 C177.3535,169.393289 150.3465,172.542282 134.284357,168.902013 Z" id="Shape" fill="#FBDF02"></path>
                        <polygon id="Shape" fill="#FBDF02" points="100.5135 115.167785 106.9545 174.378523 111.684357 115.167785"></polygon>
                        <path d="M79.9071429,161.387919 C57.2425714,164.4 42.9157857,157.900671 42.9157857,157.900671 C40.6880714,178.179866 46.8142857,203.412081 46.8142857,203.412081 L59.7285714,203.47651 C57.6784286,199.191946 57.2022143,194.069799 59.2846429,190.051007 C60.6729286,187.111409 64.3131429,186.072483 67.7838571,186.934228 C68.225169,186.999179 68.642199,187.17672 68.9945714,187.449664 C72.9415,191.895302 70.9478571,198.040268 71.0689286,203.557047 L85.5975,203.62953 C79.5277857,189.946309 79.9071429,161.387919 79.9071429,161.387919 Z" id="Shape" fill="#FBDF02"></path>
                        <path d="M111.313071,104.939597 C111.884684,104.944766 112.40703,105.263497 112.672084,105.768856 C112.937138,106.274216 112.901855,106.884132 112.580286,107.355705 C111.782784,108.478764 110.489003,109.146213 109.109571,109.146213 C107.73014,109.146213 106.436359,108.478764 105.638857,107.355705 C105.317288,106.884132 105.282005,106.274216 105.547059,105.768856 C105.812113,105.263497 106.334458,104.944766 106.906071,104.939597 L111.313071,104.939597 Z" id="Shape" fill="#FBDF02"></path>
                        <path d="M158.014357,119.307383 C158.265289,119.306515 158.495666,119.445643 158.611274,119.667869 C158.726882,119.890095 158.708334,120.158152 158.563214,120.362416 C158.220386,120.851369 157.659976,121.142602 157.061929,121.142602 C156.463881,121.142602 155.903471,120.851369 155.560643,120.362416 C155.415524,120.158152 155.396975,119.890095 155.512583,119.667869 C155.628191,119.445643 155.858569,119.306515 156.1095,119.307383 L158.014357,119.307383 Z" id="Shape" fill="#FBDF02"></path>
                        <path d="M68.3569286,109.683221 C68.60786,109.682354 68.8382376,109.821482 68.9538456,110.043708 C69.0694536,110.265933 69.050905,110.533991 68.9057857,110.738255 C68.5629572,111.227208 68.0025477,111.518441 67.4045,111.518441 C66.8064523,111.518441 66.2460428,111.227208 65.9032143,110.738255 C65.758095,110.533991 65.7395464,110.265933 65.8551544,110.043708 C65.9707624,109.821482 66.20114,109.682354 66.4520714,109.683221 L68.3569286,109.683221 Z" id="Shape" fill="#FBDF02"></path>
                        <path d="M56.8955,105.390604 C56.8158024,105.399828 56.7405405,105.352033 56.7151689,105.276086 C56.6897973,105.200138 56.7212669,105.116845 56.7905714,105.07651 L62.7392143,100.510067 C62.7882362,100.472662 62.8535336,100.464194 62.9105096,100.487852 C62.9674856,100.511511 63.0074842,100.563702 63.0154382,100.624765 C63.0233922,100.685829 62.9980934,100.746488 62.9490714,100.783893 L57.0004286,105.350336 C56.9710619,105.375278 56.9340488,105.389483 56.8955,105.390604 Z" id="Shape" fill="#000000"></path>
                        <path d="M59.8657857,105.390604 C59.7897542,105.397041 59.7187845,105.351993 59.6924055,105.28055 C59.6660266,105.209108 59.690742,105.128884 59.7527857,105.084564 L61.924,103.304698 C61.9715801,103.265854 62.0363145,103.255289 62.0938182,103.276982 C62.1513219,103.298676 62.1928589,103.349331 62.2027825,103.409868 C62.2127061,103.470405 62.1895087,103.531626 62.1419286,103.57047 L59.9707143,105.350336 C59.9413477,105.375278 59.9043345,105.389483 59.8657857,105.390604 L59.8657857,105.390604 Z" id="Shape" fill="#000000"></path>
                        <path d="M71.3998571,105.390604 C71.3201595,105.399828 71.2448976,105.352033 71.219526,105.276086 C71.1941545,105.200138 71.225624,105.116845 71.2949286,105.07651 L77.2435714,100.510067 C77.2925934,100.472662 77.3578908,100.464194 77.4148668,100.487852 C77.4718428,100.511511 77.5118413,100.563702 77.5197953,100.624765 C77.5277494,100.685829 77.5024505,100.746488 77.4534286,100.783893 L71.5047857,105.350336 C71.4754191,105.375278 71.438406,105.389483 71.3998571,105.390604 L71.3998571,105.390604 Z" id="Shape" fill="#000000"></path>
                        <path d="M74.3782143,105.390604 C74.3021828,105.397041 74.231213,105.351993 74.2048341,105.28055 C74.1784551,105.209108 74.2031706,105.128884 74.2652143,105.084564 L76.4364286,103.304698 C76.4840087,103.265854 76.548743,103.255289 76.6062468,103.276982 C76.6637505,103.298676 76.7052875,103.349331 76.7152111,103.409868 C76.7251347,103.470405 76.7019373,103.531626 76.6543571,103.57047 L74.4831429,105.350336 C74.4537762,105.375278 74.4167631,105.389483 74.3782143,105.390604 Z" id="Shape" fill="#000000"></path>
                        <path d="M6.328,191.903356 C5.92220579,191.907181 5.55854998,191.654026 5.42206052,191.272695 C5.28557107,190.891364 5.4062287,190.46562 5.72264286,190.212081 L15.3357143,182.375839 C15.7144283,182.067696 16.2654159,182.095533 16.611,182.440268 L23.3264286,189.14094 L28.0078571,185.283221 C28.3879183,184.970153 28.944566,184.998099 29.2912143,185.347651 L33.4722143,189.519463 C33.8466633,189.890865 33.8484701,190.49483 33.47625,190.868456 C33.1040298,191.242083 32.4987348,191.243885 32.1242857,190.872483 L28.5567143,187.312752 L23.8752857,191.17047 C23.4952246,191.483538 22.9385769,191.455592 22.5919286,191.10604 L15.8684286,184.42953 L6.92528571,191.677852 C6.75813168,191.819366 6.54717095,191.899013 6.328,191.903356 Z" id="Shape" fill="#FBDF02"></path>
                        <path d="M187.257143,191.903356 C186.851349,191.907181 186.487693,191.654026 186.351203,191.272695 C186.214714,190.891364 186.335372,190.46562 186.651786,190.212081 L196.256786,182.367785 C196.6355,182.059642 197.186487,182.087479 197.532071,182.432215 L204.2475,189.132886 L208.928929,185.275168 C209.30899,184.962099 209.865637,184.990045 210.212286,185.339597 L214.393286,189.511409 C214.694649,189.883471 214.671864,190.421054 214.340094,190.766399 C214.008325,191.111743 213.471003,191.157185 213.085714,190.872483 L209.518143,187.312752 L204.836714,191.17047 C204.456653,191.483538 203.900005,191.455592 203.553357,191.10604 L196.797571,184.42953 L187.8625,191.677852 C187.693215,191.82111 187.479099,191.900871 187.257143,191.903356 L187.257143,191.903356 Z" id="Shape" fill="#FBDF02"></path>
                        <path d="M147.610286,34.3731544 C147.204492,34.3769796 146.840836,34.1238243 146.704346,33.7424936 C146.567857,33.361163 146.688514,32.9354187 147.004929,32.6818792 L156.585714,24.8375839 C156.964428,24.5294411 157.515416,24.5572779 157.861,24.9020134 L164.576429,31.6026846 L169.257857,27.7449664 C169.637918,27.4318979 170.194566,27.4598438 170.541214,27.809396 L174.722214,31.9812081 C175.094434,32.3526103 175.094434,32.9547723 174.722214,33.3261745 C174.349994,33.6975767 173.746506,33.6975767 173.374286,33.3261745 L169.830929,29.7986577 L165.1495,33.6563758 C164.769439,33.9694444 164.212791,33.9414985 163.866143,33.5919463 L157.142643,26.8832215 L148.207571,34.1798658 C148.036097,34.3098108 147.825554,34.377945 147.610286,34.3731544 Z" id="Shape" fill="#FBDF02"></path>
                        <path d="M112.661,115.167785 L105.945571,115.167785 C97.8674005,115.158908 91.3209681,108.626862 91.3120714,100.566443 L91.3120714,93.8657718 C91.3128042,90.0903308 92.7896484,86.464122 95.4285,83.7583893 C95.7606007,83.4158986 96.3080765,83.4068842 96.6513214,83.738255 C96.9945664,84.0696259 97.0036007,84.6158986 96.6715,84.9583893 C94.3404496,87.3494535 93.0371932,90.5541985 93.0393571,93.8899329 L93.0393571,100.590604 C93.0393571,107.707293 98.8212798,113.47651 105.953643,113.47651 L112.669071,113.47651 C119.801434,113.47651 125.583357,107.707293 125.583357,100.590604 L125.583357,93.8899329 C125.590869,91.0703797 124.65965,88.3281859 122.935929,86.0939597 C122.643947,85.7136616 122.716221,85.1691918 123.097357,84.8778523 C123.478493,84.5865129 124.024162,84.6586281 124.316143,85.0389262 C126.277047,87.5768189 127.336195,90.6934466 127.326786,93.8979866 L127.326786,100.598658 C127.300086,108.659065 120.739199,115.176711 112.661,115.167785 Z" id="Shape" fill="#424242"></path>
                        <path d="M70.0519286,114.362416 L64.5714286,114.362416 C57.9226099,114.335932 52.5392568,108.964409 52.5127143,102.330201 L52.5127143,96.885906 C52.5127143,96.4077535 52.9011872,96.0201342 53.3803929,96.0201342 C53.8595985,96.0201342 54.2480714,96.4077535 54.2480714,96.885906 L54.2480714,102.330201 C54.241642,105.067034 55.3261816,107.694088 57.2626515,109.632345 C59.1991214,111.570602 61.8285617,112.660957 64.5714286,112.663087 L70.0277143,112.663087 C75.7273023,112.658646 80.3466204,108.049479 80.3510714,102.362416 L80.3510714,96.9181208 C80.3510714,96.4399682 80.7395444,96.052349 81.21875,96.052349 C81.6979556,96.052349 82.0864286,96.4399682 82.0864286,96.9181208 L82.0864286,102.362416 C82.0423672,108.974674 76.6787772,114.322888 70.0519286,114.362416 Z" id="Shape" fill="#424242"></path>
                        <path d="M88.0189286,204.483221 C87.5968779,204.480698 87.238477,204.174172 87.1714286,203.758389 C87.1068571,203.412081 80.4398571,168.853691 83.2325714,141.865772 C83.6963017,136.319488 85.0422511,130.882276 87.2198571,125.758389 C88.6296054,122.482917 90.701401,119.532846 93.3057143,117.092617 C97.5028571,113.307383 101.377143,113.065772 101.522429,113.025503 C101.830978,113.005362 102.126859,113.150999 102.298615,113.407553 C102.470371,113.664107 102.491909,113.992603 102.355115,114.269298 C102.218321,114.545993 101.943978,114.728852 101.635429,114.748993 L101.635429,114.748993 C98.8907426,115.227212 96.3569945,116.52782 94.3711429,118.477852 C87.9785714,124.308725 85.7347143,134.496644 84.9517857,142.067114 C82.1913571,168.805369 88.8018571,203.10604 88.8745,203.452349 C88.9194457,203.677805 88.8722523,203.911834 88.7434135,204.102399 C88.6145746,204.292964 88.4147705,204.424268 88.1884286,204.467114 L88.0189286,204.483221 Z" id="Shape" fill="#424242"></path>
                        <path d="M130.264786,204.483221 L130.095286,204.483221 C129.868944,204.440375 129.66914,204.309071 129.540301,204.118506 C129.411462,203.927941 129.364269,203.693912 129.409214,203.468456 C129.473786,203.122148 136.092357,168.837584 133.331929,142.083221 C132.524786,134.536913 130.289,124.365101 123.928714,118.502013 C121.942863,116.551981 119.409115,115.251373 116.664429,114.773154 C116.187452,114.742019 115.826082,114.330962 115.857286,113.855034 C115.88849,113.379105 116.300452,113.018529 116.777429,113.049664 C116.938857,113.049664 120.813143,113.339597 124.994143,117.116779 C127.598456,119.557007 129.670252,122.507078 131.08,125.78255 C133.257737,130.906393 134.603691,136.343627 135.067286,141.889933 C137.86,168.885906 131.193,203.436242 131.128429,203.78255 C131.049893,204.194755 130.685232,204.490604 130.264786,204.483221 L130.264786,204.483221 Z" id="Shape" fill="#424242"></path>
                        <path d="M48.7514286,204.483221 C48.3289127,204.485289 47.9669303,204.182028 47.8958571,203.766443 C47.8393571,203.420134 41.9795,168.74094 44.4332143,141.648322 C45.4744286,130.131544 48.4689286,121.763758 53.3117857,116.794631 C57.0327143,112.961074 60.4872857,112.679195 60.6325714,112.671141 C61.1095482,112.635557 61.5251239,112.992528 61.5607857,113.468456 C61.5964475,113.944385 61.2386911,114.359047 60.7617143,114.394631 C59.7205,114.483221 57.0569286,115.377181 54.4417857,118.12349 C48.8644286,123.986577 46.8788571,134.230872 46.1927857,141.801342 C43.7713571,168.668456 49.5827857,203.122148 49.6392857,203.468456 C49.6789766,203.695018 49.6262528,203.92801 49.4928497,204.115574 C49.3594465,204.303138 49.1564346,204.429709 48.929,204.467114 L48.7514286,204.483221 Z" id="Shape" fill="#424242"></path>
                        <path d="M86.9373571,129.616107 C86.5639741,129.607682 86.2383229,129.360731 86.1302143,129.004027 C81.8200714,115.095302 74.0230714,114.386577 73.9342857,114.386577 C73.4573089,114.353218 73.0977456,113.940358 73.1311786,113.46443 C73.1646115,112.988501 73.5783804,112.629728 74.0553571,112.663087 C74.4266429,112.663087 83.1276429,113.468456 87.7767857,128.496644 C87.8581591,128.755531 87.8125878,129.037539 87.6537886,129.257784 C87.4949894,129.47803 87.2415085,129.610791 86.9696429,129.616107 L86.9373571,129.616107 Z" id="Shape" fill="#424242"></path>
                        <path d="M138.489571,204.483221 C138.07519,204.48278 137.719526,204.188734 137.642071,203.78255 C137.585571,203.47651 131.717643,173.065772 134.171357,149.307383 C135.220643,139.175839 138.207071,131.814765 143.049929,127.441611 C146.762786,124.091275 150.193143,123.841611 150.314214,123.833557 C150.791191,123.802422 151.203153,124.162998 151.234357,124.638926 C151.265561,125.114855 150.904191,125.525911 150.427214,125.557047 C148.033701,125.963111 145.820848,127.08677 144.083071,128.778523 C138.521857,133.884564 136.544357,142.832215 135.858286,149.444295 C133.436857,172.95302 139.240214,203.10604 139.304786,203.404027 C139.349731,203.629483 139.302538,203.863512 139.173699,204.054077 C139.04486,204.244642 138.845056,204.375945 138.618714,204.418792 L138.489571,204.483221 Z" id="Shape" fill="#424242"></path>
                        <path d="M175.626214,204.483221 L175.456714,204.483221 C175.230372,204.440375 175.030568,204.309071 174.901729,204.118506 C174.772891,203.927941 174.725697,203.693912 174.770643,203.468456 C174.827143,203.17047 180.638571,173.001342 178.217143,149.508725 C175.852214,126.595973 163.777357,125.589262 163.688571,125.581208 C163.211595,125.552297 162.848418,125.143043 162.877393,124.667114 C162.906368,124.191185 163.316523,123.828807 163.7935,123.857718 C163.938786,123.857718 167.361071,124.115436 171.057786,127.465772 C175.900643,131.84698 178.903214,139.2 179.936357,149.331544 C182.357786,173.089933 176.530214,203.500671 176.465643,203.806711 C176.378819,204.200342 176.030148,204.481342 175.626214,204.483221 L175.626214,204.483221 Z" id="Shape" fill="#424242"></path>
                        <path d="M120.433786,87.4147651 C119.95458,87.4147651 119.566107,87.0271459 119.566107,86.5489933 C119.566107,86.0708407 119.95458,85.6832215 120.433786,85.6832215 C122.97469,85.6832215 125.0345,83.627938 125.0345,81.0926174 C125.0345,78.5572969 122.97469,76.5020134 120.433786,76.5020134 C119.95458,76.5020134 119.566107,76.1143942 119.566107,75.6362416 C119.566107,75.158089 119.95458,74.7704698 120.433786,74.7704698 C123.933101,74.7704698 126.769857,77.6009917 126.769857,81.0926174 C126.769857,84.5842432 123.933101,87.4147651 120.433786,87.4147651 L120.433786,87.4147651 Z" id="Shape" fill="#424242"></path>
                        <path d="M126.253286,105.962416 C125.77408,105.962416 125.385607,105.574797 125.385607,105.096644 C125.385607,104.618492 125.77408,104.230872 126.253286,104.230872 C128.662771,104.056263 130.528227,102.054818 130.528227,99.6442953 C130.528227,97.2337724 128.662771,95.2323278 126.253286,95.0577181 C125.77408,95.0577181 125.385607,94.6700989 125.385607,94.1919463 C125.385607,93.7137937 125.77408,93.3261745 126.253286,93.3261745 C129.624036,93.4961031 132.269643,96.2726358 132.269643,99.6402685 C132.269643,103.007901 129.624036,105.784434 126.253286,105.954362 L126.253286,105.962416 Z" id="Shape" fill="#424242"></path>
                        <path d="M92.4905,105.962416 C89.11975,105.792487 86.4741427,103.015955 86.4741427,99.6483221 C86.4741427,96.2806895 89.11975,93.5041568 92.4905,93.3342282 C92.9697056,93.3342282 93.3581786,93.7218474 93.3581786,94.2 C93.3581786,94.6781526 92.9697056,95.0657718 92.4905,95.0657718 C90.0810145,95.2403815 88.2155584,97.241826 88.2155584,99.652349 C88.2155584,102.062872 90.0810145,104.064316 92.4905,104.238926 C92.9697056,104.238926 93.3581786,104.626545 93.3581786,105.104698 C93.3581786,105.582851 92.9697056,105.97047 92.4905,105.97047 L92.4905,105.962416 Z" id="Shape" fill="#424242"></path>
                        <path d="M81.2389286,108.112752 C80.7240993,108.112973 80.2132275,108.023018 79.7295714,107.84698 C79.3229792,107.656941 79.1301405,107.187739 79.2859437,106.767574 C79.4417469,106.34741 79.8942173,106.116447 80.3268571,106.236242 C81.3334608,106.611453 82.4673474,106.350404 83.2074336,105.57306 C83.9475198,104.795716 84.1506648,103.652425 83.7235122,102.668592 C83.2963597,101.684759 82.3215256,101.050668 81.247,101.057718 C80.7677944,101.057718 80.3793214,100.670099 80.3793214,100.191946 C80.3793214,99.7137937 80.7677944,99.3261745 81.247,99.3261745 C83.6831478,99.3261745 85.6580357,101.296723 85.6580357,103.727517 C85.6580357,106.158311 83.6831478,108.128859 81.247,108.128859 L81.2389286,108.112752 Z" id="Shape" fill="#424242"></path>
                        <path d="M53.223,108.112752 C51.6470887,108.112752 50.1908865,107.273861 49.4029308,105.912081 C48.6149751,104.550301 48.6149751,102.872518 49.4029308,101.510738 C50.1908865,100.148958 51.6470887,99.310067 53.223,99.3100671 C53.7022056,99.3100671 54.0906786,99.6976864 54.0906786,100.175839 C54.0906786,100.653991 53.7022056,101.041611 53.223,101.041611 C52.1628849,101.052868 51.20974,101.688525 50.7938914,102.661595 C50.3780428,103.634666 50.5781787,104.761022 51.3039417,105.532136 C52.0297047,106.303251 53.1437637,106.57321 54.1431429,106.220134 C54.5757827,106.10034 55.0282531,106.331302 55.1840563,106.751467 C55.3398595,107.171631 55.1470208,107.640834 54.7404286,107.830872 C54.255222,108.013334 53.7415061,108.108763 53.223,108.112752 Z" id="Shape" fill="#424242"></path>
                        <path d="M159.814286,125.557047 L154.358,125.557047 C147.712249,125.543932 142.319364,120.188059 142.275071,113.557047 L142.275071,108.080537 C142.274147,107.468546 142.320018,106.857376 142.412286,106.252349 C142.459866,105.947354 142.666903,105.690856 142.955407,105.579474 C143.243912,105.468091 143.570054,105.518747 143.810979,105.712359 C144.051904,105.905972 144.171009,106.213126 144.123429,106.518121 C144.0434,107.035107 144.002926,107.557421 144.002357,108.080537 L144.002357,113.557047 C144.006808,119.24411 148.626126,123.853277 154.325714,123.857718 L159.814286,123.857718 C165.504415,123.839977 170.109011,119.234698 170.113429,113.557047 L170.113429,108.080537 C170.113106,107.149474 169.985476,106.222808 169.734071,105.326174 C169.650446,105.028373 169.732397,104.708678 169.949056,104.487514 C170.165715,104.266351 170.484165,104.177319 170.784449,104.253957 C171.084733,104.330595 171.321231,104.561259 171.404857,104.85906 C171.699131,105.907712 171.848487,106.991553 171.848786,108.080537 L171.848786,113.557047 C171.804724,120.169305 166.441134,125.517519 159.814286,125.557047 L159.814286,125.557047 Z" id="Shape" fill="#424242"></path>
                        <path d="M170.977071,118.236242 C170.497866,118.236242 170.109393,117.848622 170.109393,117.37047 C170.109393,116.892317 170.497866,116.504698 170.977071,116.504698 C172.454808,116.504698 173.65275,115.309388 173.65275,113.834899 C173.65275,112.36041 172.454808,111.165101 170.977071,111.165101 C170.497866,111.165101 170.109393,110.777481 170.109393,110.299329 C170.109393,109.821176 170.497866,109.433557 170.977071,109.433557 C173.413219,109.433557 175.388107,111.404105 175.388107,113.834899 C175.388107,116.265694 173.413219,118.236242 170.977071,118.236242 L170.977071,118.236242 Z" id="Shape" fill="#424242"></path>
                        <path d="M142.961143,118.236242 C140.524995,118.236242 138.550107,116.265694 138.550107,113.834899 C138.550107,111.404105 140.524995,109.433557 142.961143,109.433557 C143.440348,109.433557 143.828821,109.821176 143.828821,110.299329 C143.828821,110.777481 143.440348,111.165101 142.961143,111.165101 C141.483406,111.165101 140.285464,112.36041 140.285464,113.834899 C140.285464,115.309388 141.483406,116.504698 142.961143,116.504698 C143.440348,116.504698 143.828821,116.892317 143.828821,117.37047 C143.828821,117.848622 143.440348,118.236242 142.961143,118.236242 Z" id="Shape" fill="#424242"></path>
                        <path d="M120.433786,87.4147651 L102.854214,87.4147651 C99.3189286,87.4147651 96.5100714,86.2791946 94.5164286,84.0322148 C90.4242143,79.4255034 91.2878571,71.8630872 91.2878571,71.5409396 C91.3263601,71.1664854 91.6039868,70.8602965 91.9735502,70.7847025 C92.3431135,70.7091086 92.7190866,70.881604 92.9021429,71.2107383 C93.4398045,71.9396473 94.1314229,72.541765 94.9280714,72.9744966 C96.3082857,73.7798658 98.8023571,74.7704698 102.83,74.7704698 L120.409571,74.7704698 C120.888777,74.7704698 121.27725,75.158089 121.27725,75.6362416 C121.27725,76.1143942 120.888777,76.5020134 120.409571,76.5020134 L102.854214,76.5020134 C97.5835714,76.5020134 94.5567857,74.9637584 92.9586429,73.6993289 C92.9586429,76.1154362 93.4106429,80.1825503 95.8159286,82.8885906 C97.4302143,84.7409396 99.8516429,85.6832215 102.854214,85.6832215 L120.433786,85.6832215 C120.912991,85.6832215 121.301464,86.0708407 121.301464,86.5489933 C121.301464,87.0271459 120.912991,87.4147651 120.433786,87.4147651 L120.433786,87.4147651 Z" id="Shape" fill="#424242"></path>
                        <path d="M74.0715,194.142282 C73.5945232,194.142282 73.2078571,193.756466 73.2078571,193.280537 C73.0906589,190.124763 70.4927159,187.626808 67.3278214,187.626808 C64.162927,187.626808 61.5649839,190.124763 61.4477857,193.280537 C61.4477857,193.758689 61.0593128,194.146309 60.5801071,194.146309 C60.1009015,194.146309 59.7124286,193.758689 59.7124286,193.280537 C59.7124286,189.083914 63.1219561,185.681879 67.3278214,185.681879 C71.5336868,185.681879 74.9432143,189.083914 74.9432143,193.280537 C74.9432244,193.510488 74.8511265,193.730906 74.6874122,193.892748 C74.5236978,194.05459 74.3019476,194.144431 74.0715,194.142282 L74.0715,194.142282 Z" id="Shape" fill="#424242"></path>
                        <path d="M81.2389286,97.7798658 L65.0072857,97.7798658 C64.6445949,97.7772849 64.3221636,97.5488617 64.2001429,97.2080537 L63.393,95.033557 L62.7311429,97.1677852 C62.6230343,97.5244891 62.297383,97.7714402 61.924,97.7798658 L53.4005714,97.7798658 C52.9213658,97.7798658 52.5328929,97.3922465 52.5328929,96.914094 C52.5328929,96.4359414 52.9213658,96.0483221 53.4005714,96.0483221 L61.2782857,96.0483221 L62.5212857,92.0214765 C62.6488027,91.6872211 62.9699876,91.4663012 63.3284286,91.4663012 C63.6868695,91.4663012 64.0080544,91.6872211 64.1355714,92.0214765 L65.5884286,96.0483221 L81.2147143,96.0483221 C81.6939199,96.0483221 82.0823929,96.4359414 82.0823929,96.914094 C82.0823929,97.3922465 81.6939199,97.7798658 81.2147143,97.7798658 L81.2389286,97.7798658 Z" id="Shape" fill="#424242"></path>
                        <path d="M62.3517857,204.483221 C61.9292699,204.485289 61.5672875,204.182028 61.4962143,203.766443 L59.7285714,193.41745 C59.6766658,193.112455 59.7917741,192.802998 60.030536,192.605648 C60.269298,192.408298 60.5954399,192.353037 60.8861075,192.460682 C61.176775,192.568326 61.3878087,192.822522 61.4397143,193.127517 L63.2154286,203.468456 C63.2551194,203.695018 63.2023957,203.92801 63.0689925,204.115574 C62.9355893,204.303138 62.7325775,204.429709 62.5051429,204.467114 L62.3517857,204.483221 Z" id="Shape" fill="#424242"></path>
                        <path d="M72.3361429,204.483221 L72.1908571,204.483221 C71.9634225,204.445816 71.7604107,204.319246 71.6270075,204.131682 C71.4936043,203.944118 71.4408806,203.711125 71.4805714,203.484564 L73.2159286,193.143624 C73.2939388,192.672144 73.740231,192.353034 74.21275,192.430873 C74.685269,192.508711 75.0050816,192.954023 74.9270714,193.425503 L73.1917143,203.758389 C73.1241759,204.177177 72.7612498,204.484645 72.3361429,204.483221 L72.3361429,204.483221 Z" id="Shape" fill="#424242"></path>
                        <path d="M116.051,194.271141 C115.574023,194.271141 115.187357,193.885325 115.187357,193.409396 C115.267128,191.261433 114.164173,189.241675 112.312045,188.144057 C110.459918,187.046438 108.154725,187.046438 106.302597,188.144057 C104.45047,189.241675 103.347515,191.261433 103.427286,193.409396 C103.427286,193.887549 103.038813,194.275168 102.559607,194.275168 C102.080402,194.275168 101.691929,193.887549 101.691929,193.409396 C101.691929,189.212773 105.101456,185.810738 109.307321,185.810738 C113.513187,185.810738 116.922714,189.212773 116.922714,193.409396 C116.922724,193.639347 116.830627,193.859765 116.666912,194.021607 C116.503198,194.183449 116.281448,194.27329 116.051,194.271141 L116.051,194.271141 Z" id="Shape" fill="#424242"></path>
                        <path d="M104.323214,204.612081 C103.900698,204.614148 103.538716,204.310887 103.467643,203.895302 L101.7,193.554362 C101.648094,193.249368 101.763203,192.939911 102.001965,192.742561 C102.240726,192.545211 102.566869,192.48995 102.857536,192.597594 C103.148204,192.705239 103.359237,192.959435 103.411143,193.26443 L105.186857,203.605369 C105.226548,203.831931 105.173824,204.064923 105.040421,204.252487 C104.907018,204.440051 104.704006,204.566622 104.476571,204.604027 L104.323214,204.612081 Z" id="Shape" fill="#424242"></path>
                        <path d="M114.315643,204.612081 L114.170357,204.612081 C113.942922,204.574675 113.739911,204.448105 113.606507,204.260541 C113.473104,204.072977 113.420381,203.839984 113.460071,203.613423 L115.195429,193.288591 C115.273439,192.81711 115.719731,192.498 116.19225,192.575839 C116.664769,192.653678 116.984582,193.098989 116.906571,193.57047 L115.171214,203.911409 C115.093204,204.320586 114.73306,204.615526 114.315643,204.612081 L114.315643,204.612081 Z" id="Shape" fill="#424242"></path>
                        <path d="M135.269071,123.406711 C134.154759,123.409879 133.041364,123.34263 131.935571,123.205369 C131.508147,123.146649 131.189727,122.782187 131.189727,122.351678 C131.189727,121.921169 131.508147,121.556707 131.935571,121.497987 C134.26988,121.10429 135.976777,119.084359 135.971286,116.722148 C135.971286,112.58255 135.519286,101.524832 135.382071,98.1986577 L135.382071,97.3127517 C135.367867,91.6675625 139.418776,86.8274974 144.988313,85.8351229 C150.557849,84.8427484 156.03726,87.9847105 157.982071,93.285906 C159.824462,91.4627093 162.357391,90.5079928 164.947714,90.6604027 L164.947714,90.6604027 C169.620008,90.9855677 173.309815,94.7468521 173.535714,99.4147651 C173.691953,103.641885 170.9286,107.426607 166.848234,108.574019 C162.767868,109.72143 158.430541,107.933442 156.351643,104.24698 C154.15236,107.198362 150.682764,108.936816 146.996857,108.934228 L146.9,108.934228 C146.186305,108.940965 145.507433,109.242992 145.025427,109.768216 C144.543422,110.29344 144.301533,110.994733 144.3575,111.704698 L144.825643,117.616107 L144.825643,117.680537 C144.865508,119.074825 144.272299,120.41253 143.211357,121.320805 C141.25,123.044295 137.819643,123.406711 135.269071,123.406711 Z M146.980714,87.4147651 C141.504013,87.4192061 137.065379,91.8480852 137.060929,97.3127517 L137.060929,98.1181208 L137.060929,98.1181208 C137.198143,101.428188 137.650143,112.542282 137.650143,116.722148 C137.711832,118.627967 136.893661,120.456642 135.4305,121.683221 C137.779286,121.683221 140.563929,121.304698 142.016786,120.072483 C142.693596,119.500891 143.073657,118.653559 143.049929,117.769128 L142.589857,111.889933 C142.495842,110.701684 142.900273,109.527796 143.706643,108.648388 C144.513012,107.76898 145.648989,107.262934 146.8435,107.251007 L146.948429,107.251007 C150.590536,107.251479 153.940012,105.260431 155.673643,102.06443 C155.827256,101.73794 156.168393,101.541445 156.528567,101.571992 C156.888741,101.60254 157.191746,101.853667 157.287929,102.201342 C158.390319,105.464472 161.594456,107.544968 165.031023,107.229053 C168.46759,106.913138 171.23683,104.283524 171.723146,100.874348 C172.209462,97.4651715 170.285529,94.1690192 167.073784,92.9088907 C163.862038,91.6487622 160.203375,92.7545827 158.232286,95.5812081 C158.036253,95.8659847 157.688718,96.0064146 157.349334,95.9379852 C157.009951,95.8695559 156.744332,95.6054966 156.6745,95.2671141 C155.689826,90.7044868 151.658147,87.4386677 146.980714,87.4147651 Z" id="Shape" fill="#424242"></path>
                        <path d="M108.915857,110.601342 C105.424108,110.607306 102.271631,108.516629 100.925143,105.302013 C100.533333,104.371078 100.636435,103.306013 101.199571,102.467114 C101.768993,101.60701 102.733192,101.089665 103.766286,101.089933 L114.057357,101.089933 C115.090451,101.089665 116.05465,101.60701 116.624071,102.467114 C117.187208,103.306013 117.29031,104.371078 116.8985,105.302013 C115.553141,108.513921 112.404671,110.604053 108.915857,110.601342 Z M103.774357,102.821477 C103.322563,102.822486 102.901321,103.049275 102.652429,103.425503 C102.408288,103.781253 102.362652,104.236613 102.531357,104.633557 C103.614759,107.19701 106.131699,108.863521 108.919893,108.863521 C111.708087,108.863521 114.225027,107.19701 115.308429,104.633557 C115.477134,104.236613 115.431498,103.781253 115.187357,103.425503 C114.938465,103.049275 114.517223,102.822486 114.065429,102.821477 L103.774357,102.821477 Z" id="Shape" fill="#424242"></path>
                        <path d="M67.3237857,112.131544 C65.737243,112.131547 64.3069096,111.177968 63.6997143,109.715436 C63.4764425,109.186904 63.5340515,108.581826 63.8530714,108.104698 C64.1670987,107.609637 64.7107234,107.306603 65.2978571,107.299329 L69.3335714,107.299329 C69.9207052,107.306603 70.4643299,107.609637 70.7783571,108.104698 C71.0973771,108.581826 71.1549861,109.186904 70.9317143,109.715436 C70.3267774,111.172566 68.9044488,112.125051 67.3237857,112.131544 L67.3237857,112.131544 Z M65.3059286,109.071141 C65.6573105,109.870329 66.4491498,110.386496 67.3237857,110.386496 C68.1984216,110.386496 68.9902609,109.870329 69.3416429,109.071141 L65.3059286,109.071141 Z" id="Shape" fill="#424242"></path>
                        <path d="M157.061929,122.416107 C155.023445,122.420446 153.182679,121.200203 152.396643,119.32349 C152.134318,118.699086 152.204071,117.984934 152.582286,117.422819 C152.96291,116.850519 153.605065,116.505968 154.293429,116.504698 L159.814286,116.504698 C160.502649,116.505968 161.144805,116.850519 161.525429,117.422819 C161.903644,117.984934 161.973396,118.699086 161.711071,119.32349 C160.927297,121.194792 159.09454,122.413945 157.061929,122.416107 L157.061929,122.416107 Z M154.293429,118.236242 C154.183141,118.234617 154.079653,118.289284 154.019,118.381208 C153.971584,118.466352 153.971584,118.569889 154.019,118.655034 C154.536832,119.888364 155.746008,120.691023 157.086143,120.691023 C158.426277,120.691023 159.635454,119.888364 160.153286,118.655034 C160.200701,118.569889 160.200701,118.466352 160.153286,118.381208 C160.092633,118.289284 159.989145,118.234617 159.878857,118.236242 L154.293429,118.236242 Z" id="Shape" fill="#424242"></path>
                        <path d="M109.295214,174.902013 C108.839458,174.902988 108.461386,174.550426 108.431571,174.096644 L103.144786,114.362416 C103.117391,114.054544 103.256687,113.755476 103.510202,113.577868 C103.763716,113.40026 104.092935,113.371094 104.373844,113.501358 C104.654754,113.631622 104.844677,113.901524 104.872071,114.209396 L110.166929,173.959732 C110.186945,174.191061 110.112558,174.420662 109.960618,174.596525 C109.808679,174.772388 109.592044,174.87963 109.359786,174.89396 L109.295214,174.902013 Z" id="Shape" fill="#424242"></path>
                        <path d="M109.295214,174.902013 L109.2145,174.902013 C108.982242,174.887684 108.765607,174.780442 108.613667,174.604578 C108.461727,174.428715 108.387341,174.199115 108.407357,173.967785 L113.694143,114.233557 C113.717212,113.925685 113.903138,113.65348 114.181885,113.519479 C114.460631,113.385477 114.78985,113.410038 115.045528,113.583908 C115.301205,113.757779 115.444498,114.054544 115.421429,114.362416 L110.134643,174.096644 C110.105579,174.541268 109.741614,174.890466 109.295214,174.902013 Z" id="Shape" fill="#424242"></path>
                        <path d="M90.6986429,174.378523 C90.276127,174.380591 89.9141446,174.07733 89.8430714,173.661745 C87.6718571,161.299329 89.1489286,143.057718 89.1650714,142.888591 C89.1910242,142.580719 89.379615,142.310049 89.6598034,142.178539 C89.9399918,142.04703 90.2692106,142.07466 90.5234463,142.251022 C90.7776819,142.427385 90.9183099,142.725685 90.8923571,143.033557 C90.8923571,143.210738 89.4233571,161.226846 91.5542143,173.363758 C91.5940611,173.589134 91.5424246,173.821068 91.4106924,174.008412 C91.2789602,174.195755 91.077953,174.32312 90.852,174.362416 L90.6986429,174.378523 Z" id="Shape" fill="#424242"></path>
                        <path d="M127.706143,174.378523 L127.552786,174.378523 C127.326833,174.339227 127.125826,174.211863 126.994093,174.024519 C126.862361,173.837175 126.810725,173.605241 126.850571,173.379866 C128.981429,161.234899 127.528571,143.226846 127.512429,143.049664 C127.486476,142.741793 127.627104,142.443492 127.881339,142.26713 C128.135575,142.090767 128.464794,142.063137 128.744982,142.194647 C129.025171,142.326156 129.213761,142.596826 129.239714,142.904698 C129.239714,143.089933 130.732929,161.315436 128.561714,173.677852 C128.483704,174.087029 128.12356,174.381969 127.706143,174.378523 L127.706143,174.378523 Z" id="Shape" fill="#424242"></path>
                        <path d="M107.059429,175.489933 C103.201286,175.489933 99.8839286,175.336913 97.1638571,175.119463 C92.638699,174.856215 88.1478333,174.17409 83.7491429,173.081879 C83.289997,172.948441 83.0261968,172.468875 83.1599286,172.010738 C83.2936604,171.552601 83.7742827,171.289381 84.2334286,171.422819 L84.2334286,171.422819 C88.5417508,172.47827 92.9371837,173.141393 97.3656429,173.404027 C109.664981,174.223268 122.018508,173.549887 134.155214,171.398658 C134.627733,171.318595 135.075832,171.635902 135.156071,172.107383 C135.236311,172.578863 134.918305,173.025978 134.445786,173.10604 C125.399521,174.660725 116.238839,175.458132 107.059429,175.489933 L107.059429,175.489933 Z" id="Shape" fill="#424242"></path>
                        <path d="M65.3785714,162.016107 C52.0849286,162.016107 44.6672857,159.712752 44.2475714,159.6 C43.8832228,159.401146 43.7123047,158.971698 43.8406655,158.57761 C43.9690263,158.183521 44.3603171,157.93639 44.7722143,157.989262 L44.7722143,157.989262 C44.9094286,158.02953 58.8326429,162.330201 82.5465,159.148993 C82.8536081,159.107272 83.1596945,159.232201 83.3494595,159.476719 C83.5392246,159.721238 83.5838383,160.048198 83.4664953,160.334437 C83.3491522,160.620677 83.0876795,160.822709 82.7805714,160.86443 C77.0121007,161.634771 71.1984757,162.019521 65.3785714,162.016107 L65.3785714,162.016107 Z" id="Shape" fill="#424242"></path>
                        <path d="M65.5722857,161.991946 C65.0953089,161.991946 64.7086429,161.60613 64.7086429,161.130201 L64.7086429,127.578523 C64.69335,123.110547 63.6611452,118.704402 61.6899286,114.692617 C61.5214905,114.28298 61.6915835,113.812639 62.083358,113.604706 C62.4751324,113.396774 62.9610758,113.518926 63.2073571,113.887248 C65.3264493,118.141816 66.4313927,122.827506 66.4359286,127.578523 L66.4359286,161.130201 C66.4359286,161.60613 66.0492625,161.991946 65.5722857,161.991946 L65.5722857,161.991946 Z" id="Shape" fill="#424242"></path>
                        <path d="M69.5353571,161.991946 C69.0583804,161.991946 68.6717143,161.60613 68.6717143,161.130201 L68.6717143,127.578523 C68.6762502,122.827506 69.7811936,118.141816 71.9002857,113.887248 C72.1465671,113.518926 72.6325104,113.396774 73.0242849,113.604706 C73.4160593,113.812639 73.5861523,114.28298 73.4177143,114.692617 C71.4510099,118.706007 70.4190507,123.111104 70.399,127.578523 L70.399,161.130201 C70.399,161.60613 70.0123339,161.991946 69.5353571,161.991946 L69.5353571,161.991946 Z" id="Shape" fill="#424242"></path>
                        <path d="M149.523214,132.483221 C148.442636,132.507808 147.387988,132.151327 146.544857,131.47651 C144.575429,129.865772 144.381714,126.974497 144.381714,126.853691 C144.354968,126.377763 144.719952,125.970312 145.196929,125.943624 C145.673905,125.916937 146.082254,126.281118 146.109,126.757047 C146.109,126.797315 146.270429,129.044295 147.642571,130.139597 C148.394877,130.695555 149.351991,130.898311 150.265786,130.695302 C154.430643,130.051007 155.157071,125.32349 155.165143,125.275168 C155.234238,124.801463 155.675109,124.473339 156.149857,124.542282 C156.624605,124.611225 156.953452,125.051128 156.884357,125.524832 C156.585714,127.610738 154.8665,131.742282 150.532143,132.410738 C150.198175,132.460513 149.860883,132.484745 149.523214,132.483221 L149.523214,132.483221 Z" id="Shape" fill="#424242"></path>
                        <path d="M164.826643,132.483221 C164.488766,132.482112 164.151471,132.455187 163.817714,132.402685 C159.483357,131.734228 157.764143,127.57047 157.4655,125.516779 C157.396405,125.043074 157.725252,124.603171 158.2,124.534228 C158.674748,124.465285 159.115619,124.79341 159.184714,125.267114 C159.351321,126.159548 159.662081,127.019059 160.104857,127.812081 C160.889085,129.354584 162.370656,130.425089 164.084071,130.687248 C165.000422,130.892715 165.961019,130.689845 166.715357,130.131544 C168.079429,129.028188 168.240857,126.773154 168.240857,126.757047 C168.258159,126.449175 168.438756,126.1739 168.714619,126.034915 C168.990482,125.89593 169.319701,125.91435 169.578262,126.083237 C169.836823,126.252124 169.985445,126.545819 169.968143,126.853691 C169.968143,126.974497 169.774429,129.881879 167.805,131.47651 C166.961869,132.151327 165.907221,132.507808 164.826643,132.483221 L164.826643,132.483221 Z" id="Shape" fill="#424242"></path>
                        <path d="M153.970571,144.346309 L153.881786,144.346309 C153.646443,144.332209 153.427107,144.22272 153.274679,144.04325 C153.12225,143.863779 153.049981,143.629931 153.074643,143.395973 L154.793857,126.805369 C154.842892,126.329441 155.269309,125.983288 155.746286,126.032215 C156.223262,126.081142 156.570178,126.506622 156.521143,126.98255 L154.801929,143.573154 C154.757722,144.002127 154.402532,144.33245 153.970571,144.346309 Z" id="Shape" fill="#424242"></path>
                        <path d="M161.146071,141.269799 C160.726119,141.27254 160.365064,140.973455 160.2905,140.561074 L157.949786,127.514094 C157.894996,127.210538 158.006671,126.900875 158.242742,126.701753 C158.478814,126.50263 158.803417,126.444299 159.094278,126.548733 C159.385139,126.653166 159.598068,126.904498 159.652857,127.208054 L161.993571,140.255034 C162.035794,140.48163 161.985286,140.71566 161.853333,140.904831 C161.72138,141.094002 161.51898,141.222548 161.291357,141.261745 L161.146071,141.269799 Z" id="Shape" fill="#424242"></path>
                        <path d="M156.811714,171.680537 C153.349071,171.680537 150.265786,171.503356 147.682929,171.253691 C143.156295,170.883528 138.673692,170.096281 134.292429,168.902013 C133.835512,168.761904 133.578939,168.278732 133.719357,167.822819 C133.859776,167.366906 134.344012,167.110897 134.800929,167.251007 C139.089406,168.406508 143.473961,169.172051 147.900857,169.538255 C158.44858,170.529736 169.088219,169.753932 179.379429,167.242953 C179.679328,167.168143 179.996444,167.258658 180.211324,167.480403 C180.426203,167.702147 180.5062,168.021432 180.421181,168.317987 C180.336161,168.614541 180.099042,168.843311 179.799143,168.918121 C172.277623,170.767495 164.558218,171.695142 156.811714,171.680537 L156.811714,171.680537 Z" id="Shape" fill="#424242"></path>
                        <path d="M146.561,204.483221 C146.16682,204.465796 145.834596,204.184026 145.753857,203.798658 C142.953071,190.518121 141.613214,169.973154 141.597071,169.795973 C141.565867,169.320045 141.927238,168.908988 142.404214,168.877852 C142.881191,168.846717 143.293153,169.207293 143.324357,169.683221 C143.324357,169.884564 144.672286,190.284564 147.448857,203.444295 C147.496579,203.668629 147.452716,203.90269 147.326979,204.09466 C147.201242,204.28663 147.004003,204.420673 146.778929,204.467114 L146.561,204.483221 Z" id="Shape" fill="#424242"></path>
                        <path d="M167.562857,204.483221 L167.385286,204.483221 C167.160211,204.436781 166.962972,204.302737 166.837235,204.110767 C166.711498,203.918797 166.667635,203.684736 166.715357,203.460403 C169.491929,190.300671 170.823714,169.908725 170.839857,169.699329 C170.860043,169.391457 171.043304,169.117717 171.320609,168.981224 C171.597914,168.844731 171.927133,168.866221 172.184252,169.0376 C172.441371,169.208978 172.587328,169.504209 172.567143,169.812081 C172.567143,170.021477 171.211143,190.542282 168.410357,203.814765 C168.319627,204.208139 167.967394,204.485959 167.562857,204.483221 Z" id="Shape" fill="#424242"></path>
                        <path d="M154.164286,204.104698 C153.733911,204.104925 153.369047,203.788947 153.308714,203.363758 C150.596714,184.413423 150.080143,170.987919 150.080143,170.85906 C150.062312,170.380908 150.43633,169.978866 150.915536,169.961074 C151.394741,169.943282 151.797669,170.316478 151.8155,170.794631 C151.8155,170.92349 152.356286,184.268456 155.044071,203.122148 C155.078643,203.34984 155.020439,203.581867 154.882446,203.766462 C154.744453,203.951056 154.538153,204.07286 154.309571,204.104698 L154.164286,204.104698 Z" id="Shape" fill="#424242"></path>
                        <path d="M159.943429,204.104698 L159.814286,204.104698 C159.585704,204.07286 159.379404,203.951056 159.241411,203.766462 C159.103418,203.581867 159.045215,203.34984 159.079786,203.122148 C161.783714,184.260403 162.308357,170.907383 162.308357,170.794631 C162.326188,170.316478 162.729116,169.943282 163.208321,169.961074 C163.687527,169.978866 164.061545,170.380908 164.043714,170.85906 C164.043714,170.995973 163.494857,184.413423 160.815143,203.363758 C160.754022,203.79508 160.379919,204.113059 159.943429,204.104698 Z" id="Shape" fill="#424242"></path>
                        <path d="M60.2612857,108.974497 C57.1988273,108.974497 54.7162143,106.497339 54.7162143,103.441611 C54.7162143,100.385882 57.1988273,97.9087248 60.2612857,97.9087248 C63.3237441,97.9087248 65.8063571,100.385882 65.8063571,103.441611 C65.8019118,106.4955 63.3219009,108.970061 60.2612857,108.974497 L60.2612857,108.974497 Z M60.2612857,99.6402685 C58.1572386,99.6402685 56.4515714,101.342187 56.4515714,103.441611 C56.4515714,105.541034 58.1572386,107.242953 60.2612857,107.242953 C62.3653328,107.242953 64.071,105.541034 64.071,103.441611 C64.0665603,101.344025 62.3634911,99.6446984 60.2612857,99.6402685 Z" id="Shape" fill="#424242"></path>
                        <path d="M69.7048571,104.303356 C69.548655,104.303886 69.3952331,104.262135 69.2609286,104.18255 C68.1110321,103.506973 66.6910729,103.479491 65.5157857,104.110067 C65.2419116,104.269132 64.9027275,104.265763 64.6320818,104.101288 C64.3614361,103.936813 64.2028011,103.637652 64.218777,103.321858 C64.2347529,103.006065 64.4227737,102.724364 64.7086429,102.587919 C66.4182159,101.670218 68.483965,101.709915 70.1568571,102.692617 C70.5003861,102.887468 70.6675626,103.290106 70.562785,103.670277 C70.4580075,104.050449 70.1080044,104.311175 69.7129286,104.303356 L69.7048571,104.303356 Z" id="Shape" fill="#424242"></path>
                        <path d="M74.3782143,108.974497 C71.3157559,108.974497 68.8331429,106.497339 68.8331429,103.441611 C68.8331429,100.385882 71.3157559,97.9087248 74.3782143,97.9087248 C77.4406727,97.9087248 79.9232857,100.385882 79.9232857,103.441611 C79.9188404,106.4955 77.4388295,108.970061 74.3782143,108.974497 L74.3782143,108.974497 Z M74.3782143,99.6402685 C72.2741672,99.6402685 70.5685,101.342187 70.5685,103.441611 C70.5685,105.541034 72.2741672,107.242953 74.3782143,107.242953 C76.4822614,107.242953 78.1879286,105.541034 78.1879286,103.441611 C78.1834888,101.344025 76.4804196,99.6446984 74.3782143,99.6402685 Z" id="Shape" fill="#424242"></path>
                        <path d="M181.954214,147.616107 C181.594876,147.615426 181.23889,147.547118 180.904929,147.414765 C179.218,146.754362 177.813571,144.547651 176.602857,140.665772 C175.251632,136.459864 173.115536,132.54683 170.307143,129.132886 C169.990644,128.774827 170.024975,128.228555 170.383822,127.912752 C170.742668,127.596949 171.290144,127.631203 171.606643,127.989262 C174.58724,131.572112 176.845621,135.696085 178.2575,140.134228 C179.605429,144.45906 180.888786,145.530201 181.542571,145.771812 C181.886096,145.907644 182.27433,145.868606 182.583786,145.667114 C183.6815,145.038926 185.521786,142.212081 185.521786,130.292617 C185.521786,129.814465 185.910259,129.426846 186.389464,129.426846 C186.86867,129.426846 187.257143,129.814465 187.257143,130.292617 C187.257143,143.468456 185.077857,146.230872 183.439357,147.205369 C182.988998,147.469922 182.476803,147.611578 181.954214,147.616107 L181.954214,147.616107 Z" id="Shape" fill="#424242"></path>
                        <path d="M179.774929,156.402685 L179.653857,156.402685 C179.343865,156.391175 179.063575,156.215525 178.918568,155.9419 C178.773562,155.668275 178.785869,155.338244 178.950854,155.076128 C179.115839,154.814012 179.408437,154.659632 179.718429,154.671141 L179.718429,154.671141 C180.017071,154.671141 187.128,154.808054 189.678571,146.496644 C191.294799,141.074326 191.64,135.353827 190.6875,129.777181 C190.584972,129.310148 190.881296,128.848611 191.349357,128.746309 C191.817418,128.644006 192.279972,128.939679 192.3825,129.406711 C193.420338,135.270755 193.060892,141.296182 191.333214,146.995973 C189.799643,152.005369 186.716357,154.292617 184.407929,155.331544 C182.952452,155.998619 181.376112,156.363066 179.774929,156.402685 Z" id="Shape" fill="#424242"></path>
                        <path d="M188.871429,131.500671 C187.809809,131.495159 186.78614,131.106047 185.989929,130.405369 C185.81475,130.442251 185.636249,130.461141 185.457214,130.461745 C183.725928,130.353759 182.406526,128.871795 182.503071,127.143624 C182.45802,125.798345 183.23782,124.561061 184.4725,124.018792 C185.082118,122.085842 186.84965,120.74857 188.8795,120.684564 C191.510786,120.684564 193.649714,123.100671 193.649714,126.088591 C193.649714,129.07651 191.518857,131.500671 188.871429,131.500671 Z M186.215929,128.55302 C186.458738,128.553364 186.690186,128.655679 186.853571,128.834899 C187.363875,129.416553 188.096802,129.755884 188.871429,129.769128 C190.542214,129.769128 191.906286,128.158389 191.906286,126.088591 C191.906286,124.018792 190.566429,122.416107 188.871429,122.416107 C187.447489,122.509904 186.264919,123.547751 185.989929,124.944966 C185.903639,125.269979 185.635784,125.515235 185.303857,125.573154 C184.621507,125.779795 184.177187,126.434735 184.238429,127.143624 C184.146636,127.922399 184.688715,128.634094 185.465286,128.754362 C185.601963,128.75349 185.73685,128.723276 185.860786,128.665772 C185.977476,128.602203 186.1073,128.566373 186.240143,128.561074 L186.215929,128.55302 Z" id="Shape" fill="#424242"></path>
                        <path d="M41.4387143,138.144966 C40.9146488,138.135559 40.4023524,137.988319 39.9535714,137.718121 C39.2755714,137.331544 38.2747143,136.526174 37.4837143,134.005369 C36.5958571,131.178523 36.1438571,126.757047 36.1438571,120.845638 C36.1438571,120.367485 36.5323301,119.979866 37.0115357,119.979866 C37.4907414,119.979866 37.8792143,120.367485 37.8792143,120.845638 C37.8792143,132.757047 39.7195,135.591946 40.8172143,136.220134 C41.1266704,136.421626 41.5149037,136.460664 41.8584286,136.324832 C42.5041429,136.067114 43.7875,134.995973 45.1435,130.687248 C46.5452349,126.242434 48.7954518,122.110149 51.7701429,118.518121 C52.0866415,118.160062 52.6341173,118.125808 52.9929643,118.441611 C53.3518113,118.757414 53.3861415,119.303687 53.0696429,119.661745 C50.2757728,123.079023 48.1534988,126.991821 46.8142857,131.194631 C45.6035714,135.07651 44.1991429,137.283221 42.5122143,137.943624 C42.1706867,138.078996 41.8061944,138.147359 41.4387143,138.144966 L41.4387143,138.144966 Z" id="Shape" fill="#424242"></path>
                        <path d="M43.5857143,146.931544 C41.9878256,146.893369 40.414364,146.531693 38.9607857,145.868456 C36.6523571,144.82953 33.5690714,142.534228 32.0355,137.532886 C30.3078221,131.833095 29.9483758,125.807668 30.9862143,119.943624 C31.088742,119.476591 31.5512958,119.180919 32.0193571,119.283221 C32.4874185,119.385524 32.783742,119.847061 32.6812143,120.314094 C31.7299702,125.888126 32.0751624,131.605724 33.6901429,137.025503 C36.3214286,145.385235 43.5857143,145.208054 43.6745,145.2 C44.1537056,145.182208 44.5566334,145.555404 44.5744643,146.033557 C44.5922952,146.51171 44.2182771,146.913752 43.7390714,146.931544 L43.5857143,146.931544 Z" id="Shape" fill="#424242"></path>
                        <path d="M34.5053571,122.037584 C31.8740714,122.037584 29.7351429,119.621477 29.7351429,116.633557 C29.7351429,113.645638 31.8740714,111.22953 34.5053571,111.22953 C36.535207,111.293537 38.3027393,112.630808 38.9123571,114.563758 C40.1438757,115.108506 40.9201356,116.345243 40.8737143,117.688591 C40.9613589,119.404763 39.6539397,120.874169 37.9357143,120.990604 C37.7566801,120.99 37.5781781,120.97111 37.403,120.934228 C36.603789,121.641474 35.5735924,122.03375 34.5053571,122.037584 L34.5053571,122.037584 Z M34.5053571,112.95302 C32.8345714,112.95302 31.4705,114.563758 31.4705,116.633557 C31.4705,118.703356 32.8345714,120.314094 34.5053571,120.314094 C35.279753,120.29985 36.012294,119.960698 36.5232143,119.379866 C36.777104,119.102104 37.1821524,119.02062 37.5240714,119.178523 C37.6480069,119.236028 37.7828946,119.266242 37.9195714,119.267114 C38.6928822,119.143008 39.2305155,118.432475 39.1383571,117.656376 C39.1995986,116.947487 38.7552784,116.292547 38.0729286,116.085906 C37.741002,116.027987 37.4731465,115.78273 37.3868571,115.457718 C37.1022417,114.070028 35.9219892,113.044113 34.5053571,112.95302 L34.5053571,112.95302 Z" id="Shape" fill="#424242"></path>
                        <path d="M85.4522143,102.821477 C85.1860684,102.814069 84.9382236,102.684589 84.7805,102.470556 C84.6227764,102.256523 84.5728069,101.981866 84.6450714,101.726174 C86.6697188,94.464321 83.899327,86.7166038 77.7250715,82.3736039 C71.550816,78.030604 63.3066126,78.030604 57.1323571,82.3736039 C50.9581016,86.7166038 48.1877098,94.464321 50.2123571,101.726174 C50.2959828,102.023976 50.2140311,102.343671 49.9973725,102.564835 C49.7807139,102.785998 49.4622639,102.875029 49.1619797,102.798392 C48.8616954,102.721754 48.6251971,102.49109 48.5415714,102.193289 C46.3184025,94.2257489 49.3570724,85.7240728 56.1313848,80.9582953 C62.9056973,76.1925178 71.9517313,76.1925178 78.7260438,80.9582953 C85.5003562,85.7240728 88.5390261,94.2257489 86.3158571,102.193289 C86.2079855,102.576617 85.8509678,102.836301 85.4522143,102.821477 Z" id="Shape" fill="#424242"></path>
                        <path d="M73.2966429,70.357047 L72.0052143,70.357047 C71.5260086,70.357047 71.1375357,69.9694277 71.1375357,69.4912752 C71.1375357,69.0131226 71.5260086,68.6255034 72.0052143,68.6255034 L73.2966429,68.6255034 C78.8357527,68.6210623 83.3249777,64.1417026 83.3294286,58.6147651 L83.3294286,41.9919463 C83.3249777,36.4650088 78.8357527,31.9856491 73.2966429,31.9812081 L61.3428571,31.9812081 C55.8037473,31.9856491 51.3145223,36.4650088 51.3100714,41.9919463 L51.3100714,58.6228188 C51.3145223,64.1497563 55.8037473,68.629116 61.3428571,68.633557 L63.2477143,68.633557 C63.7269199,68.633557 64.1153929,69.0211763 64.1153929,69.4993289 C64.1153929,69.9774814 63.7269199,70.3651007 63.2477143,70.3651007 L61.3428571,70.3651007 C54.8453362,70.3606586 49.5791662,65.1060611 49.5747143,58.6228188 L49.5747143,41.9919463 C49.5791662,35.508704 54.8453362,30.2541065 61.3428571,30.2496644 L73.2885714,30.2496644 C79.7860923,30.2541065 85.0522624,35.508704 85.0567143,41.9919463 L85.0567143,58.6228188 C85.0478222,65.0997754 79.7878642,70.3481744 73.2966429,70.357047 Z" id="Shape" fill="#424242"></path>
                        <path d="M67.3399286,73.6993289 L67.3399286,73.6993289 C66.572978,73.6986325 65.8390793,73.3877016 65.3059286,72.8375839 L62.6423571,70.0993289 C62.3080277,69.7568382 62.3152551,69.2087626 62.6585,68.8751678 C63.001745,68.541573 63.5510276,68.5487845 63.8853571,68.8912752 L66.5489286,71.6295302 C66.7604321,71.8474753 67.0520324,71.9696783 67.3560714,71.9677852 L67.3560714,71.9677852 C67.6589218,71.9717928 67.9503491,71.8525701 68.1632143,71.6375839 L70.9075,68.8832215 C71.1252151,68.6645462 71.443311,68.5783762 71.741964,68.657171 C72.040617,68.7359658 72.2744546,68.9677546 72.3553926,69.2652247 C72.4363305,69.5626948 72.3520722,69.8806535 72.1343571,70.0993289 L69.3900714,72.8536913 C68.8503047,73.4019201 68.110101,73.7072374 67.3399286,73.6993289 L67.3399286,73.6993289 Z" id="Shape" fill="#424242"></path>
                        <path d="M115.276143,68.3194631 L113.984714,68.3194631 C113.505509,68.3194631 113.117036,67.9318438 113.117036,67.4536913 C113.117036,66.9755387 113.505509,66.5879195 113.984714,66.5879195 L115.276143,66.5879195 C120.815253,66.5834784 125.304478,62.1041187 125.308929,56.5771812 L125.308929,24.885906 C125.304478,19.3589686 120.815253,14.8796089 115.276143,14.8751678 L103.314286,14.8751678 C97.781481,14.8884795 93.3020744,19.3652457 93.2976429,24.885906 L93.2976429,56.5771812 C93.2976268,62.1009854 97.7783321,66.5826521 103.314286,66.5959732 L105.219143,66.5959732 C105.698348,66.5959732 106.086821,66.9835924 106.086821,67.461745 C106.086821,67.9398975 105.698348,68.3275168 105.219143,68.3275168 L103.314286,68.3275168 C96.8167648,68.3230747 91.5505947,63.0684772 91.5461429,56.5852349 L91.5461429,24.885906 C91.5550438,18.4058091 96.8199125,13.1561132 103.314286,13.1516779 L115.26,13.1516779 C121.757525,13.1516718 127.027307,18.4026661 127.036214,24.885906 L127.036214,56.5771812 C127.031769,63.0572827 121.770511,68.3105817 115.276143,68.3194631 L115.276143,68.3194631 Z" id="Shape" fill="#424242"></path>
                        <path d="M109.319429,71.6778523 L109.319429,71.6778523 C108.552478,71.677156 107.818579,71.3662251 107.285429,70.8161074 L104.621857,68.0778523 C104.287528,67.7353617 104.294755,67.1872861 104.638,66.8536913 C104.981245,66.5200965 105.530528,66.527308 105.864857,66.8697987 L108.528429,69.6080537 C108.739932,69.8259988 109.031532,69.9482018 109.335571,69.9463087 C109.638781,69.9522175 109.930931,69.8326993 110.142714,69.6161074 L112.887,66.861745 C113.223558,66.5237022 113.771034,66.5218993 114.109821,66.8577181 C114.448609,67.1935369 114.450416,67.7398096 114.113857,68.0778523 L111.369571,70.8322148 C110.829805,71.3804436 110.089601,71.6857609 109.319429,71.6778523 Z" id="Shape" fill="#424242"></path>
                        <path d="M182.414286,76.5100671 L174.496214,76.5100671 C174.017009,76.5100671 173.628536,76.1224479 173.628536,75.6442953 C173.628536,75.1661427 174.017009,74.7785235 174.496214,74.7785235 L182.414286,74.7785235 C187.64843,74.7696565 191.889328,70.5380778 191.898214,65.3154362 L191.898214,51.0684564 C191.893772,45.84267 187.651576,41.6061934 182.414286,41.5973154 L144.890214,41.5973154 C139.65607,41.6061824 135.415172,45.8377611 135.406286,51.0604027 L135.406286,65.2993289 C135.415172,70.5219704 139.65607,74.7535491 144.890214,74.7624161 L162.881429,74.7624161 C163.360634,74.7624161 163.749107,75.1500354 163.749107,75.6281879 C163.749107,76.1063405 163.360634,76.4939597 162.881429,76.4939597 L144.890214,76.4939597 C138.69766,76.4850883 133.67982,71.4782744 133.670929,65.2993289 L133.670929,51.0684564 C133.67982,44.8895109 138.69766,39.8826969 144.890214,39.8738255 L182.414286,39.8738255 C188.60684,39.8826969 193.62468,44.8895109 193.633571,51.0684564 L193.633571,65.3073826 C193.629127,71.489473 188.609987,76.5011864 182.414286,76.5100671 L182.414286,76.5100671 Z" id="Shape" fill="#424242"></path>
                        <path d="M163.696643,84.1530201 C163.115546,84.1519054 162.549986,83.9656808 162.082357,83.6214765 C161.098396,82.9259232 160.69913,81.6616163 161.105714,80.5288591 L162.8895,75.366443 C162.95536,75.0360527 163.20812,74.7742445 163.536547,74.6962337 C163.864973,74.6182228 164.208846,74.7383136 164.416834,75.003657 C164.624822,75.2690004 164.658788,75.6309424 164.503786,75.9302013 L162.72,81.0926174 C162.572584,81.5088242 162.716514,81.9722267 163.073982,82.2323075 C163.43145,82.4923882 163.917639,82.4874386 164.269714,82.2201342 L173.955429,74.9718121 C174.338793,74.6849205 174.882655,74.7624444 175.170179,75.1449664 C175.457702,75.5274885 175.380007,76.0701554 174.996643,76.357047 L165.310929,83.6053691 C164.845292,83.9553205 164.279558,84.1472477 163.696643,84.1530201 Z" id="Shape" fill="#424242"></path>
                        <path d="M167.538643,51.3422819 L142.517214,51.3422819 C142.038009,51.3422819 141.649536,50.9546626 141.649536,50.4765101 C141.649536,49.9983575 142.038009,49.6107383 142.517214,49.6107383 L167.538643,49.6107383 C168.017848,49.6107383 168.406321,49.9983575 168.406321,50.4765101 C168.406321,50.9546626 168.017848,51.3422819 167.538643,51.3422819 L167.538643,51.3422819 Z" id="Shape" fill="#424242"></path>
                        <path d="M184.028571,58.7033557 L159.007143,58.7033557 C158.527937,58.7033557 158.139464,58.3157365 158.139464,57.8375839 C158.139464,57.3594313 158.527937,56.9718121 159.007143,56.9718121 L184.028571,56.9718121 C184.507777,56.9718121 184.89625,57.3594314 184.89625,57.8375839 C184.89625,58.3157364 184.507777,58.7033556 184.028571,58.7033557 L184.028571,58.7033557 Z" id="Shape" fill="#424242"></path>
                        <path d="M183.826786,51.3422819 L173.802071,51.3422819 C173.322866,51.3422819 172.934393,50.9546626 172.934393,50.4765101 C172.934393,49.9983575 173.322866,49.6107383 173.802071,49.6107383 L183.826786,49.6107383 C184.305991,49.6107383 184.694464,49.9983575 184.694464,50.4765101 C184.694464,50.9546626 184.305991,51.3422819 183.826786,51.3422819 L183.826786,51.3422819 Z" id="Shape" fill="#424242"></path>
                        <path d="M108.471929,26.5127517 L99.9000714,26.5127517 C99.4208658,26.5127517 99.0323929,26.1251324 99.0323929,25.6469799 C99.0323929,25.1688273 99.4208658,24.7812081 99.9000714,24.7812081 L108.471929,24.7812081 C108.951134,24.7812081 109.339607,25.1688273 109.339607,25.6469799 C109.339607,26.1251324 108.951134,26.5127517 108.471929,26.5127517 L108.471929,26.5127517 Z" id="Shape" fill="#424242"></path>
                        <path d="M119.037429,34.3973154 L99.9000714,34.3973154 C99.4208658,34.3973154 99.0323929,34.0096962 99.0323929,33.5315436 C99.0323929,33.0533911 99.4208658,32.6657718 99.9000714,32.6657718 L119.037429,32.6657718 C119.516634,32.6657718 119.905107,33.0533911 119.905107,33.5315436 C119.905107,34.0096962 119.516634,34.3973154 119.037429,34.3973154 L119.037429,34.3973154 Z" id="Shape" fill="#424242"></path>
                        <path d="M118.843714,26.5127517 L114.7515,26.5127517 C114.272294,26.5127517 113.883821,26.1251324 113.883821,25.6469799 C113.883821,25.1688273 114.272294,24.7812081 114.7515,24.7812081 L118.843714,24.7812081 C119.32292,24.7812081 119.711393,25.1688273 119.711393,25.6469799 C119.711393,26.1251324 119.32292,26.5127517 118.843714,26.5127517 L118.843714,26.5127517 Z" id="Shape" fill="#424242"></path>
                        <path d="M108.471929,40.9449664 L99.9000714,40.9449664 C99.4208658,40.9449664 99.0323929,40.5573472 99.0323929,40.0791946 C99.0323929,39.6010421 99.4208658,39.2134228 99.9000714,39.2134228 L108.471929,39.2134228 C108.951134,39.2134228 109.339607,39.6010421 109.339607,40.0791946 C109.339607,40.5573472 108.951134,40.9449664 108.471929,40.9449664 L108.471929,40.9449664 Z" id="Shape" fill="#424242"></path>
                        <path d="M119.037429,48.8295302 L110.473643,48.8295302 C109.994437,48.8295302 109.605964,48.441911 109.605964,47.9637584 C109.605964,47.4856058 109.994437,47.0979866 110.473643,47.0979866 L119.0455,47.0979866 C119.524706,47.0979866 119.913179,47.4856058 119.913179,47.9637584 C119.913179,48.441911 119.524706,48.8295302 119.0455,48.8295302 L119.037429,48.8295302 Z" id="Shape" fill="#424242"></path>
                        <path d="M118.843714,40.9449664 L114.7515,40.9449664 C114.272294,40.9449664 113.883821,40.5573472 113.883821,40.0791946 C113.883821,39.6010421 114.272294,39.2134228 114.7515,39.2134228 L118.843714,39.2134228 C119.32292,39.2134228 119.711393,39.6010421 119.711393,40.0791946 C119.711393,40.5573472 119.32292,40.9449664 118.843714,40.9449664 L118.843714,40.9449664 Z" id="Shape" fill="#424242"></path>
                        <path d="M103.992286,48.8295302 L99.9000714,48.8295302 C99.4208658,48.8295302 99.0323929,48.441911 99.0323929,47.9637584 C99.0323929,47.4856058 99.4208658,47.0979866 99.9000714,47.0979866 L103.992286,47.0979866 C104.471491,47.0979866 104.859964,47.4856058 104.859964,47.9637584 C104.859964,48.441911 104.471491,48.8295302 103.992286,48.8295302 L103.992286,48.8295302 Z" id="Shape" fill="#424242"></path>
                        <path d="M118.843714,56.0214765 L99.9000714,56.0214765 C99.4208658,56.0214765 99.0323929,55.6338573 99.0323929,55.1557047 C99.0323929,54.6775521 99.4208658,54.2899329 99.9000714,54.2899329 L118.843714,54.2899329 C119.32292,54.2899329 119.711393,54.6775521 119.711393,55.1557047 C119.711393,55.6338573 119.32292,56.0214765 118.843714,56.0214765 L118.843714,56.0214765 Z" id="Shape" fill="#424242"></path>
                        <path d="M167.538643,66.0402685 L142.517214,66.0402685 C142.038009,66.0402685 141.649536,65.6526492 141.649536,65.1744966 C141.649536,64.6963441 142.038009,64.3087248 142.517214,64.3087248 L167.538643,64.3087248 C168.017848,64.3087248 168.406321,64.6963441 168.406321,65.1744966 C168.406321,65.6526492 168.017848,66.0402685 167.538643,66.0402685 L167.538643,66.0402685 Z" id="Shape" fill="#424242"></path>
                        <path d="M183.826786,66.0402685 L173.802071,66.0402685 C173.322866,66.0402685 172.934393,65.6526492 172.934393,65.1744966 C172.934393,64.6963441 173.322866,64.3087248 173.802071,64.3087248 L183.826786,64.3087248 C184.305991,64.3087248 184.694464,64.6963441 184.694464,65.1744966 C184.694464,65.6526492 184.305991,66.0402685 183.826786,66.0402685 Z" id="Shape" fill="#424242"></path>
                        <path d="M152.55,58.7033557 L142.509143,58.7033557 C142.029937,58.7033557 141.641464,58.3157365 141.641464,57.8375839 C141.641464,57.3594313 142.029937,56.9718121 142.509143,56.9718121 L152.55,56.9718121 C153.029206,56.9718121 153.417678,57.3594314 153.417678,57.8375839 C153.417678,58.3157364 153.029206,58.7033556 152.55,58.7033557 L152.55,58.7033557 Z" id="Shape" fill="#424242"></path>
                        <path d="M192.1,204.483221 L33.9,204.483221 C33.4207944,204.483221 33.0323214,204.095602 33.0323214,203.61745 C33.0323214,203.139297 33.4207944,202.751678 33.9,202.751678 L192.1,202.751678 C192.579206,202.751678 192.967679,203.139297 192.967679,203.61745 C192.967679,204.095602 192.579206,204.483221 192.1,204.483221 L192.1,204.483221 Z" id="Shape" fill="#424242"></path>
                        <path d="M208.678714,204.451007 L198.2585,204.451007 C197.779294,204.451007 197.390821,204.063387 197.390821,203.585235 C197.390821,203.107082 197.779294,202.719463 198.2585,202.719463 L208.678714,202.719463 C209.15792,202.719463 209.546393,203.107082 209.546393,203.585235 C209.546393,204.063387 209.15792,204.451007 208.678714,204.451007 L208.678714,204.451007 Z" id="Shape" fill="#424242"></path>
                        <path d="M224.886143,204.451007 L214.853357,204.451007 C214.374152,204.451007 213.985679,204.063387 213.985679,203.585235 C213.985679,203.107082 214.374152,202.719463 214.853357,202.719463 L224.886143,202.719463 C225.365348,202.719463 225.753821,203.107082 225.753821,203.585235 C225.753821,204.063387 225.365348,204.451007 224.886143,204.451007 L224.886143,204.451007 Z" id="Shape" fill="#424242"></path>
                        <path d="M11.5340714,204.273826 L1.11385714,204.273826 C0.6346515,204.273826 0.246178571,203.886206 0.246178571,203.408054 C0.246178571,202.929901 0.6346515,202.542282 1.11385714,202.542282 L11.5340714,202.542282 C12.0132771,202.542282 12.40175,202.929901 12.40175,203.408054 C12.40175,203.886206 12.0132771,204.273826 11.5340714,204.273826 L11.5340714,204.273826 Z" id="Shape" fill="#424242"></path>
                        <path d="M27.7415,204.273826 L17.7087143,204.273826 C17.2295086,204.273826 16.8410357,203.886206 16.8410357,203.408054 C16.8410357,202.929901 17.2295086,202.542282 17.7087143,202.542282 L27.7415,202.542282 C28.2207056,202.542282 28.6091786,202.929901 28.6091786,203.408054 C28.6091786,203.886206 28.2207056,204.273826 27.7415,204.273826 L27.7415,204.273826 Z" id="Shape" fill="#424242"></path>
                        <path d="M67.7112143,52.7838926 C67.4932857,52.8805369 67.4287143,53.0416107 67.3157143,53.1624161 C66.9888119,53.5459116 66.5568011,53.8258217 66.0727143,53.9677852 C65.5262639,54.1562798 64.9231911,54.0823283 64.4387425,53.7674202 C63.9542939,53.452512 63.642803,52.9319658 63.5947857,52.357047 C63.3344868,50.6080784 63.8735723,48.8347789 65.0637857,47.5248322 C65.5614152,46.9931319 66.2293757,46.6513408 66.9525,46.5583893 C67.8195137,46.4306461 68.7006292,46.4306461 69.5676429,46.5583893 C69.9033803,46.5603924 70.2168534,46.7263202 70.4067884,47.0025662 C70.5967234,47.2788122 70.6390416,47.6303559 70.5200714,47.9436242 C70.286,49.0872483 70.0277143,50.2147651 69.7936429,51.3583893 C69.7453511,51.5568493 69.7129631,51.7588291 69.6967857,51.9624161 C69.6967857,52.461745 69.9147143,52.6872483 70.4151429,52.6550336 C71.0645347,52.6268399 71.6465922,52.2468625 71.9325714,51.6644295 C72.314635,50.9693009 72.4698216,50.1725499 72.3765,49.3852349 C72.0348065,46.63177 69.6422354,44.594557 66.8633088,44.6908936 C64.0843822,44.7872302 61.8392796,46.9852169 61.6899286,49.7557047 C61.5949304,51.4467044 62.3257037,53.0790792 63.6512857,54.1369128 C64.5270884,54.8386496 65.1341576,55.8197698 65.3705,56.9154362 C65.427,57.1731544 65.5238571,57.2456376 65.7740714,57.2456376 L68.5587143,57.2456376 C68.665146,57.2619941 68.7734518,57.2314372 68.8555407,57.1618922 C68.9376297,57.0923472 68.985414,56.9906661 68.9865,56.8832215 C69.0867392,56.3216967 69.2717983,55.7786013 69.5353571,55.2724832 C69.6208167,55.062865 69.8251317,54.9258925 70.0519286,54.9261745 C70.4797143,54.9261745 70.8590714,54.8134228 71.3272143,54.757047 C71.3675714,54.9342282 71.2303571,55.0067114 71.1577143,55.1033557 C70.5437747,55.8287218 70.2064438,56.747212 70.2052857,57.6966443 C70.2169973,58.1774364 70.1599226,58.6574377 70.0357857,59.1221477 C69.8028285,60.0989257 69.0209397,60.8507837 68.0340714,61.0469799 C67.4327115,61.1980089 66.8032171,61.1980089 66.2018571,61.0469799 C65.1973005,60.8250269 64.4335731,60.0085457 64.2808571,58.9932886 C64.2232131,58.6739944 64.1881503,58.3510497 64.1759286,58.0268456 C64.1329329,56.8861055 63.6151739,55.8149189 62.7472857,55.0711409 C60.7379389,53.3618696 59.9255561,50.632385 60.6741911,48.105853 C61.422826,45.5793211 63.5921133,43.7294543 66.2099286,43.3852349 C69.5687594,42.9224386 72.741686,45.0457753 73.5872143,48.3221477 C73.8168144,49.2750138 73.8168144,50.2686103 73.5872143,51.2214765 C73.2666296,52.8098194 71.8851882,53.9640668 70.2617857,54 L69.9550714,54 C68.9784286,54.0080537 68.0663571,53.9033557 67.7112143,52.7838926 Z M65.7175714,51.4147651 C65.7252968,51.5956168 65.7441658,51.775823 65.7740714,51.9543624 C65.7907381,52.2110099 65.9501638,52.4366819 66.1868105,52.538607 C66.4234571,52.6405322 66.6973906,52.6015107 66.896,52.4375839 C67.3106415,52.2017157 67.6043896,51.8001651 67.7031429,51.3342282 C67.7757857,51.052349 67.8242143,50.7704698 67.8887857,50.4805369 C68.0502143,49.6751678 68.2277857,48.9100671 68.3811429,48.1288591 C68.4345248,47.9736048 68.4118379,47.8023563 68.3198598,47.6662747 C68.2278817,47.5301932 68.0772624,47.445035 67.913,47.4362416 C67.6703915,47.4100498 67.4271207,47.479403 67.235,47.6295302 C66.961717,47.8460333 66.7409845,48.1213426 66.5892857,48.4348993 C66.0966706,49.3655938 65.8207774,50.395167 65.7821429,51.4469799 L65.7175714,51.4147651 Z M68.7685714,58.6630872 L65.8063571,58.6630872 C65.5884286,58.6630872 65.5884286,58.7758389 65.6287857,58.9288591 C65.7371406,59.4054869 66.1004149,59.7834533 66.5731429,59.9114094 C67.0298869,60.0939506 67.5451292,60.0586821 67.9726117,59.8156152 C68.4000942,59.5725484 68.6931426,59.1482223 68.7685714,58.6630872 Z" id="Shape" fill="#FBDF02"></path>
                        <path d="M77.292,54.0080537 C77.2925299,54.2153023 77.19058,54.4094752 77.0195161,54.5270246 C76.8484521,54.6445739 76.6302899,54.670371 76.4364286,54.5959732 C76.1055,54.4751678 75.7907143,54.2979866 75.4597857,54.1449664 C75.1288571,53.9919463 74.8140714,53.8147651 74.4912143,53.6778523 C74.1683571,53.5409396 74.2571429,53.4604027 74.3701429,53.2832215 C74.4831429,53.1060403 74.5719286,52.5825503 74.8463571,52.4778523 C75.1207857,52.3731544 75.3952143,52.6791946 75.6535,52.8 L76.8561429,53.3718121 C77.1232429,53.4685481 77.2986548,53.7246053 77.292,54.0080537 L77.292,54.0080537 Z" id="Shape" fill="#FBDF02"></path>
                        <path d="M62.715,39.9463087 C62.9616878,39.9411183 63.1874813,40.0839123 63.2880714,40.3087248 C63.5867143,40.9530201 63.8853571,41.6134228 64.184,42.2577181 C64.2405,42.3865772 64.2405,42.4751678 64.0952143,42.547651 C63.9499286,42.6201342 63.5625,42.7812081 63.2880714,42.9100671 C63.0136429,43.0389262 63.0378571,42.9100671 62.9652143,42.7812081 C62.6746429,42.1288591 62.3598571,41.4845638 62.0935,40.8241611 C62.0069909,40.6254455 62.0292101,40.3962749 62.1522907,40.2177909 C62.2753713,40.0393069 62.4819397,39.9367034 62.6988571,39.9463087 L62.715,39.9463087 Z" id="Shape" fill="#FBDF02"></path>
                        <path d="M57.517,54.6442953 C57.2212038,54.6675258 56.9453301,54.4938451 56.839,54.2174497 C56.7420211,53.970934 56.8172841,53.6901341 57.0246429,53.5248322 C57.1341038,53.4387545 57.2532978,53.3657735 57.3797857,53.3073826 C57.9125,53.0416107 58.4532857,52.8 58.9940714,52.5020134 C59.2523571,52.3651007 59.3653571,52.4375839 59.4541429,52.6791946 C59.5429286,52.9208054 59.8738571,53.242953 59.7850714,53.4845638 C59.6962857,53.7261745 59.2927143,53.7986577 59.0182857,53.9355705 L57.9125,54.4751678 C57.7916815,54.5543514 57.6577893,54.6116077 57.517,54.6442953 L57.517,54.6442953 Z" id="Shape" fill="#FBDF02"></path>
                        <path d="M77.2758571,46.1637584 C77.308552,46.4510817 77.1325747,46.7212212 76.8561429,46.8080537 C76.2104286,47.0577181 75.5485714,47.2912752 74.8947857,47.5409396 C74.7091429,47.6134228 74.6284286,47.5409396 74.5557857,47.3718121 C74.1360714,46.4295302 74.128,46.4295302 75.0723571,46.0912752 C75.5243571,45.9221477 75.9682857,45.7449664 76.4202857,45.6 C76.6110143,45.5194745 76.829411,45.5390349 77.0027187,45.6521646 C77.1760264,45.7652943 77.2814726,45.9571282 77.2839286,46.1637584 L77.2758571,46.1637584 Z" id="Shape" fill="#FBDF02"></path>
                        <path d="M57.4605,45.5355705 C57.5250714,45.5355705 57.6461429,45.5758389 57.7510714,45.6161074 C58.3483571,45.833557 58.9295,46.0590604 59.5267857,46.2604027 C59.7608571,46.3409396 59.8738571,46.4456376 59.7447143,46.6872483 C59.6155714,46.9288591 59.6155714,47.3637584 59.3734286,47.4926174 C59.1312857,47.6214765 58.8084286,47.3557047 58.5178571,47.2590604 C58.0497143,47.0979866 57.5815714,46.9288591 57.1295714,46.7355705 C56.846961,46.620209 56.6946962,46.3128956 56.7744286,46.0187919 C56.8635896,45.7187779 57.1473276,45.5189324 57.4605,45.5355705 Z" id="Shape" fill="#FBDF02"></path>
                        <path d="M72.2473571,40.6550336 C72.2249229,40.7510914 72.1952431,40.8453197 72.1585714,40.9369128 C71.8922143,41.5248322 71.6177857,42.1127517 71.3514286,42.7087248 C71.2626429,42.9261745 71.1657857,43.0067114 70.9236429,42.8778523 C70.7043752,42.7568969 70.4779598,42.649317 70.2456429,42.5557047 C70.0842143,42.4832215 70.06,42.4026846 70.1326429,42.2416107 C70.4312857,41.5973154 70.6976429,40.9610738 71.0043571,40.3409396 C71.1310396,40.0517544 71.449014,39.8967023 71.7555128,39.9746577 C72.0620115,40.0526131 72.2667992,40.3406255 72.2392857,40.6550336 L72.2473571,40.6550336 Z" id="Shape" fill="#FBDF02"></path>
                        <path d="M93.8222857,5.78255034 C94.2760061,5.6002787 94.7950738,5.70831257 95.1379286,6.05637584 C96.1549286,7.03087248 97.1719286,8.04563758 98.1889286,9.02818792 C98.3826429,9.22147651 98.4472143,9.38255034 98.1889286,9.62416107 C97.7772857,10.0268456 97.3817857,10.4295302 96.9782143,10.8563758 C96.728,11.1221477 96.5262143,11.0738255 96.2921429,10.8563758 C95.2832143,9.85771812 94.2500714,8.88322148 93.2734286,7.8442953 C92.9692144,7.53829135 92.8460329,7.0966368 92.9480876,6.67781826 C93.0501422,6.25899972 93.3627972,5.92308038 93.7738571,5.79060403 L93.8222857,5.78255034 Z" id="Shape" fill="#FBDF02"></path>
                        <path d="M125.252429,6.93422819 C125.520526,7.44174341 125.388251,8.06782369 124.937643,8.42416107 C123.928714,9.35033557 122.855214,10.2604027 121.830143,11.1865772 C121.5315,11.452349 121.337786,11.3718121 121.0795,11.114094 C119.634714,9.66442953 119.6105,9.67248322 121.0795,8.36778523 C121.789786,7.73959732 122.483929,7.09530201 123.218429,6.50738255 C123.516772,6.22774257 123.933968,6.11258917 124.333928,6.19948574 C124.733887,6.2863823 125.065332,6.56418804 125.220143,6.94228188 L125.252429,6.93422819 Z" id="Shape" fill="#FBDF02"></path>
                        <path d="M110.7965,1.19194631 C110.843428,1.38251428 110.875807,1.57635856 110.893357,1.77181208 C110.893357,3.05234899 110.949857,4.3409396 110.998286,5.62147651 C110.998286,6.08053691 110.917571,6.32214765 110.376786,6.28993289 C109.879506,6.2598006 109.380851,6.2598006 108.883571,6.28993289 C108.528429,6.28993289 108.415429,6.17718121 108.407357,5.82281879 C108.407357,4.42147651 108.3105,3.03624161 108.318571,1.66711409 C108.271185,1.02909546 108.70592,0.455171692 109.334008,0.326563787 C109.962097,0.197955882 110.588227,0.554656245 110.7965,1.15973154 L110.7965,1.19194631 Z" id="Shape" fill="#FBDF02"></path>
                    </g>
                </g>
            </g>
        </g>
    </g>
</svg>