<?xml version="1.0" encoding="UTF-8"?>
<svg width="150px" height="64px" viewBox="0 0 150 64" version="1.1" xmlns="http://www.w3.org/2000/svg" xmlns:xlink="http://www.w3.org/1999/xlink">
    <!-- Generator: sketchtool 42 (36781) - http://www.bohemiancoding.com/sketch -->
    <title>FC0030EC-1ECA-48D3-BA33-08F5C2E78C79</title>
    <desc>Created with sketchtool.</desc>
    <defs></defs>
    <g id="grids-GUI" stroke="none" stroke-width="1" fill="none" fill-rule="evenodd">
        <g id="Ahaa-Slider-Xman-Simulation" transform="translate(-565.000000, -16.000000)" fill-rule="nonzero">
            <g id="-g-AHAA-Logo-Light.svg" transform="translate(565.000000, 16.000000)">
                <g id="Layer_1">
                    <path d="M74.8999805,0.0292906178 L147.48255,0.0292906178 C149.890037,0.0292906178 149.588224,-0.258929062 149.588224,2.20148284 L149.588224,61.2513684 L149.588224,62.2636522 C149.651394,63.022865 149.405732,63.4516796 148.556444,63.3743524 C148.170404,63.3392037 147.770326,63.3743524 147.377267,63.3743524 L2.25424059,63.3743524 C-0.286605576,63.3743524 0.0432832911,63.6836613 0.0432832911,61.1178032 C0.0339247417,41.537611 0.029245467,21.9667918 0.029245467,2.40534554 C0.029245467,-0.322196796 -0.3006434,0.0292906178 2.3174108,0.0292906178 L74.8999805,0.0292906178 Z M112.802106,44.5275973 C112.921427,45.0477986 112.963541,45.3078993 113.040749,45.568 C113.918113,48.611881 115.785143,50.0389199 118.936635,50.0529794 C119.544765,50.0715724 120.153311,50.0339207 120.754533,49.9405034 C123.742845,49.5126625 126.349222,47.6853818 127.773445,45.0196796 C128.075258,44.4643295 128.285826,43.8527414 127.731332,43.3184805 C127.258426,42.8735778 126.530206,42.8465651 126.025736,43.2552128 C125.590563,43.5082838 125.176448,43.8105629 124.720218,44.0284851 C122.96549,44.8790847 121.400273,43.9511579 121.273933,42.0039176 C121.227699,41.2735328 121.28202,40.54025 121.435368,39.8246957 C122.031975,37.0127963 122.64262,34.200897 123.22519,31.3889977 C123.786703,28.6966041 124.376292,26.0042105 124.846559,23.2977574 C125.318755,21.2822287 124.139845,19.2475496 122.158315,18.6581236 C121.580911,18.4442288 120.980037,18.3002682 120.368493,18.2293089 C117.805295,17.9455924 115.224693,17.8516074 112.64769,17.948119 C106.246442,18.1449519 101.557809,21.0693272 98.6098655,26.7915423 C96.6576519,30.4152993 95.5581078,34.4379571 95.3952037,38.5523112 C95.3440704,40.3605412 94.736088,42.1087339 93.6545136,43.557492 C93.2088516,44.2094864 92.5670744,44.702029 91.8225775,44.9634416 C90.2292845,45.4977025 88.9799181,44.7103707 88.8676155,43.0302609 C88.8601267,42.1305995 88.9758468,41.2341584 89.2115422,40.3659863 C90.1169819,36.0778398 91.0294404,31.7967231 91.8857477,27.5015469 C92.3770716,25.0270755 91.3663482,23.5016201 88.9167479,22.8759725 C88.3745259,22.7334508 87.8197694,22.6439877 87.2602847,22.6088421 C85.8003509,22.5244851 84.3474361,22.4612174 82.8875024,22.4471579 C75.6159095,22.3698307 71.348411,25.1676705 68.4846949,31.8810801 C67.1141345,35.0357235 66.4481917,38.4521502 66.5334373,41.8914416 C66.5974442,42.7370552 66.3046723,43.570831 65.7262624,44.1901693 C64.9398663,45.1303659 63.6605404,45.4952582 62.4975629,45.1110664 C61.6552934,44.7384897 61.367518,43.8246224 61.5710665,42.299167 C61.9079743,39.8457849 62.6730357,37.4837895 63.206473,35.0725858 C63.6513717,33.3284172 63.8405239,31.5286968 63.767986,29.7299771 C63.7653226,27.1776517 61.7389189,25.0889767 59.1916553,25.013016 C57.3814455,24.8243255 55.5667771,25.326389 54.109963,26.4189657 C53.7730552,26.6650069 53.5624878,27.1219405 52.9167479,27.079762 C53.3238448,24.7388558 53.9415091,22.4682471 54.4889842,20.1906087 C54.9784368,18.5776675 55.2891397,16.9156692 55.4154806,15.2346362 C55.4154806,13.3928421 54.5451355,12.5633318 52.6991616,12.7039268 C50.0460129,12.9007597 48.5860792,14.0747277 48.0105284,16.6827643 C47.1261454,20.5420961 46.3540651,24.4506362 45.5539091,28.3521465 C44.4262039,33.7369336 43.2914798,39.1264073 42.1497368,44.5205675 C42.0954437,45.0225432 41.8415087,45.481441 41.4452823,45.7936203 C41.0490558,46.1057997 40.5439579,46.2449296 40.0440632,46.1795881 C39.0614155,46.0389931 38.542016,45.2938398 38.6402808,44.0706636 C38.7175963,43.4011154 38.834787,42.736792 38.9912264,42.0812449 C39.6603626,38.8381876 40.3365178,35.5951304 41.0196919,32.3520732 C41.3004484,31.0164211 41.0547865,29.8846316 39.8545525,29.1113593 C39.1866232,28.6815114 38.4158917,28.4387687 37.6225385,28.4083844 C35.6616662,28.2802841 33.6945435,28.2802841 31.7336713,28.4083844 C28.7165532,28.5656895 25.946137,30.1259669 24.2444921,32.6262334 C22.3835563,35.3334616 21.2741627,38.4872568 21.0298304,41.7649062 C20.7988756,43.4444386 20.9795482,45.1550333 21.5562488,46.7489977 C22.2304144,48.6503318 23.9867733,49.9536558 25.9992201,50.0459497 C27.9882089,50.2499321 29.9604002,49.5267157 31.3476311,48.0846499 C31.8038604,47.634746 32.2530708,47.1707826 32.7514135,46.6787002 C34.5763307,50.538032 36.7802691,51.0512037 41.4057321,48.7876247 C44.2132969,51.3183341 47.6034315,50.3693181 48.7194385,46.741968 C48.8177033,46.4185995 48.9089491,46.0952311 48.9791382,45.764833 C49.3113667,44.2276613 49.6412556,42.6904897 49.9688048,41.1533181 C50.4952232,38.6858764 50.9865471,36.2324943 51.5620979,33.7439634 C51.8560267,32.2336928 52.7019893,30.8875885 53.9344902,29.9689886 C55.2329889,29.0410618 56.4823552,29.5472037 56.8683954,31.0796888 C56.9941046,31.6938147 56.9988731,32.3266158 56.8824332,32.9425721 C56.5665822,35.178032 55.9769936,37.3502243 55.4786508,39.536476 C55.0379133,41.1645846 54.7743404,42.8356716 54.6925327,44.5205675 C54.6925327,47.3324668 56.1735231,49.3921831 58.6301423,49.8912952 C61.4377072,50.4607048 63.9855722,49.8491167 65.9859622,47.6277162 C66.3930591,47.1707826 66.7861182,46.6997895 67.1791772,46.2217666 C67.5581985,46.4185995 67.6424254,46.7630572 67.8178982,47.0301876 C68.9744944,48.8780812 70.9888923,50.0112747 73.1663092,50.0389199 C75.7816766,50.1665538 78.3129693,49.0955609 80.044843,47.1286041 C80.5010723,46.6505812 80.8099045,46.0179039 81.406512,45.6664165 C81.7153441,45.8983982 81.7153441,46.2569153 81.8206278,46.5591945 C82.6769351,48.9493089 84.0736986,50.0037712 86.5794502,50.0740686 C89.8713199,50.1795149 92.4121661,48.724357 94.4125561,46.2006773 C94.8477286,45.652357 95.2618444,45.0899771 95.6759602,44.5486865 C96.1321895,44.8298764 96.1321895,45.2024531 96.2655488,45.4906728 C97.6693313,48.5204943 100.034705,49.9756522 103.284461,50.0810984 C105.958955,50.1590656 108.546055,49.1231371 110.429713,47.2199908 C111.273364,46.3838185 112.056767,45.488797 112.77403,44.5416568 L112.802106,44.5275973 Z" id="Shape" fill="#FBDF02"></path>
                    <path d="M112.77403,44.5416568 C112.067766,45.4852072 111.296121,46.3778439 110.464808,47.2129611 C108.581149,49.1161073 105.994049,50.1520358 103.319555,50.0740686 C100.041724,49.9756522 97.6552934,48.5134645 96.3006434,45.483643 C96.1672841,45.1954233 96.1672841,44.8158169 95.7110548,44.5416568 C95.3039579,45.0829474 94.8828232,45.6453272 94.4476506,46.1936476 C92.4472607,48.7173272 89.9134334,50.1724851 86.6145447,50.0670389 C84.115812,49.9897117 82.7120296,48.9352494 81.8557224,46.5521648 C81.7504387,46.2569153 81.7574576,45.8913684 81.4416066,45.6593867 C80.844999,46.0108741 80.5431858,46.6435515 80.0799376,47.1215744 C78.3547984,49.1015667 75.8225316,50.1859114 73.2014038,50.0670389 C71.0239869,50.0393936 69.009589,48.9062002 67.8529928,47.0583066 C67.67752,46.7911762 67.593293,46.4467185 67.2142718,46.2498856 C66.8212127,46.7068192 66.4281536,47.1778124 66.0210567,47.6558352 C64.0206668,49.8772357 61.5008774,50.4677346 58.6652369,49.9194142 C56.2086177,49.4203021 54.7206083,47.3535561 54.7276272,44.5486865 C54.7959445,42.855635 55.047764,41.1750326 55.4786508,39.536476 C55.9629557,37.3431945 56.5525444,35.1710023 56.8403198,32.9425721 C56.944764,32.3316477 56.9304646,31.7062734 56.7982063,31.100778 C56.4121661,29.5682929 55.1627998,29.062151 53.864301,29.9900778 C52.6355933,30.9128287 51.7946763,32.2613757 51.5059466,33.7720824 C50.9303958,36.2324943 50.4390719,38.6929062 49.9126535,41.1814371 C49.5851043,42.7186087 49.2552154,44.2557803 48.9229869,45.7929519 C48.8527978,46.1233501 48.761552,46.4467185 48.6632872,46.770087 C47.5472802,50.3974371 44.1571456,51.3394233 41.3495808,48.8157437 C36.7241178,51.0652632 34.5201794,50.5520915 32.6952622,46.7068192 C32.2109573,47.1918719 31.7687658,47.6558352 31.2914798,48.1127689 C29.9117884,49.5282454 27.9648313,50.2394388 25.9992201,50.0459497 C23.9778087,49.948113 22.2189248,48.6290007 21.5562488,46.713849 C20.9795482,45.1198845 20.7988756,43.4092898 21.0298304,41.7297574 C21.2741627,38.4521081 22.3835563,35.2983129 24.2444921,32.5910847 C25.946137,30.0908182 28.7165532,28.5305407 31.7336713,28.3732357 C33.6945435,28.2451354 35.6616662,28.2451354 37.6225385,28.3732357 C38.4158917,28.40362 39.1866232,28.6463626 39.8545525,29.0762105 C41.0618054,29.8565126 41.3004484,30.9883021 41.0196919,32.3169245 C40.3365178,35.5599817 39.6603626,38.8030389 38.9912264,42.0460961 C38.834787,42.7016433 38.7175963,43.3659666 38.6402808,44.0355149 C38.5349971,45.2868101 39.0543966,46.0319634 40.0440632,46.1444394 C40.5439579,46.2097809 41.0490558,46.070651 41.4452823,45.7584716 C41.8415087,45.4462922 42.0954437,44.9873945 42.1497368,44.4854188 C43.2914798,39.1053181 44.4262039,33.7158444 45.5539091,28.3169977 C46.3540651,24.4506362 47.1261454,20.5420961 47.9894716,16.6476156 C48.5650224,14.0395789 50.031975,12.865611 52.6781049,12.668778 C54.5310977,12.5281831 55.4295184,13.3717529 55.3944239,15.1994874 C55.268083,16.8805205 54.95738,18.5425187 54.4679275,20.15546 C53.9204523,22.4401281 53.3027881,24.7037071 52.8956912,27.0446133 C53.5414311,27.0938215 53.7519984,26.6228284 54.0889062,26.3838169 C55.5457204,25.2912403 57.3603888,24.7891768 59.1705986,24.9778673 C61.7178622,25.053828 63.7442658,27.1425029 63.7469292,29.6948284 C63.8194671,31.493548 63.6303149,33.2932685 63.1854163,35.0374371 C62.6589979,37.4486407 61.8939364,39.8106362 61.5500097,42.2640183 C61.3394424,43.7894737 61.6342367,44.6963112 62.4765061,45.0759176 C63.6289722,45.4554937 64.8962073,45.100009 65.684149,44.1761098 C66.2625588,43.5567715 66.5553307,42.7229957 66.4913238,41.8773822 C66.4060782,38.4380907 67.072021,35.021664 68.4425814,31.8670206 C71.3062975,25.1465812 75.5737961,22.3557712 82.845389,22.4330984 C84.3053227,22.4330984 85.7652564,22.5174554 87.2181712,22.5947826 C87.7776559,22.6299282 88.3324124,22.7193913 88.8746344,22.861913 C91.3242347,23.4875606 92.3349581,25.0200458 91.8436342,27.4874874 C90.987327,31.7826636 90.0748684,36.0637803 89.1694287,40.3519268 C88.9337333,41.2200989 88.8180133,42.11654 88.825502,43.0162014 C88.9378046,44.6963112 90.1801521,45.483643 91.780464,44.9493822 C92.524961,44.6879695 93.1667382,44.1954269 93.6124001,43.5434325 C94.6939746,42.0946744 95.301957,40.3464817 95.3530903,38.5382517 C95.5159944,34.4238976 96.6155385,30.4012398 98.567752,26.7774828 C101.529733,21.0622975 106.218366,18.1379222 112.605576,17.9340595 C115.18258,17.8375479 117.763181,17.9315329 120.326379,18.2152494 C120.937923,18.2862087 121.538798,18.4301693 122.116202,18.6440641 C124.112369,19.2217237 125.306571,21.2645811 124.832521,23.2907277 C124.362254,25.9971808 123.772665,28.6895744 123.211152,31.381968 C122.628583,34.1938673 122.024956,37.0057666 121.42133,39.8176659 C121.267982,40.5332202 121.213661,41.2665031 121.259895,41.9968879 C121.379216,43.9441281 122.951453,44.8720549 124.706181,44.0214554 C125.16241,43.8035332 125.569507,43.501254 126.011698,43.2481831 C126.516168,42.8395353 127.244388,42.8665481 127.717294,43.3114508 C128.271788,43.8457117 128.061221,44.4572998 127.759407,45.0126499 C126.335184,47.678352 123.728807,49.5056328 120.740495,49.9334737 C120.130692,50.0356903 119.512662,50.0804078 118.894521,50.0670389 C115.736011,50.0670389 113.875999,48.6259405 112.998635,45.5820595 C112.942484,45.3219588 112.893352,45.0618581 112.77403,44.5416568 Z M104.519789,38.8756796 C104.455528,39.9458862 104.591209,41.0187065 104.919867,42.0390664 C105.2165,43.3087646 106.44144,44.1338083 107.727432,43.9300686 C108.57181,43.8760191 109.377554,43.5561762 110.029635,43.0162014 C111.387434,41.9789311 112.316796,40.4776453 112.640671,38.7983524 C113.644375,34.200897 114.641061,29.6034416 115.574576,24.984897 C116.00273,22.8759725 114.486645,21.5051716 112.38799,22.0042838 C111.623939,22.2014547 110.918537,22.580018 110.331449,23.1079542 C109.396306,23.936864 108.620772,24.9304133 108.043283,26.0393593 C105.913906,29.9958995 104.709133,34.3849662 104.519789,38.8756796 L104.519789,38.8756796 Z M74.4297134,40.3659863 C74.4387206,41.0714347 74.4902866,41.7756932 74.5841295,42.4749108 C74.9982453,44.7244302 76.6898031,45.483643 78.7042308,44.3167048 C80.1667299,43.421183 81.1683153,41.9331614 81.4486255,40.2394508 C82.2979138,36.4152677 83.0559563,32.5629657 83.9052447,28.7387826 C84.361474,26.6650069 82.8945213,25.4488604 80.7748099,26.1166865 C80.1386236,26.3470053 79.5661005,26.7252611 79.1043088,27.220357 C78.3488855,27.9753714 77.7186154,28.8462971 77.2372782,29.8002746 C75.5572599,33.0803687 74.5998376,36.683437 74.4297134,40.3659863 L74.4297134,40.3659863 Z M33.0181322,31.0164211 C32.0495223,31.0164211 31.1440827,31.5506819 30.2596997,32.7246499 C28.9438369,34.6225194 28.0465758,36.7792707 27.6276077,39.0514233 C27.2316499,40.6897682 27.1553846,42.3892898 27.4030025,44.0566041 C27.6767401,45.7929519 28.9541821,46.3834508 30.5053617,45.5609703 C31.6438289,44.9142778 32.4531183,43.8122518 32.7303568,42.5311487 C32.954962,41.7227277 33.0883213,40.8861876 33.2637941,40.0637071 C33.7410801,37.8141876 34.2394229,35.5716979 34.6675765,33.3151487 C34.9693897,31.8389016 34.3727822,31.0164211 33.0672646,31.0164211 L33.0181322,31.0164211 Z" id="Shape" fill="#21201B"></path>
                    <path d="M104.519789,38.8756796 C104.702693,34.3812862 105.902711,29.9872447 108.029245,26.0252998 C108.611019,24.9314172 109.386322,23.9524553 110.317411,23.1360732 C110.904499,22.608137 111.609901,22.2295736 112.373952,22.0324027 C114.479626,21.5403204 115.988692,22.9040915 115.560538,25.013016 C114.627023,29.6245309 113.630337,34.2219863 112.626633,38.8264714 C112.302758,40.5057643 111.373396,42.00705 110.015598,43.0443204 C109.363516,43.5842952 108.557772,43.9041381 107.713394,43.9581876 C106.427402,44.1619273 105.202462,43.3368836 104.90583,42.0671854 C104.578426,41.0370159 104.447468,39.9543486 104.519789,38.8756796 L104.519789,38.8756796 Z" id="Shape" fill="#FBDF02"></path>
                    <path d="M74.4297134,40.3659863 C74.6028226,36.6906152 75.5601627,33.0950474 77.2372782,29.8213638 C77.7192503,28.8698748 78.3494917,28.0013617 79.1043088,27.248476 C79.5661005,26.7533801 80.1386236,26.3751243 80.7748099,26.1448055 C82.8804835,25.4418307 84.3684929,26.6931259 83.9052447,28.7669016 C83.0559563,32.5910847 82.2979138,36.4433867 81.4486255,40.2675698 C81.1623702,41.9496858 80.1643967,43.4258915 78.7112498,44.3167048 C76.7178787,45.4766133 75.0122831,44.7244302 74.5911484,42.4749108 C74.4949575,41.775836 74.4410475,41.0715768 74.4297134,40.3659863 L74.4297134,40.3659863 Z" id="Shape" fill="#FBDF02"></path>
                    <path d="M33.0672646,31.0164211 C34.3727822,31.0164211 34.9764087,31.8389016 34.6745954,33.3221785 C34.2183662,35.5787277 33.7200234,37.8212174 33.270813,40.0707368 C33.0953402,40.8932174 32.9619809,41.7297574 32.7373757,42.5381785 C32.4601372,43.8192816 31.6508478,44.9213076 30.5123806,45.568 C28.9682199,46.3904805 27.7048158,45.7929519 27.4100214,44.0636339 C27.1867169,42.3890455 27.2892068,40.6869963 27.7118347,39.0514233 C28.1308027,36.7792707 29.0280639,34.6225194 30.3439267,32.7246499 C31.1932151,31.5506819 32.0986547,31.0164211 33.0672646,31.0164211 Z" id="Shape" fill="#FBDF02"></path>
                </g>
            </g>
        </g>
    </g>
</svg>