<?xml version="1.0" encoding="UTF-8" standalone="no"?>
<svg width="76px" height="76px" viewBox="0 0 76 76" version="1.1" xmlns="http://www.w3.org/2000/svg" xmlns:xlink="http://www.w3.org/1999/xlink">
    <!-- Generator: sketchtool 42 (36781) - http://www.bohemiancoding.com/sketch -->
    <title>7C35563F-2F78-4367-8420-E9B99A030CE7</title>
    <desc>Created with sketchtool.</desc>
    <defs></defs>
    <g id="Page-1" stroke="none" stroke-width="1" fill="none" fill-rule="evenodd">
        <g id="LOGIN" transform="translate(-1151.000000, -238.000000)">
            <g id="-g-Logo" transform="translate(1151.000000, 238.000000)">
                <path d="M62.7319149,0 L12.8680851,0 C5.76651064,0 0,5.73708967 0,12.8024316 L0,62.4118541 C0,69.477196 5.76651064,75.2142857 12.8680851,75.2142857 L62.7319149,75.2142857 C69.8334894,75.2142857 75.6,69.477196 75.6,62.4118541 L75.6,12.8024316 C75.6,5.73708967 69.8334894,0 62.7319149,0 Z" id="-g-Afgeronde-rechthoek-1" fill="#FFFFFF"></path>
                <g id="Logo-Badr-04.svg" transform="translate(25.200000, 18.107143)" fill="#00B3FF">
                    <g id="Layer_1">
                        <g id="Group">
                            <path d="M14.5327,0.0475037594 C16.4003,0.114140977 18.2497,0.287661654 20.0781,0.685505639 C22.7556,1.26742669 24.689,2.76907331 26.1317,4.90542293 C26.9752,6.15569549 27.5002,7.51944925 27.6633,8.99272556 C27.8803,10.9430188 27.4099,12.7540996 26.3375,14.4299267 C25.5514,15.660406 24.5049,16.6705207 23.3191,17.5585771 C23.0475,17.7617876 23.0475,17.7551898 23.3576,17.9339887 C24.8836,18.8174267 26.2234,19.8921992 27.2265,21.3067556 C28.3857,22.9410169 28.8848,24.7501184 28.7266,26.7010714 C28.5411,28.9733346 27.5975,30.9684925 26.1317,32.7663778 C24.4545,34.8255338 22.1942,35.9233985 19.5447,36.4096523 C17.9193,36.7078703 16.2771,36.8602782 14.623,36.9255959 C10.4062,37.0925188 6.1866,36.9796974 1.9684,37.0093872 C1.5295,37.0126861 1.0976,36.9420902 0.7189,36.7091898 C0.1666,36.3680865 0.0546,35.8277312 0.0042,35.2636241 C-0.0028,35.1969868 0.0021,35.1296898 0.0021,35.0623929 C0.0021,24.0250263 0.0028,12.987 0.0021,1.94963346 C0.0021,1.65471429 0.0273,1.36243421 0.1204,1.08071053 C0.3276,0.455244361 0.8351,0.0884097744 1.5386,0.046843985 C3.6302,0.0475037594 5.7225,0.0494830827 7.8141,0.0501428571 C7.8841,0.0501428571 7.959,0.0633383459 8.0108,0 L13.034,0 C13.0739,0.0415657895 13.1271,0.0435451128 13.1803,0.0435451128 C13.6318,0.0448646617 14.0812,0.0461842105 14.5327,0.0475037594 Z M7.798,18.3450282 L7.8036,18.3450282 L7.8036,30.3575414 C7.8036,30.6887481 7.8043,30.6953459 8.1655,30.6847895 C9.1707,30.6564192 10.1759,30.6913872 11.1811,30.6399248 C12.1387,30.5911015 13.0991,30.6518008 14.0574,30.577906 C15.1459,30.4934549 16.2344,30.4360545 17.3152,30.2724305 C18.4975,30.092312 19.46,29.5809868 20.1579,28.6566429 C20.7466,27.8741504 21.0847,27.0058872 21.1722,26.0445959 C21.2506,25.1849098 21.1379,24.3641504 20.6283,23.6357594 C19.9325,22.6401598 18.9756,21.9368402 17.7968,21.5013891 C16.8595,21.1550075 15.8802,21.1028853 14.8862,21.1055244 C13.8208,21.1088233 13.1306,20.4919342 13.1005,19.495015 C13.0725,18.6056391 13.0725,17.7149436 13.0977,16.8262274 C13.1229,15.9104605 13.979,15.1754718 14.9555,15.1556786 C15.3699,15.1477613 15.7871,15.1088346 16.1966,15.0336203 C17.5238,14.7928026 18.4674,14.034062 19.1989,13.0153703 C20.1201,11.7301297 20.1474,10.3505414 19.5342,8.96105639 C18.9189,7.56959211 17.8633,6.63205263 16.2323,6.35032895 C15.197,6.17153008 14.1554,6.06398684 13.1068,6.04881203 C11.487,6.0263797 9.8651,6.04023496 8.2453,6.03693609 C7.798,6.03627632 7.798,6.03297744 7.798,6.45919173 L7.798,18.3450282 Z" id="Shape"></path>
                            <path d="M8.0108,0 C7.959,0.0626785714 7.8834,0.0501428571 7.8141,0.0501428571 C5.7225,0.0494830827 3.6309,0.0475037594 1.5386,0.046843985 C1.5442,0.0316691729 1.547,0.0158345865 1.5456,0 L8.0108,0 Z" id="Shape"></path>
                            <path d="M14.5327,0.0475037594 C14.0812,0.0461842105 13.6318,0.0448646617 13.1803,0.0435451128 C13.1271,0.0435451128 13.0739,0.0415657895 13.034,-1.38777878e-17 L14.5313,-1.38777878e-17 C14.5285,0.0158345865 14.5285,0.0316691729 14.5327,0.0475037594 Z" id="Shape"></path>
                        </g>
                    </g>
                </g>
            </g>
        </g>
    </g>
</svg>