<?xml version="1.0" encoding="UTF-8" standalone="no"?>
<svg width="20px" height="20px" viewBox="0 0 20 20" version="1.1" xmlns="http://www.w3.org/2000/svg" xmlns:xlink="http://www.w3.org/1999/xlink">
    <!-- Generator: sketchtool 42 (36781) - http://www.bohemiancoding.com/sketch -->
    <title>B0D10E76-7FA1-477E-BA04-BD95C07B8F08</title>
    <desc>Created with sketchtool.</desc>
    <defs></defs>
    <g id="Symbols" stroke="none" stroke-width="1" fill="none" fill-rule="evenodd" opacity="0.2">
        <g id="Progress-Dev" transform="translate(-513.000000, -22.000000)" fill="#000000">
            <g id="search" transform="translate(502.000000, 13.000000)">
                <path d="M25.2961692,16.4221028 L24.3882218,16.4221028 L24.0726129,16.7354068 C25.1875357,18.035504 25.8656375,19.7209422 25.8656375,21.5676062 C25.8656375,25.6725745 22.5380217,29 18.4328188,29 C14.3276158,29 11,25.6725745 11,21.5676062 C11,17.4626379 14.3276158,14.1352124 18.4328188,14.1352124 C20.2795883,14.1352124 21.9639794,14.812132 23.2641509,15.9258476 L23.5797599,15.6125436 L23.5797599,14.706935 L29.2950257,9 L31,10.7048768 L25.2961692,16.4221028 L25.2961692,16.4221028 Z M18.4328188,16.4221028 C15.5900515,16.4221028 13.2870212,18.7250014 13.2870212,21.5676062 C13.2870212,24.4090675 15.5900515,26.7131096 18.4328188,26.7131096 C21.2744425,26.7131096 23.5786164,24.4090675 23.5786164,21.5676062 C23.5786164,18.7250014 21.2744425,16.4221028 18.4328188,16.4221028 L18.4328188,16.4221028 Z" id="-g-Shape" transform="translate(21.000000, 19.000000) scale(1, -1) translate(-21.000000, -19.000000) "></path>
            </g>
        </g>
    </g>
</svg>