<?xml version="1.0" encoding="UTF-8"?>
<svg width="316px" height="336px" viewBox="0 0 316 336" version="1.1" xmlns="http://www.w3.org/2000/svg" xmlns:xlink="http://www.w3.org/1999/xlink">
    <!-- Generator: sketchtool 42 (36781) - http://www.bohemiancoding.com/sketch -->
    <title>801AD504-9157-4A33-8FB9-552B6019F758</title>
    <desc>Created with sketchtool.</desc>
    <defs></defs>
    <g id="grids-GUI" stroke="none" stroke-width="1" fill="none" fill-rule="evenodd">
        <g id="Ahaa-Slider-Xman-Simulation" transform="translate(-722.000000, -143.000000)" fill-rule="nonzero">
            <g id="-g-01_productive_social_media.svg" transform="translate(722.000000, 143.000000)">
                <g id="01_productive_social_media">
                    <g id="Layer_4">
                        <path d="M283.835714,283.852349 C213.935404,352.391106 101.97431,352.391106 32.074,283.852349 L283.835714,283.852349 Z" id="Shape" fill="#FBDF02"></path>
                        <path d="M125.745429,103.17906 C125.745429,103.17906 125.745429,124.387651 137.618,124.387651 L169.613,124.387651 C169.613,124.387651 175.323571,124.590604 175.323571,115.886174 C175.323571,107.181745 167.186571,109.87651 167.186571,109.87651 L140.800571,109.87651 C140.800571,109.87651 128.803857,110.981477 125.745429,103.17906 Z" id="Shape" fill="#FBDF02"></path>
                        <path d="M115.475429,134.997584 C115.477132,137.394207 115.135084,139.778708 114.459714,142.078389 L112.496,134.997584 L88.0285714,134.997584 L86.0084286,130.656644 L83.5142857,136.05745 L74.4857143,136.05745 L74.4857143,139.496376 C70.3551429,139.76698 68.5607143,143.871141 67.8384286,146.385503 C63.1185294,137.104443 64.608543,125.877639 71.5863311,118.146187 C78.5641193,110.414736 89.5878361,107.776214 99.3148132,111.509387 C109.04179,115.24256 115.462107,124.57603 115.464143,134.986309 L115.475429,134.997584 Z" id="Shape" fill="#FBDF02"></path>
                        <ellipse id="Oval" fill="#FBDF02" cx="203.413714" cy="136.587383" rx="16.6464286" ry="16.6308725"></ellipse>
                        <ellipse id="Oval" fill="#FBDF02" cx="226.538143" cy="140.46604" rx="10.5634286" ry="10.553557"></ellipse>
                        <path d="M186.767286,137.658523 L186.902714,160.084832 C186.902714,160.084832 186.564143,167.255839 181.417857,167.255839 C181.417857,167.255839 197.409714,168.969664 197.409714,163.117852 C197.409714,157.26604 196.506857,153.060403 201.100143,153.060403 C205.693429,153.060403 186.767286,137.658523 186.767286,137.658523 Z" id="Shape" fill="#FBDF02"></path>
                        <polygon id="Shape" fill="#FBDF02" points="23.7564286 119.753557 15.405 124.308725 23.7564286 128.875168 28.3271429 137.218792 32.8865714 128.875168 41.238 124.308725 32.8865714 119.753557 28.3271429 111.409933"></polygon>
                        <polygon id="Shape" fill="#FBDF02" points="47.2758571 139.507651 42.344 142.202416 47.2758571 144.897181 49.9731429 149.82443 52.6591429 144.897181 57.591 142.202416 52.6591429 139.507651 49.9731429 134.591678"></polygon>
                        <polygon id="Shape" fill="#FBDF02" points="279.648714 126.721611 286.77 130.611544 279.648714 134.501477 275.755143 141.616107 271.861571 134.501477 264.740286 130.611544 271.861571 126.721611 275.755143 119.60698"></polygon>
                        <polygon id="Shape" fill="#FBDF02" points="259.605286 143.566711 263.803571 145.85557 259.605286 148.155705 257.303 152.350067 255.012 148.155705 250.813714 145.85557 255.012 143.566711 257.303 139.372349"></polygon>
                        <path d="M187.760429,236.462819 L194.035286,283.818523 L242.338143,284.94604 L247.981,237.150604 C247.981,237.150604 210.219,241.559195 187.760429,236.462819 Z" id="Shape" fill="#FBDF02"></path>
                        <polygon id="Shape" fill="#FBDF02" points="140.541 161.234899 149.547 244.129933 156.160429 161.234899"></polygon>
                        <path d="M111.728571,225.943087 C80.0382857,230.16 60.0061429,221.06094 60.0061429,221.06094 C56.8912857,249.451812 65.4571429,284.776913 65.4571429,284.776913 L83.5142857,284.867114 C80.6477143,278.868725 79.9818571,271.697718 82.8935714,266.071409 C84.8347143,261.955973 89.9245714,260.501477 94.7774286,261.707919 C95.394484,261.79885 95.977588,262.047409 96.4702857,262.42953 C101.989,268.653423 99.2014286,277.256376 99.3707143,284.979866 L119.685,285.081342 C111.198143,265.924832 111.728571,225.943087 111.728571,225.943087 Z" id="Shape" fill="#FBDF02"></path>
                        <path d="M155.641286,146.915436 C156.440532,146.922672 157.170891,147.368895 157.541498,148.076399 C157.912104,148.783903 157.86277,149.637784 157.413143,150.297987 C156.298052,151.870269 154.489049,152.804699 152.560286,152.804699 C150.631523,152.804699 148.822519,151.870269 147.707429,150.297987 C147.257801,149.637784 147.208467,148.783903 147.579074,148.076399 C147.94968,147.368895 148.680039,146.922672 149.479286,146.915436 L155.641286,146.915436 Z" id="Shape" fill="#FBDF02"></path>
                        <path d="M220.940429,167.030336 C221.291288,167.02912 221.613409,167.2239 221.775056,167.535016 C221.936702,167.846132 221.910767,168.221413 221.707857,168.507383 C221.228504,169.191917 220.444923,169.599643 219.608714,169.599643 C218.772506,169.599643 217.988925,169.191917 217.509571,168.507383 C217.306661,168.221413 217.280726,167.846132 217.442373,167.535016 C217.604019,167.2239 217.92614,167.02912 218.277,167.030336 L220.940429,167.030336 Z" id="Shape" fill="#FBDF02"></path>
                        <path d="M95.5787143,153.55651 C95.9295741,153.555295 96.2516951,153.750074 96.4133416,154.061191 C96.5749882,154.372307 96.5490531,154.747588 96.3461429,155.033557 C95.8667898,155.718092 95.0832082,156.125818 94.247,156.125818 C93.4107918,156.125818 92.6272102,155.718092 92.1478571,155.033557 C91.9449469,154.747588 91.9190118,154.372307 92.0806584,154.061191 C92.2423049,153.750074 92.5644259,153.555295 92.9152857,153.55651 L95.5787143,153.55651 Z" id="Shape" fill="#FBDF02"></path>
                        <path d="M79.553,147.546846 C79.4415644,147.559759 79.3363309,147.492846 79.3008556,147.38652 C79.2653803,147.280194 79.309382,147.163582 79.4062857,147.107114 L87.7238571,140.714094 C87.7924011,140.661727 87.8837019,140.649871 87.9633674,140.682993 C88.043033,140.716115 88.0989602,140.789182 88.1100817,140.874671 C88.1212033,140.96016 88.0858297,141.045083 88.0172857,141.09745 L79.6997143,147.49047 C79.658653,147.525389 79.6069001,147.545276 79.553,147.546846 Z" id="Shape" fill="#000000"></path>
                        <path d="M83.7061429,147.546846 C83.5998333,147.555858 83.5006013,147.49279 83.4637175,147.392771 C83.4268336,147.292751 83.4613915,147.180438 83.5481429,147.118389 L86.584,144.626577 C86.650528,144.572196 86.7410414,144.557405 86.8214449,144.587775 C86.9018484,144.618146 86.9599266,144.689064 86.9738021,144.773816 C86.9876776,144.858567 86.9552423,144.944277 86.8887143,144.998658 L83.8528571,147.49047 C83.8117958,147.525389 83.760043,147.545276 83.7061429,147.546846 L83.7061429,147.546846 Z" id="Shape" fill="#000000"></path>
                        <path d="M99.8334286,147.546846 C99.721993,147.559759 99.6167595,147.492846 99.5812842,147.38652 C99.5458089,147.280194 99.5898106,147.163582 99.6867143,147.107114 L108.004286,140.714094 C108.07283,140.661727 108.16413,140.649871 108.243796,140.682993 C108.323462,140.716115 108.379389,140.789182 108.39051,140.874671 C108.401632,140.96016 108.366258,141.045083 108.297714,141.09745 L99.9801429,147.49047 C99.9390816,147.525389 99.8873287,147.545276 99.8334286,147.546846 L99.8334286,147.546846 Z" id="Shape" fill="#000000"></path>
                        <path d="M103.997857,147.546846 C103.891548,147.555858 103.792316,147.49279 103.755432,147.392771 C103.718548,147.292751 103.753106,147.180438 103.839857,147.118389 L106.875714,144.626577 C106.942242,144.572196 107.032756,144.557405 107.113159,144.587775 C107.193563,144.618146 107.251641,144.689064 107.265516,144.773816 C107.279392,144.858567 107.246957,144.944277 107.180429,144.998658 L104.144571,147.49047 C104.10351,147.525389 104.051757,147.545276 103.997857,147.546846 Z" id="Shape" fill="#000000"></path>
                        <path d="M8.848,268.664698 C8.28060632,268.670053 7.77213183,268.315636 7.58128816,267.781773 C7.3904445,267.24791 7.55915163,266.651868 8.00157143,266.296913 L21.4428571,255.326174 C21.9723865,254.894775 22.7427939,254.933746 23.226,255.416376 L32.6157143,264.797315 L39.1614286,259.39651 C39.6928415,258.958214 40.471163,258.997338 40.9558571,259.486711 L46.8018571,265.327248 C47.325423,265.847211 47.3279494,266.692762 46.8074999,267.215839 C46.2870505,267.738916 45.4407088,267.74144 44.9171429,267.221477 L39.9288571,262.237852 L33.3831429,267.638658 C32.8517299,268.076954 32.0734084,268.037829 31.5887143,267.548456 L22.1877143,258.201342 L9.68314286,268.348993 C9.44942306,268.547112 9.15445142,268.658619 8.848,268.664698 Z" id="Shape" fill="#FBDF02"></path>
                        <path d="M261.828571,268.664698 C261.261178,268.670053 260.752703,268.315636 260.56186,267.781773 C260.371016,267.24791 260.539723,266.651868 260.982143,266.296913 L274.412143,255.314899 C274.941672,254.883499 275.71208,254.922471 276.195286,255.405101 L285.585,264.78604 L292.130714,259.385235 C292.662127,258.946939 293.440449,258.986063 293.925143,259.475436 L299.771143,265.315973 C300.192518,265.836859 300.160659,266.589476 299.696769,267.072958 C299.232879,267.556441 298.481579,267.62006 297.942857,267.221477 L292.954571,262.237852 L286.408857,267.638658 C285.877444,268.076954 285.099123,268.037829 284.614429,267.548456 L275.168286,258.201342 L262.675,268.348993 C262.4383,268.549554 262.138917,268.661219 261.828571,268.664698 L261.828571,268.664698 Z" id="Shape" fill="#FBDF02"></path>
                        <path d="M206.393143,48.1224161 C205.825749,48.1277715 205.317275,47.773354 205.126431,47.2394911 C204.935587,46.7056282 205.104294,46.1095861 205.546714,45.7546309 L218.942857,34.7726174 C219.472387,34.3412175 220.242794,34.380189 220.726,34.8628188 L230.115714,44.2437584 L236.661429,38.842953 C237.192842,38.404657 237.971163,38.4437813 238.455857,38.9331544 L244.301857,44.7736913 C244.822307,45.2936544 244.822307,46.1366812 244.301857,46.6566443 C243.781408,47.1766074 242.937592,47.1766074 242.417143,46.6566443 L237.462714,41.7181208 L230.917,47.1189262 C230.385587,47.5572222 229.607266,47.5180979 229.122571,47.0287248 L219.721571,37.6365101 L207.228286,47.8518121 C206.988525,48.0337351 206.694138,48.129123 206.393143,48.1224161 Z" id="Shape" fill="#FBDF02"></path>
                        <path d="M157.526,161.234899 L148.136286,161.234899 C136.841144,161.222471 127.687725,152.077606 127.675286,140.79302 L127.675286,131.412081 C127.67631,126.126463 129.741278,121.049771 133.431,117.261745 C133.895353,116.782258 134.66085,116.769638 135.140786,117.233557 C135.620721,117.697476 135.633353,118.462258 135.169,118.941745 C131.909655,122.289235 130.087403,126.775878 130.090429,131.445906 L130.090429,140.826846 C130.090429,150.790211 138.174887,158.867114 148.147571,158.867114 L157.537286,158.867114 C167.50997,158.867114 175.594429,150.790211 175.594429,140.826846 L175.594429,131.445906 C175.604932,127.498532 174.302873,123.65946 171.892714,120.531544 C171.484458,119.999126 171.585513,119.236869 172.118429,118.828993 C172.651344,118.421118 173.414315,118.522079 173.822571,119.054497 C176.564367,122.607546 178.045299,126.970825 178.032143,131.457181 L178.032143,140.838121 C177.99481,152.122691 168.82118,161.247396 157.526,161.234899 Z" id="Shape" fill="#424242"></path>
                        <path d="M97.9487143,160.107383 L90.2857143,160.107383 C80.9891359,160.070305 73.4619697,152.550173 73.4248571,143.262282 L73.4248571,135.640268 C73.4248571,134.970855 73.9680317,134.428188 74.6380714,134.428188 C75.3081112,134.428188 75.8512857,134.970855 75.8512857,135.640268 L75.8512857,143.262282 C75.8422959,147.093848 77.3587318,150.771723 80.0663623,153.485283 C82.7739928,156.198843 86.4505553,157.725339 90.2857143,157.728322 L97.9148571,157.728322 C105.884193,157.722104 112.343062,151.269271 112.349286,143.307383 L112.349286,135.685369 C112.349286,135.015956 112.89246,134.473289 113.5625,134.473289 C114.23254,134.473289 114.775714,135.015956 114.775714,135.685369 L114.775714,143.307383 C114.714106,152.564544 107.214573,160.052043 97.9487143,160.107383 Z" id="Shape" fill="#424242"></path>
                        <path d="M123.070714,286.27651 C122.48059,286.272977 121.979463,285.843841 121.885714,285.261745 C121.795429,284.776913 112.473429,236.395168 116.378286,198.612081 C117.026687,190.847284 118.908634,183.235186 121.953429,176.061745 C123.924581,171.476083 126.821428,167.345984 130.462857,163.929664 C136.331429,158.630336 141.748571,158.292081 141.951714,158.235705 C142.383138,158.207507 142.796847,158.411398 143.037002,158.770574 C143.277156,159.12975 143.307271,159.589644 143.116002,159.977017 C142.924733,160.364391 142.541138,160.620393 142.109714,160.648591 L142.109714,160.648591 C138.272012,161.318096 134.729249,163.138948 131.952571,165.868993 C123.014286,174.032215 119.876857,188.295302 118.782143,198.89396 C114.922429,236.327517 124.165429,284.348456 124.267,284.833289 C124.329844,285.148927 124.263857,285.476568 124.083711,285.743359 C123.903565,286.010149 123.624192,286.193975 123.307714,286.25396 L123.070714,286.27651 Z" id="Shape" fill="#424242"></path>
                        <path d="M182.140143,286.27651 L181.903143,286.27651 C181.586665,286.216525 181.307293,286.0327 181.127146,285.765909 C180.947,285.499118 180.881013,285.171477 180.943857,284.855839 C181.034143,284.371007 190.288429,236.372617 186.428714,198.91651 C185.300143,188.351678 182.174,174.111141 173.280857,165.902819 C170.50418,163.172773 166.961417,161.351922 163.123714,160.682416 C162.456791,160.638826 161.951512,160.063347 161.995143,159.397047 C162.038773,158.730747 162.614791,158.225941 163.281714,158.26953 C163.507429,158.26953 168.924571,158.675436 174.770571,163.96349 C178.412001,167.37981 181.308848,171.509909 183.28,176.09557 C186.324977,183.26895 188.206931,190.881078 188.855143,198.645906 C192.76,236.440268 183.438,284.810738 183.347714,285.29557 C183.237904,285.872657 182.728023,286.286846 182.140143,286.27651 L182.140143,286.27651 Z" id="Shape" fill="#424242"></path>
                        <path d="M68.1657143,286.27651 C67.57494,286.279404 67.0688053,285.854839 66.9694286,285.27302 C66.8904286,284.788188 58.697,236.237315 62.1278571,198.307651 C63.5837143,182.184161 67.7707143,170.469262 74.5421429,163.512483 C79.7448571,158.145503 84.5751429,157.750872 84.7782857,157.739597 C85.445209,157.68978 86.0262794,158.189539 86.0761429,158.855839 C86.1260063,159.522139 85.6257804,160.102666 84.9588571,160.152483 C83.503,160.27651 79.7787143,161.528054 76.1221429,165.372886 C68.3237143,173.581208 65.5474286,187.923221 64.5881429,198.521879 C61.2024286,236.135839 69.3281429,284.371007 69.4071429,284.855839 C69.4626398,285.173025 69.3889199,285.499214 69.2023916,285.761804 C69.0158632,286.024394 68.732006,286.201592 68.414,286.25396 L68.1657143,286.27651 Z" id="Shape" fill="#424242"></path>
                        <path d="M121.558429,181.46255 C121.036353,181.450755 120.581018,181.105023 120.429857,180.605638 C114.403286,161.133423 103.501286,160.141208 103.377143,160.141208 C102.71022,160.094505 102.207467,159.516501 102.254214,158.850201 C102.300961,158.183901 102.879505,157.681619 103.546429,157.728322 C104.065571,157.728322 116.231571,158.855839 122.732143,179.895302 C122.845922,180.257743 122.782202,180.652554 122.560165,180.960898 C122.338127,181.269242 121.983702,181.455108 121.603571,181.46255 L121.558429,181.46255 Z" id="Shape" fill="#424242"></path>
                        <path d="M193.640286,286.27651 C193.060886,286.275892 192.563584,285.864227 192.455286,285.29557 C192.376286,284.867114 184.171571,242.292081 187.602429,209.030336 C189.069571,194.846174 193.245286,184.540671 200.016714,178.418255 C205.208143,173.727785 210.004571,173.378255 210.173857,173.36698 C210.84078,173.32339 211.416798,173.828197 211.460428,174.494497 C211.504059,175.160797 210.99878,175.736276 210.331857,175.779866 C206.985175,176.348355 203.891097,177.921478 201.461286,180.289933 C193.685429,187.438389 190.920429,199.965101 189.961143,209.222013 C186.575429,242.134228 194.689857,284.348456 194.780143,284.765638 C194.842987,285.081276 194.777,285.408917 194.596854,285.675708 C194.416707,285.942498 194.137335,286.126324 193.820857,286.186309 L193.640286,286.27651 Z" id="Shape" fill="#424242"></path>
                        <path d="M245.565857,286.27651 L245.328857,286.27651 C245.012379,286.216525 244.733007,286.0327 244.552861,285.765909 C244.372714,285.499118 244.306727,285.171477 244.369571,284.855839 C244.448571,284.438658 252.574286,242.201879 249.188571,209.312215 C245.881857,177.234362 228.998429,175.824966 228.874286,175.813691 C228.207362,175.773215 227.699557,175.20026 227.740071,174.53396 C227.780585,173.86766 228.354077,173.360329 229.021,173.400805 C229.224143,173.400805 234.009286,173.761611 239.178143,178.452081 C245.949571,184.585772 250.147857,194.88 251.592429,209.064161 C254.978143,242.325906 246.829857,284.90094 246.739571,285.329396 C246.618172,285.880478 246.13065,286.273878 245.565857,286.27651 L245.565857,286.27651 Z" id="Shape" fill="#424242"></path>
                        <path d="M168.394143,122.380671 C167.724103,122.380671 167.180929,121.838004 167.180929,121.168591 C167.180929,120.499177 167.724103,119.95651 168.394143,119.95651 C171.946912,119.95651 174.827,117.079113 174.827,113.529664 C174.827,109.980216 171.946912,107.102819 168.394143,107.102819 C167.724103,107.102819 167.180929,106.560152 167.180929,105.890738 C167.180929,105.221325 167.724103,104.678658 168.394143,104.678658 C173.286991,104.678658 177.253429,108.641388 177.253429,113.529664 C177.253429,118.41794 173.286991,122.380671 168.394143,122.380671 L168.394143,122.380671 Z" id="Shape" fill="#424242"></path>
                        <path d="M176.531143,148.347383 C175.861103,148.347383 175.317929,147.804716 175.317929,147.135302 C175.317929,146.465888 175.861103,145.923221 176.531143,145.923221 C179.900158,145.678768 182.508495,142.876746 182.508495,139.502013 C182.508495,136.127281 179.900158,133.325259 176.531143,133.080805 C175.861103,133.080805 175.317929,132.538138 175.317929,131.868725 C175.317929,131.199311 175.861103,130.656644 176.531143,130.656644 C181.244227,130.894544 184.943395,134.78169 184.943395,139.496376 C184.943395,144.211062 181.244227,148.098207 176.531143,148.336107 L176.531143,148.347383 Z" id="Shape" fill="#424242"></path>
                        <path d="M129.323,148.347383 C124.609916,148.109482 120.910748,144.222337 120.910748,139.507651 C120.910748,134.792965 124.609916,130.90582 129.323,130.667919 C129.99304,130.667919 130.536214,131.210586 130.536214,131.88 C130.536214,132.549414 129.99304,133.092081 129.323,133.092081 C125.953985,133.336534 123.345648,136.138556 123.345648,139.513289 C123.345648,142.888021 125.953985,145.690043 129.323,145.934497 C129.99304,145.934497 130.536214,146.477164 130.536214,147.146577 C130.536214,147.815991 129.99304,148.358658 129.323,148.358658 L129.323,148.347383 Z" id="Shape" fill="#424242"></path>
                        <path d="M113.590714,151.357852 C112.870865,151.358163 112.156548,151.232225 111.480286,150.985772 C110.911776,150.719717 110.642143,150.062834 110.859992,149.474604 C111.077841,148.886374 111.710499,148.563026 112.315429,148.730738 C113.722892,149.256034 115.308326,148.890565 116.343137,147.802284 C117.377948,146.714003 117.661991,145.113395 117.064734,143.736029 C116.467476,142.358662 115.104434,141.470935 113.602,141.480805 C112.93196,141.480805 112.388786,140.938138 112.388786,140.268725 C112.388786,139.599311 112.93196,139.056644 113.602,139.056644 C117.008295,139.056644 119.769643,141.815412 119.769643,145.218523 C119.769643,148.621635 117.008295,151.380403 113.602,151.380403 L113.590714,151.357852 Z" id="Shape" fill="#424242"></path>
                        <path d="M74.418,151.357852 C72.2145133,151.357852 70.1784077,150.183405 69.0766643,148.276913 C67.9749209,146.370421 67.9749209,144.021526 69.0766643,142.115033 C70.1784077,140.208541 72.2145133,139.034094 74.418,139.034094 C75.0880397,139.034094 75.6312143,139.576761 75.6312143,140.246174 C75.6312143,140.915588 75.0880397,141.458255 74.418,141.458255 C72.9357152,141.474015 71.6029992,142.363935 71.0215472,143.726234 C70.4400952,145.088532 70.7199313,146.665431 71.734715,147.744991 C72.7494986,148.824551 74.3072094,149.202495 75.7045714,148.708188 C76.3095015,148.540475 76.9421591,148.863823 77.1600079,149.452053 C77.3778567,150.040284 77.1082238,150.697167 76.5397143,150.963221 C75.8612839,151.218668 75.1429908,151.352268 74.418,151.357852 Z" id="Shape" fill="#424242"></path>
                        <path d="M223.457143,175.779866 L215.828,175.779866 C206.535711,175.761505 198.995216,168.263283 198.933286,158.979866 L198.933286,151.312752 C198.931993,150.455964 198.996132,149.600327 199.125143,148.753289 C199.191671,148.326296 199.481156,147.967198 199.884552,147.811263 C200.287948,147.655328 200.74397,147.726246 201.080838,147.997303 C201.417706,148.26836 201.584242,148.698377 201.517714,149.125369 C201.405816,149.849149 201.349224,150.580389 201.348429,151.312752 L201.348429,158.979866 C201.354652,166.941754 207.813522,173.394588 215.782857,173.400805 L223.457143,173.400805 C231.413253,173.375968 237.851537,166.928577 237.857714,158.979866 L237.857714,151.312752 C237.857263,150.009264 237.678807,148.711931 237.327286,147.456644 C237.210358,147.039723 237.324945,146.592149 237.627884,146.28252 C237.930822,145.972891 238.376089,145.848247 238.795955,145.95554 C239.215822,146.062833 239.546501,146.385763 239.663429,146.802685 C240.074891,148.270796 240.283725,149.788174 240.284143,151.312752 L240.284143,158.979866 C240.222535,168.237027 232.723002,175.724526 223.457143,175.779866 L223.457143,175.779866 Z" id="Shape" fill="#424242"></path>
                        <path d="M239.065286,165.530738 C238.395246,165.530738 237.852071,164.988071 237.852071,164.318658 C237.852071,163.649244 238.395246,163.106577 239.065286,163.106577 C241.131501,163.106577 242.8065,161.433144 242.8065,159.368859 C242.8065,157.304574 241.131501,155.631141 239.065286,155.631141 C238.395246,155.631141 237.852071,155.088474 237.852071,154.41906 C237.852071,153.749647 238.395246,153.20698 239.065286,153.20698 C242.471581,153.20698 245.232929,155.965747 245.232929,159.368859 C245.232929,162.771971 242.471581,165.530738 239.065286,165.530738 L239.065286,165.530738 Z" id="Shape" fill="#424242"></path>
                        <path d="M199.892571,165.530738 C196.486276,165.530738 193.724929,162.771971 193.724929,159.368859 C193.724929,155.965747 196.486276,153.20698 199.892571,153.20698 C200.562611,153.20698 201.105786,153.749647 201.105786,154.41906 C201.105786,155.088474 200.562611,155.631141 199.892571,155.631141 C197.826356,155.631141 196.151357,157.304574 196.151357,159.368859 C196.151357,161.433144 197.826356,163.106577 199.892571,163.106577 C200.562611,163.106577 201.105786,163.649244 201.105786,164.318658 C201.105786,164.988071 200.562611,165.530738 199.892571,165.530738 Z" id="Shape" fill="#424242"></path>
                        <path d="M168.394143,122.380671 L143.813857,122.380671 C138.870714,122.380671 134.943286,120.790872 132.155714,117.645101 C126.433857,111.195705 127.641429,100.608322 127.641429,100.157315 C127.695265,99.6330796 128.083451,99.2044152 128.600185,99.0985836 C129.11692,98.992752 129.642617,99.2342455 129.898571,99.6950336 C130.650346,100.715506 131.617388,101.558471 132.731286,102.164295 C134.661143,103.291812 138.148429,104.678658 143.78,104.678658 L168.360286,104.678658 C169.030325,104.678658 169.5735,105.221325 169.5735,105.890738 C169.5735,106.560152 169.030325,107.102819 168.360286,107.102819 L143.813857,107.102819 C136.444286,107.102819 132.212143,104.949262 129.977571,103.17906 C129.977571,106.561611 130.609571,112.25557 133.972714,116.044027 C136.229857,118.637315 139.615571,119.95651 143.813857,119.95651 L168.394143,119.95651 C169.064183,119.95651 169.607357,120.499177 169.607357,121.168591 C169.607357,121.838004 169.064183,122.380671 168.394143,122.380671 L168.394143,122.380671 Z" id="Shape" fill="#424242"></path>
                        <path d="M103.569,271.799195 C102.902077,271.799195 102.361429,271.259052 102.361429,270.592752 C102.197559,266.174669 98.5650363,262.677532 94.1397857,262.677532 C89.7145351,262.677532 86.0820129,266.174669 85.9181429,270.592752 C85.9181429,271.262165 85.3749683,271.804832 84.7049286,271.804832 C84.0348888,271.804832 83.4917143,271.262165 83.4917143,270.592752 C83.4917143,264.71748 88.2590182,259.954631 94.1397857,259.954631 C100.020553,259.954631 104.787857,264.71748 104.787857,270.592752 C104.787871,270.914683 104.659097,271.223268 104.430187,271.449847 C104.201277,271.676426 103.891219,271.802203 103.569,271.799195 L103.569,271.799195 Z" id="Shape" fill="#424242"></path>
                        <path d="M113.590714,136.891812 L90.8951429,136.891812 C90.3880176,136.888199 89.9371845,136.568406 89.7665714,136.091275 L88.638,133.04698 L87.7125714,136.034899 C87.5614108,136.534285 87.1060754,136.880016 86.584,136.891812 L74.6662857,136.891812 C73.996246,136.891812 73.4530714,136.349145 73.4530714,135.679732 C73.4530714,135.010318 73.996246,134.467651 74.6662857,134.467651 L85.6811429,134.467651 L87.4191429,128.830067 C87.5974409,128.36211 88.0465314,128.052822 88.5477143,128.052822 C89.0488972,128.052822 89.4979876,128.36211 89.6762857,128.830067 L91.7077143,134.467651 L113.556857,134.467651 C114.226897,134.467651 114.770071,135.010318 114.770071,135.679732 C114.770071,136.349145 114.226897,136.891812 113.556857,136.891812 L113.590714,136.891812 Z" id="Shape" fill="#424242"></path>
                        <path d="M87.1821429,286.27651 C86.5913685,286.279404 86.0852338,285.854839 85.9858571,285.27302 L83.5142857,270.78443 C83.4417098,270.357437 83.6026576,269.924197 83.9365017,269.647907 C84.2703458,269.371617 84.7263673,269.294252 85.1327874,269.444954 C85.5392075,269.595657 85.8342812,269.951531 85.9068571,270.378523 L88.3897143,284.855839 C88.4452112,285.173025 88.3714913,285.499214 88.184963,285.761804 C87.9984346,286.024394 87.7145774,286.201592 87.3965714,286.25396 L87.1821429,286.27651 Z" id="Shape" fill="#424242"></path>
                        <path d="M101.142571,286.27651 L100.939429,286.27651 C100.621423,286.224143 100.337565,286.046944 100.151037,285.784354 C99.9645087,285.521765 99.8907888,285.195575 99.9462857,284.878389 L102.372714,270.401074 C102.481791,269.741001 103.10581,269.294247 103.7665,269.403222 C104.42719,269.512196 104.874362,270.135632 104.765286,270.795705 L102.338857,285.261745 C102.244423,285.848048 101.736969,286.278503 101.142571,286.27651 L101.142571,286.27651 Z" id="Shape" fill="#424242"></path>
                        <path d="M162.266,271.979597 C161.599077,271.979597 161.058429,271.439454 161.058429,270.773154 C161.169966,267.766006 159.627781,264.938346 157.038081,263.401679 C154.448381,261.865013 151.22519,261.865013 148.63549,263.401679 C146.04579,264.938346 144.503605,267.766006 144.615143,270.773154 C144.615143,271.442568 144.071968,271.985235 143.401929,271.985235 C142.731889,271.985235 142.188714,271.442568 142.188714,270.773154 C142.188714,264.897882 146.956018,260.135034 152.836786,260.135034 C158.717553,260.135034 163.484857,264.897882 163.484857,270.773154 C163.484871,271.095086 163.356097,271.403671 163.127187,271.63025 C162.898277,271.856828 162.588219,271.982606 162.266,271.979597 L162.266,271.979597 Z" id="Shape" fill="#424242"></path>
                        <path d="M145.867857,286.456913 C145.277083,286.459807 144.770948,286.035242 144.671571,285.453423 L142.2,270.976107 C142.127424,270.549115 142.288372,270.115875 142.622216,269.839585 C142.95606,269.563295 143.412082,269.48593 143.818502,269.636632 C144.224922,269.787334 144.519996,270.143209 144.592571,270.570201 L147.075429,285.047517 C147.130925,285.364703 147.057206,285.690892 146.870677,285.953482 C146.684149,286.216072 146.400292,286.39327 146.082286,286.445638 L145.867857,286.456913 Z" id="Shape" fill="#424242"></path>
                        <path d="M159.839571,286.456913 L159.636429,286.456913 C159.318423,286.404545 159.034565,286.227347 158.848037,285.964757 C158.661509,285.702167 158.587789,285.375978 158.643286,285.058792 L161.069714,270.604027 C161.178791,269.943954 161.80281,269.4972 162.4635,269.606174 C163.12419,269.715149 163.571362,270.338585 163.462286,270.998658 L161.035857,285.475973 C160.926781,286.04882 160.423217,286.461736 159.839571,286.456913 L159.839571,286.456913 Z" id="Shape" fill="#424242"></path>
                        <path d="M189.137286,172.769396 C187.579221,172.77383 186.022439,172.679682 184.476286,172.487517 C183.878648,172.405308 183.433424,171.895061 183.433424,171.292349 C183.433424,170.689637 183.878648,170.17939 184.476286,170.097181 C187.740187,169.546006 190.126821,166.718103 190.119143,163.411007 C190.119143,157.61557 189.487143,142.134765 189.295286,137.478121 L189.295286,136.237852 C189.275424,128.334588 194.939527,121.558496 202.727021,120.169172 C210.514515,118.779848 218.175991,123.178595 220.895286,130.600268 C223.471371,128.047793 227.012989,126.71119 230.634857,126.924564 L230.634857,126.924564 C237.167799,127.379795 242.326998,132.645593 242.642857,139.180671 C242.861315,145.098638 238.997511,150.39725 233.292221,152.003626 C227.586931,153.610002 221.522349,151.106818 218.615571,145.945772 C215.540468,150.077707 210.689174,152.511542 205.535429,152.507919 L205.4,152.507919 C204.402091,152.517351 203.45287,152.940189 202.778916,153.675502 C202.104962,154.410816 201.766746,155.392626 201.845,156.386577 L202.499571,164.66255 L202.499571,164.752752 C202.555312,166.704755 201.72587,168.577542 200.242429,169.849128 C197.5,172.262013 192.703571,172.769396 189.137286,172.769396 Z M205.512857,122.380671 C197.855168,122.386889 191.648938,128.587319 191.642714,136.237852 L191.642714,137.365369 L191.642714,137.365369 C191.834571,141.999463 192.466571,157.559195 192.466571,163.411007 C192.552827,166.079154 191.408835,168.639299 189.363,170.35651 C192.647143,170.35651 196.540714,169.826577 198.572143,168.101477 C199.51848,167.301248 200.049892,166.114982 200.016714,164.876779 L199.373429,156.645906 C199.241974,154.982358 199.807462,153.338914 200.934952,152.107743 C202.062441,150.876572 203.650799,150.168108 205.321,150.151409 L205.467714,150.151409 C210.560219,150.15207 215.243556,147.364604 217.667571,142.890201 C217.882358,142.433116 218.359345,142.158023 218.862952,142.200789 C219.366558,142.243556 219.790228,142.595133 219.924714,143.081879 C221.466109,147.650261 225.946231,150.562955 230.751342,150.120674 C235.556454,149.678393 239.428487,145.996933 240.108469,141.224087 C240.788452,136.45124 238.09835,131.836627 233.607591,130.072447 C229.116832,128.308267 224.001179,129.856416 221.245143,133.813691 C220.971044,134.212379 220.48511,134.40898 220.010574,134.313179 C219.536038,134.217378 219.164641,133.847695 219.067,133.37396 C217.690199,126.986282 212.052984,122.414135 205.512857,122.380671 Z" id="Shape" fill="#424242"></path>
                        <path d="M152.289429,154.841879 C147.40716,154.850229 142.999272,151.92328 141.116571,147.422819 C140.568731,146.11951 140.712892,144.628418 141.500286,143.45396 C142.296469,142.249813 143.64464,141.525531 145.089143,141.525906 L159.478429,141.525906 C160.922932,141.525531 162.271103,142.249813 163.067286,143.45396 C163.85468,144.628418 163.99884,146.11951 163.451,147.422819 C161.569879,151.919489 157.167593,154.845674 152.289429,154.841879 Z M145.100429,143.950067 C144.468716,143.95148 143.879723,144.268985 143.531714,144.795705 C143.19035,145.293754 143.12654,145.931259 143.362429,146.48698 C144.877273,150.075814 148.396535,152.408929 152.295071,152.408929 C156.193608,152.408929 159.71287,150.075814 161.227714,146.48698 C161.463603,145.931259 161.399793,145.293754 161.058429,144.795705 C160.71042,144.268985 160.121427,143.95148 159.489714,143.950067 L145.100429,143.950067 Z" id="Shape" fill="#424242"></path>
                        <path d="M94.1341429,156.984161 C91.9157911,156.984166 89.9158559,155.649155 89.0668571,153.601611 C88.7546718,152.861665 88.8352224,152.014556 89.2812857,151.346577 C89.7203681,150.653492 90.4804805,150.229245 91.3014286,150.21906 L96.9442857,150.21906 C97.7652338,150.229245 98.5253462,150.653492 98.9644286,151.346577 C99.4104919,152.014556 99.4910425,152.861665 99.1788571,153.601611 C98.3330162,155.641592 96.3442736,156.975072 94.1341429,156.984161 L94.1341429,156.984161 Z M91.3127143,152.699597 C91.8040271,153.818461 92.9112006,154.541094 94.1341429,154.541094 C95.3570851,154.541094 96.4642587,153.818461 96.9555714,152.699597 L91.3127143,152.699597 Z" id="Shape" fill="#424242"></path>
                        <path d="M219.608714,171.38255 C216.758445,171.388624 214.184631,169.680284 213.085571,167.052886 C212.718781,166.17872 212.816311,165.178908 213.345143,164.391946 C213.877343,163.590727 214.775224,163.108355 215.737714,163.106577 L223.457143,163.106577 C224.419633,163.108355 225.317515,163.590727 225.849714,164.391946 C226.378546,165.178908 226.476076,166.17872 226.109286,167.052886 C225.013389,169.672708 222.450773,171.379523 219.608714,171.38255 L219.608714,171.38255 Z M215.737714,165.530738 C215.583506,165.528463 215.438807,165.604997 215.354,165.733691 C215.287702,165.852893 215.287702,165.997845 215.354,166.117047 C216.078048,167.843709 217.768755,168.967432 219.642571,168.967432 C221.516388,168.967432 223.207095,167.843709 223.931143,166.117047 C223.997441,165.997845 223.997441,165.852893 223.931143,165.733691 C223.846336,165.604997 223.701637,165.528463 223.547429,165.530738 L215.737714,165.530738 Z" id="Shape" fill="#424242"></path>
                        <path d="M152.819857,244.862819 C152.182605,244.864183 151.653974,244.370596 151.612286,243.735302 L144.220143,160.107383 C144.181839,159.676362 144.376606,159.257667 144.731078,159.009015 C145.08555,158.760364 145.545874,158.719532 145.93865,158.901901 C146.331426,159.08427 146.596982,159.462134 146.635286,159.893154 L154.038714,243.543624 C154.066702,243.867485 153.962692,244.188926 153.750245,244.435135 C153.537798,244.681343 153.234893,244.831482 152.910143,244.851544 L152.819857,244.862819 Z" id="Shape" fill="#424242"></path>
                        <path d="M152.819857,244.862819 L152.707,244.862819 C152.38225,244.842758 152.079345,244.692618 151.866898,244.44641 C151.654451,244.200202 151.550441,243.87876 151.578429,243.554899 L158.970571,159.92698 C159.002827,159.495959 159.262795,159.114872 159.652547,158.92727 C160.042299,158.739668 160.502622,158.774053 160.860118,159.017472 C161.217614,159.26089 161.41797,159.676362 161.385714,160.107383 L153.993571,243.735302 C153.952934,244.357775 153.444026,244.846652 152.819857,244.862819 Z" id="Shape" fill="#424242"></path>
                        <path d="M126.817571,244.129933 C126.226797,244.132827 125.720662,243.708262 125.621286,243.126443 C122.585429,225.81906 124.650714,200.280805 124.673286,200.044027 C124.709574,199.613006 124.973267,199.234068 125.365035,199.049955 C125.756803,198.865842 126.217126,198.904524 126.572606,199.151431 C126.928086,199.398339 127.124717,199.815959 127.088429,200.24698 C127.088429,200.495034 125.034429,225.717584 128.013857,242.709262 C128.069572,243.024787 127.997372,243.349495 127.81318,243.611776 C127.628989,243.874057 127.347934,244.052367 127.032,244.107383 L126.817571,244.129933 Z" id="Shape" fill="#424242"></path>
                        <path d="M178.562571,244.129933 L178.348143,244.129933 C178.032209,244.074918 177.751154,243.896608 177.566962,243.634327 C177.38277,243.372046 177.310571,243.047337 177.366286,242.731812 C180.345714,225.728859 178.314286,200.517584 178.291714,200.26953 C178.255426,199.83851 178.452057,199.420889 178.807537,199.173982 C179.163016,198.927074 179.62334,198.888392 180.015108,199.072505 C180.406876,199.256619 180.670569,199.635557 180.706857,200.066577 C180.706857,200.325906 182.794714,225.841611 179.758857,243.148993 C179.649781,243.72184 179.146217,244.134756 178.562571,244.129933 L178.562571,244.129933 Z" id="Shape" fill="#424242"></path>
                        <path d="M149.693714,245.685906 C144.299143,245.685906 139.660714,245.471678 135.857429,245.167248 C129.530216,244.798701 123.250953,243.843725 117.100571,242.314631 C116.45858,242.127818 116.089726,241.456425 116.276714,240.815034 C116.463702,240.173642 117.135723,239.805133 117.777714,239.991946 L117.777714,239.991946 C123.80174,241.469579 129.947567,242.39795 136.139571,242.765638 C153.336875,243.912575 170.60995,242.969842 187.579857,239.958121 C188.240547,239.846033 188.867093,240.290263 188.979286,240.950336 C189.091478,241.610409 188.646833,242.236369 187.986143,242.348456 C175.337384,244.525015 162.528643,245.641385 149.693714,245.685906 L149.693714,245.685906 Z" id="Shape" fill="#424242"></path>
                        <path d="M91.4142857,226.82255 C72.8267143,226.82255 62.4551429,223.597852 61.8682857,223.44 C61.3588425,223.161605 61.1198596,222.560378 61.2993376,222.008654 C61.4788155,221.45693 62.0259301,221.110946 62.6018571,221.184966 L62.6018571,221.184966 C62.7937143,221.241342 82.2615714,227.262282 115.419,222.808591 C115.848408,222.750181 116.276387,222.925081 116.541722,223.267407 C116.807057,223.609733 116.869438,224.067477 116.705365,224.468212 C116.541292,224.868947 116.175693,225.151792 115.746286,225.210201 C107.680636,226.28868 99.551851,226.82733 91.4142857,226.82255 L91.4142857,226.82255 Z" id="Shape" fill="#424242"></path>
                        <path d="M91.6851429,226.788725 C91.0182196,226.788725 90.4775714,226.248582 90.4775714,225.582282 L90.4775714,178.609933 C90.4561885,172.354766 89.0129287,166.186162 86.2567143,160.569664 C86.0211992,159.996172 86.2590283,159.337695 86.8068191,159.046589 C87.3546099,158.755483 88.0340705,158.926497 88.3784286,159.442148 C91.341407,165.398543 92.886372,171.958509 92.8927143,178.609933 L92.8927143,225.582282 C92.8927143,226.248582 92.3520661,226.788725 91.6851429,226.788725 L91.6851429,226.788725 Z" id="Shape" fill="#424242"></path>
                        <path d="M97.2264286,226.788725 C96.5595053,226.788725 96.0188571,226.248582 96.0188571,225.582282 L96.0188571,178.609933 C96.0251994,171.958509 97.5701644,165.398543 100.533143,159.442148 C100.877501,158.926497 101.556962,158.755483 102.104752,159.046589 C102.652543,159.337695 102.890372,159.996172 102.654857,160.569664 C99.9049519,166.188409 98.4620355,172.355545 98.434,178.609933 L98.434,225.582282 C98.434,226.248582 97.8933519,226.788725 97.2264286,226.788725 L97.2264286,226.788725 Z" id="Shape" fill="#424242"></path>
                        <path d="M209.067857,185.47651 C207.55696,185.510931 206.08232,185.011858 204.903429,184.067114 C202.149714,181.812081 201.878857,177.764295 201.878857,177.595168 C201.84146,176.928868 202.351791,176.358436 203.018714,176.321074 C203.685638,176.283711 204.256602,176.793566 204.294,177.459866 C204.294,177.516242 204.519714,180.662013 206.438286,182.195436 C207.490182,182.973777 208.828447,183.257636 210.106143,182.973423 C215.929571,182.071409 216.945286,175.452886 216.956571,175.385235 C217.053182,174.722048 217.669622,174.262675 218.333429,174.359195 C218.997235,174.455715 219.457039,175.071579 219.360429,175.734765 C218.942857,178.655034 216.539,184.439195 210.478571,185.375034 C210.011608,185.444719 209.539996,185.478643 209.067857,185.47651 L209.067857,185.47651 Z" id="Shape" fill="#424242"></path>
                        <path d="M230.465571,185.47651 C229.993142,185.474956 229.521525,185.437262 229.054857,185.363758 C222.994429,184.427919 220.590571,178.598658 220.173,175.72349 C220.07639,175.060303 220.536193,174.44444 221.2,174.34792 C221.863807,174.2514 222.480247,174.710773 222.576857,175.37396 C222.809812,176.623367 223.244326,177.826682 223.863429,178.936913 C224.959959,181.096418 227.031537,182.595124 229.427286,182.962148 C230.708554,183.249801 232.05169,182.965783 233.106429,182.184161 C235.013714,180.639463 235.239429,177.482416 235.239429,177.459866 C235.263621,177.028845 235.516137,176.64346 235.901857,176.448881 C236.287576,176.254302 236.7479,176.28009 237.109428,176.516532 C237.470956,176.752974 237.678763,177.164147 237.654571,177.595168 C237.654571,177.764295 237.383714,181.834631 234.63,184.067114 C233.451108,185.011858 231.976469,185.510931 230.465571,185.47651 L230.465571,185.47651 Z" id="Shape" fill="#424242"></path>
                        <path d="M215.286286,202.084832 L215.162143,202.084832 C214.833079,202.065093 214.526397,201.911808 214.313267,201.66055 C214.100137,201.409291 213.999089,201.081904 214.033571,200.754362 L216.437429,177.527517 C216.505991,176.861217 217.10222,176.376603 217.769143,176.445101 C218.436066,176.513599 218.921134,177.10927 218.852571,177.77557 L216.448714,201.002416 C216.386903,201.602977 215.890266,202.06543 215.286286,202.084832 Z" id="Shape" fill="#424242"></path>
                        <path d="M225.319286,197.777718 C224.732095,197.781556 224.227257,197.362837 224.123,196.785503 L220.850143,178.519732 C220.773535,178.094753 220.929681,177.661226 221.259764,177.382454 C221.589846,177.103683 222.043716,177.022019 222.450407,177.168226 C222.857097,177.314433 223.154821,177.666297 223.231429,178.091275 L226.504286,196.357047 C226.563323,196.674282 226.492701,197.001924 226.3082,197.266764 C226.123699,197.531603 225.840697,197.711567 225.522429,197.766443 L225.319286,197.777718 Z" id="Shape" fill="#424242"></path>
                        <path d="M219.258857,240.352752 C214.417286,240.352752 210.106143,240.104698 206.494714,239.755168 C200.16544,239.23694 193.897729,238.134793 187.771714,236.462819 C187.132839,236.266665 186.774091,235.590224 186.970429,234.951946 C187.166766,234.313668 187.843839,233.955256 188.482714,234.151409 C194.478992,235.769111 200.609609,236.840872 206.799429,237.353557 C221.547571,238.74163 236.424235,237.655505 250.813714,234.140134 C251.233042,234.0354 251.676444,234.162122 251.976895,234.472564 C252.277346,234.783006 252.3892,235.230005 252.270324,235.645181 C252.151447,236.060357 251.819899,236.380635 251.400571,236.485369 C240.883756,239.074494 230.090251,240.373199 219.258857,240.352752 L219.258857,240.352752 Z" id="Shape" fill="#424242"></path>
                        <path d="M204.926,286.27651 C204.374846,286.252115 203.91032,285.857637 203.797429,285.318121 C199.881286,266.725369 198.007857,237.962416 197.985286,237.714362 C197.941655,237.048062 198.446934,236.472583 199.113857,236.428993 C199.78078,236.385404 200.356798,236.89021 200.400429,237.55651 C200.400429,237.838389 202.285143,266.398389 206.167429,284.822013 C206.234155,285.13608 206.172825,285.463766 205.997015,285.732524 C205.821206,286.001282 205.54542,286.188942 205.230714,286.25396 L204.926,286.27651 Z" id="Shape" fill="#424242"></path>
                        <path d="M234.291429,286.27651 L234.043143,286.27651 C233.728437,286.211493 233.452651,286.023832 233.276842,285.755074 C233.101032,285.486316 233.039702,285.158631 233.106429,284.844564 C236.988714,266.42094 238.850857,237.872215 238.873429,237.57906 C238.901653,237.14804 239.157894,236.764804 239.54563,236.573713 C239.933366,236.382623 240.39369,236.412709 240.753202,236.652639 C241.112714,236.89257 241.316795,237.305892 241.288571,237.736913 C241.288571,238.030067 239.392571,266.759195 235.476429,285.340671 C235.349567,285.891395 234.857064,286.280343 234.291429,286.27651 Z" id="Shape" fill="#424242"></path>
                        <path d="M215.557143,285.746577 C214.95538,285.746895 214.445216,285.304526 214.360857,284.709262 C210.568857,258.178792 209.846571,239.383087 209.846571,239.202685 C209.82164,238.533271 210.344603,237.970412 211.014643,237.945503 C211.684683,237.920595 212.248068,238.44307 212.273,239.112483 C212.273,239.292886 213.029143,257.975839 216.787286,284.371007 C216.835624,284.689776 216.754242,285.014613 216.561296,285.273046 C216.36835,285.531479 216.079895,285.702004 215.760286,285.746577 L215.557143,285.746577 Z" id="Shape" fill="#424242"></path>
                        <path d="M223.637714,285.746577 L223.457143,285.746577 C223.137533,285.702004 222.849078,285.531479 222.656132,285.273046 C222.463187,285.014613 222.381805,284.689776 222.430143,284.371007 C226.210857,257.964564 226.944429,239.270336 226.944429,239.112483 C226.96936,238.44307 227.532746,237.920595 228.202786,237.945503 C228.872825,237.970412 229.395789,238.533271 229.370857,239.202685 C229.370857,239.394362 228.603429,258.178792 224.856571,284.709262 C224.77111,285.313112 224.248029,285.758283 223.637714,285.746577 Z" id="Shape" fill="#424242"></path>
                        <path d="M84.2591429,152.564295 C79.9771214,152.564295 76.5058571,149.096275 76.5058571,144.818255 C76.5058571,140.540235 79.9771214,137.072215 84.2591429,137.072215 C88.5411643,137.072215 92.0124286,140.540235 92.0124286,144.818255 C92.006213,149.0937 88.5385871,152.558085 84.2591429,152.564295 L84.2591429,152.564295 Z M84.2591429,139.496376 C81.3172009,139.496376 78.9322857,141.879062 78.9322857,144.818255 C78.9322857,147.757448 81.3172009,150.140134 84.2591429,150.140134 C87.2010848,150.140134 89.586,147.757448 89.586,144.818255 C89.5797922,141.881635 87.1985096,139.502578 84.2591429,139.496376 Z" id="Shape" fill="#424242"></path>
                        <path d="M97.4634286,146.024698 C97.245022,146.02544 97.0305029,145.966989 96.8427143,145.85557 C95.2348944,144.909762 93.2494647,144.871287 91.6061429,145.754094 C91.2232038,145.976785 90.7489464,145.972068 90.3705215,145.741803 C89.9920965,145.511538 89.7702882,145.092712 89.7926263,144.650602 C89.8149643,144.208491 90.0778606,143.81411 90.4775714,143.623087 C92.8679479,142.338305 95.7563405,142.393881 98.0954286,143.769664 C98.5757611,144.042455 98.8095123,144.606148 98.6630092,145.138388 C98.5165061,145.670629 98.0271212,146.035645 97.4747143,146.024698 L97.4634286,146.024698 Z" id="Shape" fill="#424242"></path>
                        <path d="M103.997857,152.564295 C99.7158357,152.564295 96.2445714,149.096275 96.2445714,144.818255 C96.2445714,140.540235 99.7158357,137.072215 103.997857,137.072215 C108.279879,137.072215 111.751143,140.540235 111.751143,144.818255 C111.744927,149.0937 108.277301,152.558085 103.997857,152.564295 L103.997857,152.564295 Z M103.997857,139.496376 C101.055915,139.496376 98.671,141.879062 98.671,144.818255 C98.671,147.757448 101.055915,150.140134 103.997857,150.140134 C106.939799,150.140134 109.324714,147.757448 109.324714,144.818255 C109.318507,141.881635 106.937224,139.502578 103.997857,139.496376 Z" id="Shape" fill="#424242"></path>
                        <path d="M254.413857,206.66255 C253.911419,206.661596 253.41367,206.565965 252.946714,206.380671 C250.588,205.456107 248.624286,202.366711 246.931429,196.932081 C245.042104,191.043809 242.055351,185.565561 238.128571,180.78604 C237.686034,180.284758 237.734035,179.519977 238.235786,179.077852 C238.737536,178.635728 239.503034,178.683685 239.945571,179.184966 C244.113132,184.200956 247.270868,189.974518 249.245,196.187919 C251.129714,202.242685 252.924143,203.742282 253.838286,204.080537 C254.318612,204.270702 254.861452,204.216048 255.294143,203.93396 C256.829,203.054497 259.402143,199.096913 259.402143,182.409664 C259.402143,181.740251 259.945317,181.197584 260.615357,181.197584 C261.285397,181.197584 261.828571,181.740251 261.828571,182.409664 C261.828571,200.855839 258.781429,204.723221 256.490429,206.087517 C255.860724,206.457891 255.144557,206.656209 254.413857,206.66255 L254.413857,206.66255 Z" id="Shape" fill="#424242"></path>
                        <path d="M251.366714,218.963758 L251.197429,218.963758 C250.763989,218.947645 250.372078,218.701735 250.169326,218.31866 C249.966573,217.935584 249.983781,217.473542 250.214468,217.106579 C250.445156,216.739617 250.854275,216.523484 251.287714,216.539597 L251.287714,216.539597 C251.705286,216.539597 261.648,216.731275 265.214286,205.095302 C267.474144,197.504057 267.956814,189.495358 266.625,181.688054 C266.481643,181.034208 266.895971,180.388056 267.550429,180.244832 C268.204886,180.101609 268.851643,180.51555 268.995,181.169396 C270.446137,189.379057 269.943548,197.814655 267.527857,205.794362 C265.383571,212.807517 261.072429,216.009664 257.844714,217.464161 C255.809623,218.398066 253.605537,218.908292 251.366714,218.963758 Z" id="Shape" fill="#424242"></path>
                        <path d="M264.085714,184.10094 C262.601325,184.093223 261.170001,183.548466 260.056714,182.567517 C259.811775,182.619151 259.562188,182.645598 259.311857,182.646443 C256.891121,182.495263 255.046293,180.420513 255.181286,178.001074 C255.118294,176.117682 256.208633,174.385485 257.935,173.626309 C258.787386,170.920179 261.258803,169.047998 264.097,168.958389 C267.776143,168.958389 270.766857,172.34094 270.766857,176.524027 C270.766857,180.707114 267.787429,184.10094 264.085714,184.10094 Z M260.372714,179.974228 C260.712217,179.97471 261.035835,180.11795 261.264286,180.368859 C261.977807,181.183174 263.002608,181.658237 264.085714,181.676779 C266.421857,181.676779 268.329143,179.421745 268.329143,176.524027 C268.329143,173.626309 266.455714,171.38255 264.085714,171.38255 C262.09472,171.513866 260.441214,172.966851 260.056714,174.922953 C259.936062,175.37797 259.561538,175.72133 259.097429,175.802416 C258.143346,176.091714 257.522085,177.008629 257.607714,178.001074 C257.479367,179.091358 258.237319,180.087732 259.323143,180.256107 C259.514248,180.254886 259.702853,180.212586 259.876143,180.132081 C260.039303,180.043084 260.220826,179.992922 260.406571,179.985503 L260.372714,179.974228 Z" id="Shape" fill="#424242"></path>
                        <path d="M57.9408571,193.402953 C57.208093,193.389782 56.4917848,193.183647 55.8642857,192.805369 C54.9162857,192.264161 53.5168571,191.136644 52.4108571,187.607517 C51.1694286,183.649933 50.5374286,177.459866 50.5374286,169.183893 C50.5374286,168.514479 51.0806031,167.971812 51.7506429,167.971812 C52.4206826,167.971812 52.9638571,168.514479 52.9638571,169.183893 C52.9638571,185.859866 55.537,189.828725 57.0718571,190.708188 C57.504548,190.990276 58.0473875,191.04493 58.5277143,190.854765 C59.4305714,190.49396 61.225,188.994362 63.121,182.962148 C65.0809479,176.739408 68.2272689,170.954209 72.3865714,165.925369 C72.8291093,165.424087 73.5946064,165.376131 74.0963571,165.818255 C74.5981078,166.260379 74.6461093,167.025161 74.2035714,167.526443 C70.2970983,172.310633 67.3296708,177.788549 65.4571429,183.672483 C63.7642857,189.107114 61.8005714,192.19651 59.4418571,193.121074 C58.9643231,193.310594 58.4546788,193.406302 57.9408571,193.402953 L57.9408571,193.402953 Z" id="Shape" fill="#424242"></path>
                        <path d="M60.9428571,205.704161 C58.7086411,205.650716 56.5085798,205.14437 54.4761429,204.215839 C51.2484286,202.761342 46.9372857,199.547919 44.793,192.54604 C42.3773088,184.566333 41.8747202,176.130735 43.3258571,167.921074 C43.4692145,167.267228 44.1159711,166.853287 44.7704286,166.99651 C45.424886,167.139733 45.8392145,167.785886 45.6958571,168.439732 C44.365799,176.243376 44.8484571,184.248013 47.1065714,191.835705 C50.7857143,203.539329 60.9428571,203.291275 61.067,203.28 C61.7370397,203.255092 62.3004254,203.777566 62.3253571,204.44698 C62.3502889,205.116393 61.8273255,205.679253 61.1572857,205.704161 L60.9428571,205.704161 Z" id="Shape" fill="#424242"></path>
                        <path d="M48.2464286,170.852617 C44.5672857,170.852617 41.5765714,167.470067 41.5765714,163.28698 C41.5765714,159.103893 44.5672857,155.721342 48.2464286,155.721342 C51.0846257,155.810951 53.5560426,157.683132 54.4084286,160.389262 C56.1303749,161.151908 57.2157648,162.88334 57.1508571,164.764027 C57.2734044,167.166668 55.4453316,169.223837 53.0428571,169.386846 C52.7925261,169.386 52.5429393,169.359554 52.298,169.307919 C51.1805191,170.298064 49.7400672,170.84725 48.2464286,170.852617 L48.2464286,170.852617 Z M48.2464286,158.134228 C45.9102857,158.134228 44.003,160.389262 44.003,163.28698 C44.003,166.184698 45.9102857,168.439732 48.2464286,168.439732 C49.3292122,168.41979 50.353473,167.944977 51.0678571,167.131812 C51.4228534,166.742945 51.9892043,166.628868 52.4672857,166.849933 C52.640576,166.930439 52.8291801,166.972739 53.0202857,166.97396 C54.101552,166.800211 54.8532871,165.805466 54.7244286,164.718926 C54.8100582,163.726481 54.1887964,162.809566 53.2347143,162.520268 C52.7706046,162.439182 52.3960809,162.095823 52.2754286,161.640805 C51.8774707,159.69804 50.2272061,158.261758 48.2464286,158.134228 L48.2464286,158.134228 Z" id="Shape" fill="#424242"></path>
                        <path d="M119.481857,143.950067 C119.109724,143.939697 118.76318,143.758424 118.542646,143.458779 C118.322112,143.159133 118.252243,142.774613 118.353286,142.416644 C121.184209,132.250049 117.310563,121.403245 108.677534,115.323045 C100.044504,109.242846 88.5172105,109.242846 79.8841807,115.323045 C71.2511509,121.403245 67.3775058,132.250049 70.2084286,142.416644 C70.3253565,142.833566 70.2107692,143.28114 69.9078306,143.590768 C69.604892,143.900397 69.1596257,144.025041 68.7397592,143.917748 C68.3198927,143.810455 67.9892136,143.487526 67.8722857,143.070604 C64.763784,131.916049 69.0125437,120.013702 78.4845912,113.341613 C87.9566386,106.669525 100.605076,106.669525 110.077123,113.341613 C119.549171,120.013702 123.79793,131.916049 120.689429,143.070604 C120.538599,143.607264 120.039406,143.970822 119.481857,143.950067 Z" id="Shape" fill="#424242"></path>
                        <path d="M102.485571,98.4998658 L100.679857,98.4998658 C100.009817,98.4998658 99.4666429,97.9571988 99.4666429,97.2877852 C99.4666429,96.6183716 100.009817,96.0757047 100.679857,96.0757047 L102.485571,96.0757047 C110.230522,96.0694872 116.507491,89.7983836 116.513714,82.0606711 L116.513714,58.7887248 C116.507491,51.0510124 110.230522,44.7799088 102.485571,44.7736913 L85.7714286,44.7736913 C78.0264785,44.7799088 71.7495091,51.0510124 71.7432857,58.7887248 L71.7432857,82.0719463 C71.7495091,89.8096588 78.0264785,96.0807623 85.7714286,96.0869799 L88.4348571,96.0869799 C89.1048969,96.0869799 89.6480714,96.6296468 89.6480714,97.2990604 C89.6480714,97.968474 89.1048969,98.5111409 88.4348571,98.5111409 L85.7714286,98.5111409 C76.6863993,98.504922 69.3230819,91.1484856 69.3168571,82.0719463 L69.3168571,58.7887248 C69.3230819,49.7121856 76.6863993,42.3557491 85.7714286,42.3495302 L102.474286,42.3495302 C111.559315,42.3557491 118.922632,49.7121856 118.928857,58.7887248 L118.928857,82.0719463 C118.916424,91.1396855 111.561792,98.4874442 102.485571,98.4998658 Z" id="Shape" fill="#424242"></path>
                        <path d="M94.1567143,103.17906 L94.1567143,103.17906 C93.084341,103.178086 92.0581816,102.742782 91.3127143,101.972617 L87.5884286,98.1390604 C87.120959,97.6595734 87.1310646,96.8922677 87.611,96.4252349 C88.0909355,95.9582022 88.858959,95.9682983 89.3264286,96.4477852 L93.0507143,100.281342 C93.346445,100.586465 93.7541693,100.75755 94.1792857,100.754899 L94.1792857,100.754899 C94.6027402,100.76051 95.0102227,100.593598 95.3078571,100.292617 L99.145,96.4365101 C99.4494158,96.1303646 99.894187,96.0097267 100.311773,96.1200394 C100.729358,96.2303522 101.056317,96.5548564 101.169487,96.9713146 C101.282657,97.3877728 101.164844,97.832915 100.860429,98.1390604 L97.0232857,101.995168 C96.2685676,102.762688 95.2335925,103.190132 94.1567143,103.17906 L94.1567143,103.17906 Z" id="Shape" fill="#424242"></path>
                        <path d="M161.182571,95.6472483 L159.376857,95.6472483 C158.706817,95.6472483 158.163643,95.1045814 158.163643,94.4351678 C158.163643,93.7657542 158.706817,93.2230872 159.376857,93.2230872 L161.182571,93.2230872 C168.927522,93.2168697 175.204491,86.9457661 175.210714,79.2080537 L175.210714,34.8402685 C175.204491,27.102556 168.927522,20.8314524 161.182571,20.8252349 L144.457143,20.8252349 C136.721009,20.8438713 130.457768,27.1113439 130.451571,34.8402685 L130.451571,79.2080537 C130.451549,86.9413796 136.716606,93.2157129 144.457143,93.2343624 L147.120571,93.2343624 C147.790611,93.2343624 148.333786,93.7770294 148.333786,94.446443 C148.333786,95.1158565 147.790611,95.6585235 147.120571,95.6585235 L144.457143,95.6585235 C135.372114,95.6523046 128.008796,88.2958681 128.002571,79.2193289 L128.002571,34.8402685 C128.015017,25.7681327 135.376515,18.4185585 144.457143,18.412349 L161.16,18.412349 C170.245034,18.4123405 177.613403,25.7637326 177.625857,34.8402685 L177.625857,79.2080537 C177.619642,88.2801958 170.263193,95.6348143 161.182571,95.6472483 L161.182571,95.6472483 Z" id="Shape" fill="#424242"></path>
                        <path d="M152.853714,100.348993 L152.853714,100.348993 C151.781341,100.348018 150.755182,99.9127151 150.009714,99.1425503 L146.285429,95.3089933 C145.817959,94.8295063 145.828065,94.0622005 146.308,93.5951678 C146.787935,93.128135 147.555959,93.1382312 148.023429,93.6177181 L151.747714,97.4512752 C152.043445,97.7563984 152.451169,97.9274825 152.876286,97.9248322 C153.300242,97.9331045 153.708735,97.765779 154.004857,97.4625503 L157.842,93.606443 C158.312586,93.1331831 159.078083,93.1306591 159.551786,93.6008054 C160.025488,94.0709517 160.028015,94.8357334 159.557429,95.3089933 L155.720286,99.1651007 C154.965568,99.9326211 153.930593,100.360065 152.853714,100.348993 Z" id="Shape" fill="#424242"></path>
                        <path d="M255.057143,107.114094 L243.985857,107.114094 C243.315817,107.114094 242.772643,106.571427 242.772643,105.902013 C242.772643,105.2326 243.315817,104.689933 243.985857,104.689933 L255.057143,104.689933 C262.37568,104.677519 268.305432,98.7533089 268.317857,91.4416107 L268.317857,71.4958389 C268.311646,64.1797379 262.380079,58.2486708 255.057143,58.2362416 L202.589857,58.2362416 C195.27132,58.2486554 189.341568,64.1728656 189.329143,71.4845638 L189.329143,91.4190604 C189.341568,98.7307586 195.27132,104.654969 202.589857,104.667383 L227.745714,104.667383 C228.415754,104.667383 228.958929,105.210049 228.958929,105.879463 C228.958929,106.548877 228.415754,107.091544 227.745714,107.091544 L202.589857,107.091544 C193.931242,107.079124 186.915146,100.069584 186.902714,91.4190604 L186.902714,71.4958389 C186.915146,62.8453152 193.931242,55.8357757 202.589857,55.8233557 L255.057143,55.8233557 C263.715758,55.8357757 270.731854,62.8453152 270.744286,71.4958389 L270.744286,91.4303356 C270.738071,100.085262 263.720158,107.101661 255.057143,107.114094 L255.057143,107.114094 Z" id="Shape" fill="#424242"></path>
                        <path d="M228.885571,117.814228 C228.073064,117.812668 227.282281,117.551953 226.628429,117.070067 C225.252624,116.096292 224.694359,114.326263 225.262857,112.740403 L227.757,105.51302 C227.849087,105.050474 228.202504,104.683942 228.66172,104.574727 C229.120936,104.465512 229.601749,104.633639 229.892564,105.00512 C230.183379,105.376601 230.230872,105.883319 230.014143,106.302282 L227.52,113.529664 C227.313878,114.112354 227.515126,114.761117 228.014948,115.12523 C228.514771,115.489344 229.194575,115.482414 229.686857,115.108188 L243.229714,104.960537 C243.765746,104.558889 244.52619,104.667422 244.928214,105.202953 C245.330238,105.738484 245.221603,106.498218 244.685571,106.899866 L231.142714,117.047517 C230.491648,117.537449 229.70062,117.806147 228.885571,117.814228 Z" id="Shape" fill="#424242"></path>
                        <path d="M234.257571,71.8791946 L199.271857,71.8791946 C198.601817,71.8791946 198.058643,71.3365277 198.058643,70.6671141 C198.058643,69.9977005 198.601817,69.4550336 199.271857,69.4550336 L234.257571,69.4550336 C234.927611,69.4550336 235.470786,69.9977005 235.470786,70.6671141 C235.470786,71.3365277 234.927611,71.8791946 234.257571,71.8791946 L234.257571,71.8791946 Z" id="Shape" fill="#424242"></path>
                        <path d="M257.314286,82.184698 L222.328571,82.184698 C221.658532,82.184698 221.115357,81.642031 221.115357,80.9726174 C221.115357,80.3032039 221.658532,79.7605369 222.328571,79.7605369 L257.314286,79.7605369 C257.984325,79.760537 258.5275,80.3032039 258.5275,80.9726174 C258.5275,81.642031 257.984325,82.1846979 257.314286,82.184698 L257.314286,82.184698 Z" id="Shape" fill="#424242"></path>
                        <path d="M257.032143,71.8791946 L243.015286,71.8791946 C242.345246,71.8791946 241.802071,71.3365277 241.802071,70.6671141 C241.802071,69.9977005 242.345246,69.4550336 243.015286,69.4550336 L257.032143,69.4550336 C257.702183,69.4550336 258.245357,69.9977005 258.245357,70.6671141 C258.245357,71.3365277 257.702183,71.8791946 257.032143,71.8791946 L257.032143,71.8791946 Z" id="Shape" fill="#424242"></path>
                        <path d="M151.668714,37.1178523 L139.683286,37.1178523 C139.013246,37.1178523 138.470071,36.5751854 138.470071,35.9057718 C138.470071,35.2363582 139.013246,34.6936913 139.683286,34.6936913 L151.668714,34.6936913 C152.338754,34.6936913 152.881929,35.2363582 152.881929,35.9057718 C152.881929,36.5751854 152.338754,37.1178523 151.668714,37.1178523 L151.668714,37.1178523 Z" id="Shape" fill="#424242"></path>
                        <path d="M166.441714,48.1562416 L139.683286,48.1562416 C139.013246,48.1562416 138.470071,47.6135747 138.470071,46.9441611 C138.470071,46.2747475 139.013246,45.7320805 139.683286,45.7320805 L166.441714,45.7320805 C167.111754,45.7320805 167.654929,46.2747475 167.654929,46.9441611 C167.654929,47.6135747 167.111754,48.1562416 166.441714,48.1562416 L166.441714,48.1562416 Z" id="Shape" fill="#424242"></path>
                        <path d="M166.170857,37.1178523 L160.449,37.1178523 C159.77896,37.1178523 159.235786,36.5751854 159.235786,35.9057718 C159.235786,35.2363582 159.77896,34.6936913 160.449,34.6936913 L166.170857,34.6936913 C166.840897,34.6936913 167.384071,35.2363582 167.384071,35.9057718 C167.384071,36.5751854 166.840897,37.1178523 166.170857,37.1178523 L166.170857,37.1178523 Z" id="Shape" fill="#424242"></path>
                        <path d="M151.668714,57.322953 L139.683286,57.322953 C139.013246,57.322953 138.470071,56.7802861 138.470071,56.1108725 C138.470071,55.4414589 139.013246,54.8987919 139.683286,54.8987919 L151.668714,54.8987919 C152.338754,54.8987919 152.881929,55.4414589 152.881929,56.1108725 C152.881929,56.7802861 152.338754,57.322953 151.668714,57.322953 L151.668714,57.322953 Z" id="Shape" fill="#424242"></path>
                        <path d="M166.441714,68.3613423 L154.467571,68.3613423 C153.797532,68.3613423 153.254357,67.8186753 153.254357,67.1492617 C153.254357,66.4798481 153.797532,65.9371812 154.467571,65.9371812 L166.453,65.9371812 C167.12304,65.9371812 167.666214,66.4798481 167.666214,67.1492617 C167.666214,67.8186753 167.12304,68.3613423 166.453,68.3613423 L166.441714,68.3613423 Z" id="Shape" fill="#424242"></path>
                        <path d="M166.170857,57.322953 L160.449,57.322953 C159.77896,57.322953 159.235786,56.7802861 159.235786,56.1108725 C159.235786,55.4414589 159.77896,54.8987919 160.449,54.8987919 L166.170857,54.8987919 C166.840897,54.8987919 167.384071,55.4414589 167.384071,56.1108725 C167.384071,56.7802861 166.840897,57.322953 166.170857,57.322953 L166.170857,57.322953 Z" id="Shape" fill="#424242"></path>
                        <path d="M145.405143,68.3613423 L139.683286,68.3613423 C139.013246,68.3613423 138.470071,67.8186753 138.470071,67.1492617 C138.470071,66.4798481 139.013246,65.9371812 139.683286,65.9371812 L145.405143,65.9371812 C146.075183,65.9371812 146.618357,66.4798481 146.618357,67.1492617 C146.618357,67.8186753 146.075183,68.3613423 145.405143,68.3613423 L145.405143,68.3613423 Z" id="Shape" fill="#424242"></path>
                        <path d="M166.170857,78.4300671 L139.683286,78.4300671 C139.013246,78.4300671 138.470071,77.8874002 138.470071,77.2179866 C138.470071,76.548573 139.013246,76.005906 139.683286,76.005906 L166.170857,76.005906 C166.840897,76.005906 167.384071,76.548573 167.384071,77.2179866 C167.384071,77.8874002 166.840897,78.4300671 166.170857,78.4300671 L166.170857,78.4300671 Z" id="Shape" fill="#424242"></path>
                        <path d="M234.257571,92.4563758 L199.271857,92.4563758 C198.601817,92.4563758 198.058643,91.9137089 198.058643,91.2442953 C198.058643,90.5748817 198.601817,90.0322148 199.271857,90.0322148 L234.257571,90.0322148 C234.927611,90.0322148 235.470786,90.5748817 235.470786,91.2442953 C235.470786,91.9137089 234.927611,92.4563758 234.257571,92.4563758 L234.257571,92.4563758 Z" id="Shape" fill="#424242"></path>
                        <path d="M257.032143,92.4563758 L243.015286,92.4563758 C242.345246,92.4563758 241.802071,91.9137089 241.802071,91.2442953 C241.802071,90.5748817 242.345246,90.0322148 243.015286,90.0322148 L257.032143,90.0322148 C257.702183,90.0322148 258.245357,90.5748817 258.245357,91.2442953 C258.245357,91.9137089 257.702183,92.4563758 257.032143,92.4563758 Z" id="Shape" fill="#424242"></path>
                        <path d="M213.3,82.184698 L199.260571,82.184698 C198.590532,82.184698 198.047357,81.642031 198.047357,80.9726174 C198.047357,80.3032039 198.590532,79.7605369 199.260571,79.7605369 L213.3,79.7605369 C213.97004,79.760537 214.513214,80.3032039 214.513214,80.9726174 C214.513214,81.642031 213.97004,82.1846979 213.3,82.184698 L213.3,82.184698 Z" id="Shape" fill="#424242"></path>
                        <path d="M268.6,286.27651 L47.4,286.27651 C46.7299603,286.27651 46.1867857,285.733843 46.1867857,285.06443 C46.1867857,284.395016 46.7299603,283.852349 47.4,283.852349 L268.6,283.852349 C269.27004,283.852349 269.813214,284.395016 269.813214,285.06443 C269.813214,285.733843 269.27004,286.27651 268.6,286.27651 L268.6,286.27651 Z" id="Shape" fill="#424242"></path>
                        <path d="M291.780857,286.231409 L277.211,286.231409 C276.54096,286.231409 275.997786,285.688742 275.997786,285.019329 C275.997786,284.349915 276.54096,283.807248 277.211,283.807248 L291.780857,283.807248 C292.450897,283.807248 292.994071,284.349915 292.994071,285.019329 C292.994071,285.688742 292.450897,286.231409 291.780857,286.231409 L291.780857,286.231409 Z" id="Shape" fill="#424242"></path>
                        <path d="M314.442571,286.231409 L300.414429,286.231409 C299.744389,286.231409 299.201214,285.688742 299.201214,285.019329 C299.201214,284.349915 299.744389,283.807248 300.414429,283.807248 L314.442571,283.807248 C315.112611,283.807248 315.655786,284.349915 315.655786,285.019329 C315.655786,285.688742 315.112611,286.231409 314.442571,286.231409 L314.442571,286.231409 Z" id="Shape" fill="#424242"></path>
                        <path d="M16.1272857,285.983356 L1.55742857,285.983356 C0.887388823,285.983356 0.344214286,285.440689 0.344214286,284.771275 C0.344214286,284.101862 0.887388823,283.559195 1.55742857,283.559195 L16.1272857,283.559195 C16.7973255,283.559195 17.3405,284.101862 17.3405,284.771275 C17.3405,285.440689 16.7973255,285.983356 16.1272857,285.983356 L16.1272857,285.983356 Z" id="Shape" fill="#424242"></path>
                        <path d="M38.789,285.983356 L24.7608571,285.983356 C24.0908174,285.983356 23.5476429,285.440689 23.5476429,284.771275 C23.5476429,284.101862 24.0908174,283.559195 24.7608571,283.559195 L38.789,283.559195 C39.4590397,283.559195 40.0022143,284.101862 40.0022143,284.771275 C40.0022143,285.440689 39.4590397,285.983356 38.789,285.983356 L38.789,285.983356 Z" id="Shape" fill="#424242"></path>
                        <path d="M94.6758571,73.8974497 C94.3711429,74.0327517 94.2808571,74.258255 94.1228571,74.4273826 C93.6657723,74.9642763 93.0617218,75.3561503 92.3848571,75.5548993 C91.6207938,75.8187918 90.7775592,75.7152596 90.1001886,75.2743882 C89.4228181,74.8335168 88.987282,74.1047522 88.9201429,73.2998658 C88.556185,70.8513098 89.3099506,68.3686905 90.9741429,66.5347651 C91.6699433,65.7903847 92.6039058,65.3118772 93.615,65.181745 C94.8272846,65.0029045 96.0592868,65.0029045 97.2715714,65.181745 C97.7410096,65.1845494 98.1793171,65.4168482 98.4448899,65.8035926 C98.7104628,66.190337 98.7696335,66.6824983 98.6032857,67.1210738 C98.276,68.7221477 97.9148571,70.3006711 97.5875714,71.901745 C97.5200484,72.179589 97.4747626,72.4623607 97.4521429,72.7473826 C97.4521429,73.446443 97.7568571,73.7621477 98.4565714,73.717047 C99.3645706,73.6775758 100.178421,73.1456075 100.578286,72.3302013 C101.112498,71.3570212 101.329485,70.2415698 101.199,69.1393289 C100.721234,65.2844781 97.375869,62.4323798 93.4902902,62.567251 C89.6047114,62.7021223 86.4655413,65.7793036 86.2567143,69.6579866 C86.123885,72.0253862 87.1456742,74.3107109 88.9991429,75.7916779 C90.2237166,76.7741094 91.0725389,78.1476777 91.403,79.6816107 C91.482,80.0424161 91.6174286,80.1438926 91.9672857,80.1438926 L95.8608571,80.1438926 C96.0096732,80.1667918 96.1611095,80.1240121 96.2758888,80.0266491 C96.3906681,79.9292861 96.4574815,79.7869326 96.459,79.6365101 C96.5991574,78.8503754 96.8579126,78.0900418 97.2264286,77.3814765 C97.3459207,77.088011 97.6316001,76.8962495 97.9487143,76.8966443 C98.5468571,76.8966443 99.0772857,76.7387919 99.7318571,76.6598658 C99.7882857,76.9079195 99.5964286,77.009396 99.4948571,77.144698 C98.6364283,78.1602106 98.1647622,79.4460968 98.1631429,80.775302 C98.1795183,81.448411 98.0997147,82.1204128 97.9261429,82.7710067 C97.6004151,84.138496 96.5071546,85.1910971 95.1272857,85.4657718 C94.2864461,85.6772125 93.4062681,85.6772125 92.5654286,85.4657718 C91.1608272,85.1550376 90.0929607,84.011964 89.8794286,82.590604 C89.7988289,82.1435922 89.7498031,81.6914696 89.7327143,81.2375839 C89.6725965,79.6405476 88.9486502,78.1408865 87.7351429,77.0995973 C84.9256137,74.7066175 83.7897156,70.885339 84.8364795,67.3481943 C85.8832435,63.8110495 88.9164062,61.221236 92.5767143,60.7393289 C97.2731326,60.091414 101.709614,63.0640855 102.891857,67.6510067 C103.212891,68.9850193 103.212891,70.3760545 102.891857,71.7100671 C102.443606,73.9337472 100.512033,75.5496936 98.2421429,75.6 L97.8132857,75.6 C96.4477143,75.6112752 95.1724286,75.464698 94.6758571,73.8974497 Z M91.8882857,71.9806711 C91.8990876,72.2338635 91.9254708,72.4861522 91.9672857,72.7361074 C91.9905895,73.0954139 92.2135034,73.4113546 92.5443899,73.5540499 C92.8752763,73.6967451 93.2582984,73.642115 93.536,73.4126174 C94.1157642,73.082402 94.5264917,72.5202311 94.6645714,71.8679195 C94.7661429,71.4732886 94.8338571,71.0786577 94.9241429,70.6727517 C95.1498571,69.5452349 95.3981429,68.474094 95.6125714,67.3804027 C95.6872117,67.1630467 95.6554901,66.9232988 95.5268836,66.7327846 C95.3982771,66.5422704 95.1876767,66.423049 94.958,66.4107383 C94.6187774,66.3740697 94.278629,66.4711642 94.01,66.6813423 C93.6278875,66.9844466 93.3192526,67.3698797 93.1071429,67.8088591 C92.4183536,69.1118313 92.0325914,70.5532338 91.9785714,72.0257718 L91.8882857,71.9806711 Z M96.1542857,82.1283221 L92.0124286,82.1283221 C91.7077143,82.1283221 91.7077143,82.2861745 91.7641429,82.5004027 C91.915648,83.1676817 92.423589,83.6968346 93.0845714,83.8759732 C93.7232047,84.1315308 94.4436319,84.0821549 95.0413509,83.7418613 C95.6390698,83.4015677 96.0488189,82.8075112 96.1542857,82.1283221 Z" id="Shape" fill="#FBDF02"></path>
                        <path d="M108.072,75.6112752 C108.072741,75.9014232 107.930192,76.1732653 107.691005,76.3378344 C107.451818,76.5024034 107.146777,76.5385194 106.875714,76.4343624 C106.413,76.2652349 105.972857,76.0171812 105.510143,75.802953 C105.047429,75.5887248 104.607286,75.3406711 104.155857,75.1489933 C103.704429,74.9573154 103.828571,74.8445638 103.986571,74.5965101 C104.144571,74.3484564 104.268714,73.6155705 104.652429,73.4689933 C105.036143,73.3224161 105.419857,73.7508725 105.781,73.92 L107.462571,74.7205369 C107.836039,74.8559674 108.081305,75.2144474 108.072,75.6112752 L108.072,75.6112752 Z" id="Shape" fill="#FBDF02"></path>
                        <path d="M87.69,55.9248322 C88.0349263,55.9175656 88.3506375,56.1174772 88.4912857,56.4322148 C88.9088571,57.3342282 89.3264286,58.2587919 89.744,59.1608054 C89.823,59.3412081 89.823,59.4652349 89.6198571,59.5667114 C89.4167143,59.6681879 88.875,59.8936913 88.4912857,60.074094 C88.1075714,60.2544966 88.1414286,60.074094 88.0398571,59.8936913 C87.6335714,58.9804027 87.1934286,58.0783893 86.821,57.1538255 C86.7000403,56.8756237 86.731108,56.5547849 86.9032029,56.3049073 C87.0752979,56.0550297 87.3641281,55.9113847 87.6674286,55.9248322 L87.69,55.9248322 Z" id="Shape" fill="#FBDF02"></path>
                        <path d="M80.422,76.5020134 C80.0084089,76.5345361 79.622674,76.2913832 79.474,75.9044295 C79.3384012,75.5593076 79.4436362,75.1661878 79.7335714,74.9347651 C79.886623,74.8142563 80.0532836,74.7120829 80.2301429,74.6303356 C80.975,74.258255 81.7311429,73.92 82.4872857,73.5028188 C82.8484286,73.3111409 83.0064286,73.4126174 83.1305714,73.7508725 C83.2547143,74.0891275 83.7174286,74.5401342 83.5932857,74.8783893 C83.4691429,75.2166443 82.9048571,75.3181208 82.5211429,75.5097987 L80.975,76.2652349 C80.8060679,76.376092 80.6188558,76.4562508 80.422,76.5020134 L80.422,76.5020134 Z" id="Shape" fill="#FBDF02"></path>
                        <path d="M108.049429,64.6292617 C108.095144,65.0315144 107.849087,65.4097096 107.462571,65.5312752 C106.559714,65.8808054 105.634286,66.2077852 104.720143,66.5573154 C104.460571,66.6587919 104.347714,66.5573154 104.246143,66.3205369 C103.659286,65.0013423 103.648,65.0013423 104.968429,64.5277852 C105.600429,64.2910067 106.221143,64.042953 106.853143,63.84 C107.119825,63.7272644 107.425194,63.7546488 107.667518,63.9130304 C107.909842,64.071412 108.05728,64.3399795 108.060714,64.6292617 L108.049429,64.6292617 Z" id="Shape" fill="#FBDF02"></path>
                        <path d="M80.343,63.7497987 C80.4332857,63.7497987 80.6025714,63.8061745 80.7492857,63.8625503 C81.5844286,64.1669799 82.397,64.4826846 83.2321429,64.7645638 C83.5594286,64.8773154 83.7174286,65.0238926 83.5368571,65.3621477 C83.3562857,65.7004027 83.3562857,66.3092617 83.0177143,66.4896644 C82.6791429,66.6700671 82.2277143,66.2979866 81.8214286,66.1626846 C81.1668571,65.9371812 80.5122857,65.7004027 79.8802857,65.4297987 C79.4851313,65.2682925 79.27223,64.8380538 79.3837143,64.4263087 C79.5083819,64.006289 79.9051129,63.7265053 80.343,63.7497987 Z" id="Shape" fill="#FBDF02"></path>
                        <path d="M101.018429,56.917047 C100.98706,57.051528 100.945561,57.1834475 100.894286,57.3116779 C100.521857,58.1347651 100.138143,58.9578523 99.7657143,59.7922148 C99.6415714,60.0966443 99.5061429,60.209396 99.1675714,60.0289933 C98.8609847,59.8596556 98.544404,59.7090438 98.2195714,59.5779866 C97.9938571,59.4765101 97.96,59.3637584 98.0615714,59.138255 C98.4791429,58.2362416 98.8515714,57.3455034 99.2804286,56.4773154 C99.4575599,56.0724561 99.9021612,55.8553832 100.330717,55.9645208 C100.759273,56.0736584 101.045613,56.4768757 101.007143,56.917047 L101.018429,56.917047 Z" id="Shape" fill="#FBDF02"></path>
                        <path d="M131.185143,8.09557047 C131.819548,7.84039019 132.545324,7.9916376 133.024714,8.47892617 C134.446714,9.84322148 135.868714,11.2638926 137.290714,12.6394631 C137.561571,12.9100671 137.651857,13.1355705 137.290714,13.4738255 C136.715143,14.0375839 136.162143,14.6013423 135.597857,15.1989262 C135.248,15.5710067 134.965857,15.5033557 134.638571,15.1989262 C133.227857,13.8008054 131.783286,12.4365101 130.417714,10.9820134 C129.992353,10.5536079 129.820117,9.93529152 129.962813,9.34894556 C130.105509,8.7625996 130.542672,8.29231253 131.117429,8.10684564 L131.185143,8.09557047 Z" id="Shape" fill="#FBDF02"></path>
                        <path d="M175.131714,9.70791946 C175.506576,10.4184408 175.321625,11.2949532 174.691571,11.7938255 C173.280857,13.0904698 171.779857,14.3645638 170.346571,15.6612081 C169.929,16.0332886 169.658143,15.9205369 169.297,15.5597315 C167.276857,13.5302013 167.243,13.5414765 169.297,11.7148993 C170.290143,10.8354362 171.260714,9.93342282 172.287714,9.11033557 C172.704866,8.7188396 173.288203,8.55762484 173.847439,8.67928003 C174.406674,8.80093522 174.87011,9.18986326 175.086571,9.71919463 L175.131714,9.70791946 Z" id="Shape" fill="#FBDF02"></path>
                        <path d="M154.919,1.66872483 C154.984616,1.93551999 155.029889,2.20690198 155.054429,2.48053691 C155.054429,4.27328859 155.133429,6.07731544 155.201143,7.87006711 C155.201143,8.51275168 155.088286,8.85100671 154.332143,8.80590604 C153.636831,8.76372083 152.939598,8.76372083 152.244286,8.80590604 C151.747714,8.80590604 151.589714,8.64805369 151.578429,8.15194631 C151.578429,6.19006711 151.443,4.25073826 151.454286,2.33395973 C151.388029,1.44073365 151.995888,0.637240368 152.8741,0.457189302 C153.752312,0.277138235 154.627786,0.776518743 154.919,1.62362416 L154.919,1.66872483 Z" id="Shape" fill="#FBDF02"></path>
                    </g>
                </g>
            </g>
        </g>
    </g>
</svg>